G04 #@! TF.GenerationSoftware,KiCad,Pcbnew,5.1.5+dfsg1-2build2*
G04 #@! TF.CreationDate,2021-07-27T21:48:52+02:00*
G04 #@! TF.ProjectId,FunKey,46756e4b-6579-42e6-9b69-6361645f7063,F*
G04 #@! TF.SameCoordinates,Original*
G04 #@! TF.FileFunction,Paste,Bot*
G04 #@! TF.FilePolarity,Positive*
%FSLAX46Y46*%
G04 Gerber Fmt 4.6, Leading zero omitted, Abs format (unit mm)*
G04 Created by KiCad (PCBNEW 5.1.5+dfsg1-2build2) date 2021-07-27 21:48:52*
%MOMM*%
%LPD*%
G04 APERTURE LIST*
%ADD10C,0.127000*%
%ADD11R,1.000000X1.400000*%
%ADD12R,0.700000X1.000000*%
%ADD13R,1.200000X1.400000*%
%ADD14R,0.240000X0.900000*%
%ADD15R,0.900000X0.240000*%
%ADD16R,0.550000X0.550000*%
%ADD17R,0.700000X0.500000*%
%ADD18R,0.762000X1.016000*%
%ADD19R,0.550000X0.600000*%
%ADD20R,0.600000X0.550000*%
%ADD21R,0.508000X0.508000*%
G04 APERTURE END LIST*
D10*
G36*
X86972000Y-67910000D02*
G01*
X86522000Y-67910000D01*
X86522000Y-67460000D01*
X86972000Y-67460000D01*
X86972000Y-67910000D01*
G37*
G36*
X87722000Y-67910000D02*
G01*
X87272000Y-67910000D01*
X87272000Y-67460000D01*
X87722000Y-67460000D01*
X87722000Y-67910000D01*
G37*
G36*
X87722000Y-67160000D02*
G01*
X87272000Y-67160000D01*
X87272000Y-66710000D01*
X87722000Y-66710000D01*
X87722000Y-67160000D01*
G37*
G36*
X86972000Y-67160000D02*
G01*
X86522000Y-67160000D01*
X86522000Y-66710000D01*
X86972000Y-66710000D01*
X86972000Y-67160000D01*
G37*
G36*
X80800000Y-64173000D02*
G01*
X81700000Y-64173000D01*
X81881173Y-64196852D01*
X82050000Y-64266782D01*
X82194975Y-64378025D01*
X82306218Y-64523000D01*
X82400000Y-64873000D01*
X82376148Y-65054173D01*
X82306218Y-65223000D01*
X82194975Y-65367975D01*
X82050000Y-65479218D01*
X81881173Y-65549148D01*
X81700000Y-65573000D01*
X80800000Y-65573000D01*
X80618827Y-65549148D01*
X80450000Y-65479218D01*
X80305025Y-65367975D01*
X80193782Y-65223000D01*
X80123852Y-65054173D01*
X80100000Y-64873000D01*
X80123852Y-64691827D01*
X80193782Y-64523000D01*
X80305025Y-64378025D01*
X80450000Y-64266782D01*
X80800000Y-64173000D01*
G37*
G36*
X80800000Y-73873000D02*
G01*
X81700000Y-73873000D01*
X81881173Y-73896852D01*
X82050000Y-73966782D01*
X82194975Y-74078025D01*
X82306218Y-74223000D01*
X82400000Y-74573000D01*
X82376148Y-74754173D01*
X82306218Y-74923000D01*
X82194975Y-75067975D01*
X82050000Y-75179218D01*
X81881173Y-75249148D01*
X81700000Y-75273000D01*
X80800000Y-75273000D01*
X80618827Y-75249148D01*
X80450000Y-75179218D01*
X80305025Y-75067975D01*
X80193782Y-74923000D01*
X80123852Y-74754173D01*
X80100000Y-74573000D01*
X80123852Y-74391827D01*
X80193782Y-74223000D01*
X80305025Y-74078025D01*
X80450000Y-73966782D01*
X80800000Y-73873000D01*
G37*
G36*
X77500000Y-64173000D02*
G01*
X78400000Y-64173000D01*
X78399999Y-64173000D01*
X78581172Y-64196852D01*
X78749999Y-64266782D01*
X78894974Y-64378025D01*
X79006217Y-64523000D01*
X79100000Y-64873000D01*
X79100000Y-64872999D01*
X79076148Y-65054173D01*
X79006218Y-65223000D01*
X78894975Y-65367975D01*
X78750000Y-65479218D01*
X78581174Y-65549149D01*
X78400000Y-65573000D01*
X77500000Y-65573000D01*
X77318827Y-65549148D01*
X77150000Y-65479218D01*
X77005025Y-65367975D01*
X76893782Y-65223000D01*
X76823852Y-65054173D01*
X76800000Y-64873000D01*
X76823852Y-64691827D01*
X76893782Y-64523000D01*
X77005025Y-64378025D01*
X77150000Y-64266782D01*
X77500000Y-64173000D01*
G37*
G36*
X77500000Y-73873000D02*
G01*
X78400000Y-73873000D01*
X78399999Y-73873000D01*
X78581172Y-73896852D01*
X78749999Y-73966782D01*
X78894974Y-74078025D01*
X79006217Y-74223000D01*
X79100000Y-74573000D01*
X79100000Y-74572999D01*
X79076148Y-74754173D01*
X79006218Y-74923000D01*
X78894975Y-75067975D01*
X78750000Y-75179218D01*
X78581174Y-75249149D01*
X78400000Y-75273000D01*
X77500000Y-75273000D01*
X77318827Y-75249148D01*
X77150000Y-75179218D01*
X77005025Y-75067975D01*
X76893782Y-74923000D01*
X76823852Y-74754173D01*
X76800000Y-74573000D01*
X76823852Y-74391827D01*
X76893782Y-74223000D01*
X77005025Y-74078025D01*
X77150000Y-73966782D01*
X77500000Y-73873000D01*
G37*
D11*
X117409000Y-50731600D03*
X115509000Y-50731600D03*
X116459000Y-48531600D03*
D12*
X106741000Y-71417500D03*
X105791000Y-71417500D03*
X104841000Y-71417500D03*
X104841000Y-73616500D03*
X105791000Y-73616500D03*
X106741000Y-73616500D03*
D13*
X83312000Y-69074000D03*
X83312000Y-73674000D03*
D14*
X88372000Y-65260000D03*
X87872000Y-65260000D03*
X87372000Y-65260000D03*
X86872000Y-65260000D03*
X86372000Y-65260000D03*
X85872000Y-65260000D03*
D15*
X85072000Y-66060000D03*
X85072000Y-66560000D03*
X85072000Y-67060000D03*
X85072000Y-67560000D03*
X85072000Y-68060000D03*
X85072000Y-68560000D03*
D14*
X85872000Y-69360000D03*
X86372000Y-69360000D03*
X86872000Y-69360000D03*
X87372000Y-69360000D03*
X87872000Y-69360000D03*
X88372000Y-69360000D03*
D15*
X89172000Y-68560000D03*
X89172000Y-68060000D03*
X89172000Y-67560000D03*
X89172000Y-67060000D03*
X89172000Y-66560000D03*
X89172000Y-66060000D03*
D16*
X96825000Y-46625000D03*
X97575000Y-46625000D03*
X96825000Y-49275000D03*
X97575000Y-49275000D03*
X84125000Y-52025000D03*
X84125000Y-51275000D03*
X86775000Y-52025000D03*
X86775000Y-51275000D03*
X90625000Y-57775000D03*
X89875000Y-57775000D03*
X90625000Y-55125000D03*
X89875000Y-55125000D03*
X86775000Y-60875000D03*
X86775000Y-61625000D03*
X84125000Y-60875000D03*
X84125000Y-61625000D03*
X80275000Y-55125000D03*
X81025000Y-55125000D03*
X80275000Y-57775000D03*
X81025000Y-57775000D03*
X110275000Y-51265000D03*
X110275000Y-52015000D03*
X107625000Y-51265000D03*
X107625000Y-52015000D03*
X113375000Y-55125000D03*
X114125000Y-55125000D03*
X113375000Y-57775000D03*
X114125000Y-57775000D03*
X107625000Y-61635000D03*
X107625000Y-60885000D03*
X110275000Y-61635000D03*
X110275000Y-60885000D03*
X104525000Y-57775000D03*
X103775000Y-57775000D03*
X104525000Y-55125000D03*
X103775000Y-55125000D03*
X91875000Y-72325000D03*
X91875000Y-71575000D03*
X94525000Y-72325000D03*
X94525000Y-71575000D03*
X102525000Y-71575000D03*
X102525000Y-72325000D03*
X99875000Y-71575000D03*
X99875000Y-72325000D03*
D17*
X83989000Y-75311000D03*
X82889000Y-75311000D03*
D18*
X104140000Y-69850000D03*
X104140000Y-68072000D03*
D19*
X93174000Y-51181000D03*
X94024000Y-51181000D03*
D20*
X86106000Y-72600000D03*
X86106000Y-73450000D03*
X90170000Y-45295000D03*
X90170000Y-46145000D03*
X92202000Y-45295000D03*
X92202000Y-46145000D03*
X87122000Y-45295000D03*
X87122000Y-46145000D03*
X93218000Y-45295000D03*
X93218000Y-46145000D03*
X89154000Y-45295000D03*
X89154000Y-46145000D03*
X88138000Y-45295000D03*
X88138000Y-46145000D03*
X103378000Y-75355000D03*
X103378000Y-74505000D03*
D19*
X89833000Y-71247000D03*
X88983000Y-71247000D03*
D20*
X79121000Y-51391000D03*
X79121000Y-52241000D03*
D19*
X90595000Y-61849000D03*
X89745000Y-61849000D03*
D20*
X91821000Y-61512000D03*
X91821000Y-60662000D03*
D19*
X80347000Y-50165000D03*
X81197000Y-50165000D03*
X102914000Y-59944000D03*
X102064000Y-59944000D03*
X105327000Y-59944000D03*
X104477000Y-59944000D03*
X114217000Y-52959000D03*
X113367000Y-52959000D03*
X113201000Y-50419000D03*
X112351000Y-50419000D03*
D20*
X91186000Y-45295000D03*
X91186000Y-46145000D03*
D21*
X89535000Y-70231000D03*
X90297000Y-70231000D03*
X100584000Y-68326000D03*
X100584000Y-67564000D03*
X97536000Y-69850000D03*
X98298000Y-69850000D03*
X94996000Y-66040000D03*
X94996000Y-66802000D03*
X97536000Y-68834000D03*
X98298000Y-68834000D03*
X106680000Y-47879000D03*
X106680000Y-47117000D03*
X104775000Y-46736000D03*
X105537000Y-46736000D03*
X100330000Y-51308000D03*
X99568000Y-51308000D03*
X113665000Y-62865000D03*
X113665000Y-62103000D03*
X107950000Y-67183000D03*
X107950000Y-67945000D03*
X104648000Y-48641000D03*
X104648000Y-47879000D03*
X107696000Y-47879000D03*
X107696000Y-47117000D03*
X102362000Y-66294000D03*
X102362000Y-65532000D03*
X112649000Y-62865000D03*
X112649000Y-62103000D03*
X103378000Y-48641000D03*
X103378000Y-47879000D03*
X102235000Y-48768000D03*
X101473000Y-48768000D03*
X100838000Y-65405000D03*
X100838000Y-66167000D03*
X105664000Y-48641000D03*
X105664000Y-47879000D03*
X105283000Y-68707000D03*
X105283000Y-67945000D03*
X102997000Y-63373000D03*
X103759000Y-63373000D03*
X113538000Y-64008000D03*
X112776000Y-64008000D03*
X112014000Y-65024000D03*
X111252000Y-65024000D03*
X109093000Y-65151000D03*
X109093000Y-65913000D03*
X106934000Y-65024000D03*
X106172000Y-65024000D03*
X114173000Y-65024000D03*
X114935000Y-65024000D03*
X92837000Y-60960000D03*
X92837000Y-61722000D03*
X88392000Y-64262000D03*
X89154000Y-64262000D03*
X89408000Y-62865000D03*
X90170000Y-62865000D03*
X93980000Y-66802000D03*
X93980000Y-66040000D03*
X97282000Y-70866000D03*
X98044000Y-70866000D03*
X101092000Y-62738000D03*
X101092000Y-63500000D03*
X94361000Y-64770000D03*
X94361000Y-64008000D03*
X99822000Y-66167000D03*
X99822000Y-65405000D03*
X115697000Y-61087000D03*
X115697000Y-60325000D03*
X114681000Y-61087000D03*
X114681000Y-60325000D03*
X100457000Y-58039000D03*
X100457000Y-58801000D03*
X110109000Y-65913000D03*
X110109000Y-65151000D03*
X102362000Y-47625000D03*
X102362000Y-46863000D03*
X101346000Y-47625000D03*
X101346000Y-46863000D03*
X108077000Y-65913000D03*
X108077000Y-65151000D03*
X102997000Y-67945000D03*
X102997000Y-68707000D03*
X104902000Y-64262000D03*
X104902000Y-63500000D03*
X104775000Y-45720000D03*
X105537000Y-45720000D03*
X85090000Y-72390000D03*
X85090000Y-73152000D03*
X114427000Y-51308000D03*
X114427000Y-50546000D03*
X114046000Y-49403000D03*
X113284000Y-49403000D03*
X116713000Y-61087000D03*
X116713000Y-60325000D03*
X112522000Y-51435000D03*
X113284000Y-51435000D03*
M02*
