M48
INCH,TZ
T1C0.0120
T2C0.0280
T3C0.0315
%
G90
G05
T1
X30580Y-19710
X30600Y-24480
X30600Y-24780
X30680Y-22360
X30680Y-22760
X30730Y-21060
X30730Y-23210
X30740Y-21580
X30780Y-20610
X30880Y-20110
X30950Y-24190
X30950Y-24490
X30990Y-21280
X31000Y-25000
X31280Y-19860
X31500Y-23580
X31680Y-22990
X31750Y-24900
X31800Y-20640
X31800Y-21000
X31800Y-21360
X31800Y-22020
X31880Y-19110
X32040Y-22440
X32040Y-23100
X32100Y-23400
X32330Y-20000
X32700Y-27950
X32700Y-28380
X32960Y-28220
X33000Y-19000
X33000Y-24960
X33050Y-27650
X33100Y-21000
X33150Y-23700
X33180Y-24660
X33450Y-24100
X33500Y-25850
X33600Y-24840
X33700Y-27750
X33720Y-18960
X33720Y-22200
X33750Y-28200
X33960Y-24900
X34000Y-20000
X34000Y-21000
X34020Y-22320
X34080Y-28080
X34100Y-26050
X34200Y-28800
X34380Y-18540
X34500Y-17640
X34500Y-28260
X34550Y-26050
X34680Y-24840
X34750Y-29050
X34800Y-18660
X34900Y-17640
X34950Y-27700
X35000Y-24000
X35040Y-27240
X35160Y-18600
X35160Y-24840
X35160Y-25620
X35280Y-28320
X35300Y-17640
X35300Y-25200
X35400Y-27240
X35480Y-18600
X35550Y-21500
X35550Y-21950
X35550Y-23250
X35550Y-27650
X35700Y-17640
X35700Y-24750
X35700Y-29160
X35760Y-27240
X35760Y-29780
X35820Y-18600
X35830Y-26620
X35850Y-27650
X35900Y-21800
X35940Y-21480
X35950Y-24350
X36000Y-22430
X36000Y-22740
X36000Y-29210
X36100Y-17640
X36120Y-26280
X36180Y-18600
X36240Y-25230
X36360Y-26280
X36480Y-28440
X36480Y-29220
X36540Y-23160
X36540Y-26040
X36550Y-22350
X36600Y-23640
X36900Y-29300
X36980Y-19720
X37100Y-22400
X37100Y-23150
X37200Y-26450
X37260Y-28850
X37280Y-19720
X37380Y-18300
X37400Y-23350
X37420Y-25680
X37510Y-25110
X37600Y-28850
X37740Y-25680
X37800Y-21500
X38100Y-19710
X38100Y-28000
X38150Y-21850
X38200Y-28850
X38210Y-24080
X38300Y-27300
X38400Y-19740
X38450Y-21250
X38450Y-22700
X38450Y-23100
X38450Y-23900
X38450Y-24260
X38480Y-29310
X38500Y-28850
X38600Y-25780
X38600Y-26080
X38700Y-28260
X38730Y-18390
X38750Y-22780
X38760Y-21360
X38760Y-24480
X38870Y-24100
X38880Y-22500
X38880Y-23190
X38880Y-23790
X38940Y-28860
X38970Y-18210
X39060Y-20070
X39180Y-27570
X39190Y-26950
X39240Y-26340
X39270Y-27880
X39360Y-25620
X39360Y-26040
X39500Y-29250
X39600Y-28450
X39660Y-18510
X39670Y-25600
X39720Y-19080
X39720Y-20220
X39840Y-26100
X39900Y-27840
X39960Y-22320
X40020Y-27540
X40080Y-17730
X40080Y-26520
X40110Y-25330
X40180Y-21550
X40200Y-18960
X40270Y-20660
X40300Y-28850
X40310Y-25080
X40320Y-22380
X40400Y-29750
X40540Y-21070
X40540Y-21610
X40570Y-23360
X40720Y-20830
X40720Y-21310
X40740Y-18310
X40740Y-20340
X40800Y-18660
X40980Y-25260
X41020Y-21470
X41040Y-18480
X41040Y-27120
X41100Y-29700
X41160Y-29280
X41220Y-24960
X41310Y-19140
X41340Y-20340
X41340Y-25380
X41400Y-18840
X41460Y-20640
X41530Y-27210
X41620Y-26760
X41640Y-19320
X41640Y-28320
X41670Y-21100
X41700Y-18540
X41760Y-20640
X41850Y-23650
X41880Y-18000
X41880Y-26580
X41900Y-27200
X41920Y-25330
X42000Y-19080
X42000Y-22000
X42000Y-24120
X42060Y-20340
X42210Y-20760
X42210Y-21300
X42300Y-25440
X42360Y-19080
X42490Y-20350
X42500Y-27280
X42600Y-21510
X42600Y-28500
X42650Y-26940
X42660Y-24120
X42780Y-26640
X42900Y-21180
X42920Y-25410
X42960Y-24240
X42960Y-24720
X43020Y-18960
X43020Y-21600
X43090Y-26470
X43140Y-24480
X43150Y-23650
X43320Y-20820
X43320Y-21600
X43320Y-25360
X43500Y-24720
X43530Y-19020
X43620Y-19320
X43660Y-29500
X43680Y-21300
X43680Y-25440
X43800Y-24720
X43860Y-21050
X43860Y-21900
X43860Y-22200
X43860Y-22500
X43860Y-22980
X43860Y-23280
X44100Y-24840
X44120Y-20350
X44190Y-18720
X44310Y-19320
X44310Y-25140
X44350Y-24200
X44500Y-20530
X44750Y-24100
X44800Y-20550
X44800Y-22500
X44800Y-23000
X44900Y-25150
X45060Y-24300
X45080Y-20350
X45420Y-26220
X45470Y-18950
X45500Y-25600
X45750Y-26350
X45960Y-27180
X46000Y-26650
X46180Y-20460
X46200Y-21120
X46200Y-25620
X46250Y-23150
X46250Y-26400
X46260Y-22560
X46260Y-23460
X46290Y-19380
X46300Y-21420
X46300Y-22050
X46300Y-24300
X37028Y-26778
X37028Y-27250
X37028Y-27722
X37500Y-26778
X37500Y-27250
X37500Y-27722
X37972Y-26778
X37972Y-27250
X37972Y-27722
X42106Y-22506
X42106Y-22900
X42106Y-23294
X42500Y-22506
X42500Y-22900
X42500Y-23294
X42894Y-22506
X42894Y-22900
X42894Y-23294
T2
X44177Y-29680
X46200Y-27659
X37200Y-17850
X37700Y-17850
X38200Y-17850
T3
G00X30866Y-25541
M15
G01X30512Y-25541
M16
G05
G00X30866Y-29359
M15
G01X30512Y-29359
M16
G05
G00X32165Y-25541
M15
G01X31811Y-25541
M16
G05
G00X32165Y-29359
M15
G01X31811Y-29359
M16
G05
T0
M30
