G04 #@! TF.GenerationSoftware,KiCad,Pcbnew,5.1.5+dfsg1-2build2*
G04 #@! TF.CreationDate,2020-11-30T07:47:56+01:00*
G04 #@! TF.ProjectId,FunKey,46756e4b-6579-42e6-9b69-6361645f7063,E*
G04 #@! TF.SameCoordinates,Original*
G04 #@! TF.FileFunction,Legend,Top*
G04 #@! TF.FilePolarity,Positive*
%FSLAX46Y46*%
G04 Gerber Fmt 4.6, Leading zero omitted, Abs format (unit mm)*
G04 Created by KiCad (PCBNEW 5.1.5+dfsg1-2build2) date 2020-11-30 07:47:56*
%MOMM*%
%LPD*%
G04 APERTURE LIST*
%ADD10C,0.162560*%
%ADD11C,0.304800*%
%ADD12C,0.127000*%
%ADD13C,0.254000*%
%ADD14C,1.100000*%
%ADD15R,1.901600X1.301600*%
%ADD16R,1.651600X0.701600*%
%ADD17C,0.711200*%
%ADD18R,0.349100X1.701600*%
%ADD19R,1.701600X0.349100*%
%ADD20R,1.501600X0.801600*%
%ADD21R,0.481600X1.201600*%
%ADD22R,0.331600X0.731600*%
%ADD23R,0.751600X0.801600*%
%ADD24R,0.901600X1.451600*%
%ADD25R,0.951600X2.101600*%
%ADD26R,1.301600X0.756600*%
%ADD27R,1.151600X1.501600*%
%ADD28R,1.151600X1.176600*%
%ADD29R,1.301600X0.826600*%
%ADD30R,1.601600X1.876600*%
%ADD31R,1.601600X1.826600*%
%ADD32R,1.251600X1.156600*%
%ADD33R,1.451600X0.751600*%
%ADD34R,1.451600X0.851600*%
%ADD35R,2.801600X1.101600*%
%ADD36R,1.101600X2.801600*%
%ADD37R,1.101600X0.301600*%
%ADD38R,0.301600X1.101600*%
%ADD39O,2.401600X1.501600*%
%ADD40R,1.251600X0.501600*%
%ADD41R,1.201600X0.701600*%
%ADD42C,1.066800*%
%ADD43R,1.066800X1.066800*%
%ADD44R,1.244600X1.879600*%
%ADD45R,0.701600X0.801600*%
%ADD46R,1.101600X0.801600*%
%ADD47R,1.901600X1.501600*%
%ADD48R,1.371600X1.498600*%
%ADD49R,0.990600X0.736600*%
%ADD50R,0.651600X0.701600*%
%ADD51R,0.701600X0.651600*%
%ADD52R,0.609600X0.609600*%
%ADD53C,1.117600*%
G04 APERTURE END LIST*
D10*
X82899745Y-48482310D02*
X82642359Y-48114615D01*
X82458511Y-48482310D02*
X82458511Y-47710150D01*
X82752667Y-47710150D01*
X82826206Y-47746920D01*
X82862976Y-47783689D01*
X82899745Y-47857228D01*
X82899745Y-47967537D01*
X82862976Y-48041076D01*
X82826206Y-48077845D01*
X82752667Y-48114615D01*
X82458511Y-48114615D01*
X83524827Y-48445540D02*
X83451288Y-48482310D01*
X83304210Y-48482310D01*
X83230671Y-48445540D01*
X83193902Y-48372001D01*
X83193902Y-48077845D01*
X83230671Y-48004306D01*
X83304210Y-47967537D01*
X83451288Y-47967537D01*
X83524827Y-48004306D01*
X83561597Y-48077845D01*
X83561597Y-48151384D01*
X83193902Y-48224923D01*
X83818984Y-47967537D02*
X84002831Y-48482310D01*
X84186679Y-47967537D01*
X84480835Y-48408771D02*
X84517604Y-48445540D01*
X84480835Y-48482310D01*
X84444065Y-48445540D01*
X84480835Y-48408771D01*
X84480835Y-48482310D01*
X80389742Y-48926689D02*
X80426511Y-48889920D01*
X80500050Y-48853150D01*
X80683898Y-48853150D01*
X80757437Y-48889920D01*
X80794206Y-48926689D01*
X80830976Y-49000228D01*
X80830976Y-49073767D01*
X80794206Y-49184076D01*
X80352972Y-49625310D01*
X80830976Y-49625310D01*
X81308980Y-48853150D02*
X81382519Y-48853150D01*
X81456058Y-48889920D01*
X81492827Y-48926689D01*
X81529597Y-49000228D01*
X81566366Y-49147306D01*
X81566366Y-49331154D01*
X81529597Y-49478232D01*
X81492827Y-49551771D01*
X81456058Y-49588540D01*
X81382519Y-49625310D01*
X81308980Y-49625310D01*
X81235441Y-49588540D01*
X81198671Y-49551771D01*
X81161902Y-49478232D01*
X81125132Y-49331154D01*
X81125132Y-49147306D01*
X81161902Y-49000228D01*
X81198671Y-48926689D01*
X81235441Y-48889920D01*
X81308980Y-48853150D01*
X81860523Y-48926689D02*
X81897292Y-48889920D01*
X81970831Y-48853150D01*
X82154679Y-48853150D01*
X82228218Y-48889920D01*
X82264987Y-48926689D01*
X82301757Y-49000228D01*
X82301757Y-49073767D01*
X82264987Y-49184076D01*
X81823753Y-49625310D01*
X82301757Y-49625310D01*
X82779761Y-48853150D02*
X82853300Y-48853150D01*
X82926839Y-48889920D01*
X82963608Y-48926689D01*
X83000378Y-49000228D01*
X83037147Y-49147306D01*
X83037147Y-49331154D01*
X83000378Y-49478232D01*
X82963608Y-49551771D01*
X82926839Y-49588540D01*
X82853300Y-49625310D01*
X82779761Y-49625310D01*
X82706222Y-49588540D01*
X82669452Y-49551771D01*
X82632683Y-49478232D01*
X82595913Y-49331154D01*
X82595913Y-49147306D01*
X82632683Y-49000228D01*
X82669452Y-48926689D01*
X82706222Y-48889920D01*
X82779761Y-48853150D01*
X83515151Y-48853150D02*
X83588690Y-48853150D01*
X83662229Y-48889920D01*
X83698999Y-48926689D01*
X83735768Y-49000228D01*
X83772538Y-49147306D01*
X83772538Y-49331154D01*
X83735768Y-49478232D01*
X83698999Y-49551771D01*
X83662229Y-49588540D01*
X83588690Y-49625310D01*
X83515151Y-49625310D01*
X83441612Y-49588540D01*
X83404843Y-49551771D01*
X83368073Y-49478232D01*
X83331304Y-49331154D01*
X83331304Y-49147306D01*
X83368073Y-49000228D01*
X83404843Y-48926689D01*
X83441612Y-48889920D01*
X83515151Y-48853150D01*
X84434389Y-48853150D02*
X84287311Y-48853150D01*
X84213772Y-48889920D01*
X84177003Y-48926689D01*
X84103464Y-49036998D01*
X84066694Y-49184076D01*
X84066694Y-49478232D01*
X84103464Y-49551771D01*
X84140233Y-49588540D01*
X84213772Y-49625310D01*
X84360850Y-49625310D01*
X84434389Y-49588540D01*
X84471159Y-49551771D01*
X84507928Y-49478232D01*
X84507928Y-49294384D01*
X84471159Y-49220845D01*
X84434389Y-49184076D01*
X84360850Y-49147306D01*
X84213772Y-49147306D01*
X84140233Y-49184076D01*
X84103464Y-49220845D01*
X84066694Y-49294384D01*
X85243319Y-49625310D02*
X84802084Y-49625310D01*
X85022702Y-49625310D02*
X85022702Y-48853150D01*
X84949163Y-48963459D01*
X84875624Y-49036998D01*
X84802084Y-49073767D01*
X85905170Y-49110537D02*
X85905170Y-49625310D01*
X85721323Y-48816380D02*
X85537475Y-49367923D01*
X86015479Y-49367923D01*
X85439511Y-48077845D02*
X85696898Y-48077845D01*
X85807206Y-48482310D02*
X85439511Y-48482310D01*
X85439511Y-47710150D01*
X85807206Y-47710150D01*
X100966257Y-50265390D02*
X100708871Y-49897695D01*
X100525023Y-50265390D02*
X100525023Y-49493230D01*
X100819179Y-49493230D01*
X100892718Y-49530000D01*
X100929488Y-49566769D01*
X100966257Y-49640308D01*
X100966257Y-49750617D01*
X100929488Y-49824156D01*
X100892718Y-49860925D01*
X100819179Y-49897695D01*
X100525023Y-49897695D01*
X100488254Y-50814030D02*
X101003027Y-51586190D01*
X101003027Y-50814030D02*
X100488254Y-51586190D01*
X99836562Y-49493230D02*
X100277796Y-49493230D01*
X100057179Y-50265390D02*
X100057179Y-49493230D01*
X99726254Y-50814030D02*
X100241027Y-51586190D01*
X100241027Y-50814030D02*
X99726254Y-51586190D01*
X99405488Y-49530000D02*
X99331949Y-49493230D01*
X99221640Y-49493230D01*
X99111332Y-49530000D01*
X99037793Y-49603539D01*
X99001023Y-49677078D01*
X98964254Y-49824156D01*
X98964254Y-49934464D01*
X99001023Y-50081542D01*
X99037793Y-50155081D01*
X99111332Y-50228620D01*
X99221640Y-50265390D01*
X99295179Y-50265390D01*
X99405488Y-50228620D01*
X99442257Y-50191851D01*
X99442257Y-49934464D01*
X99295179Y-49934464D01*
D11*
X108204000Y-45212000D02*
X106934000Y-45212000D01*
X108204000Y-47752000D02*
X106934000Y-47752000D01*
X107569000Y-45847000D02*
X107569000Y-44577000D01*
D12*
X98679000Y-44196000D02*
X104648000Y-44196000D01*
X98679000Y-49276000D02*
X98679000Y-44196000D01*
X104648000Y-49276000D02*
X98679000Y-49276000D01*
X104648000Y-44196000D02*
X104648000Y-49276000D01*
G36*
X116840000Y-67056000D02*
G01*
X115570000Y-67056000D01*
X116840000Y-65786000D01*
X116840000Y-67056000D01*
G37*
X116840000Y-67056000D02*
X116840000Y-49276000D01*
X99060000Y-67056000D02*
X116840000Y-67056000D01*
X99060000Y-49276000D02*
X99060000Y-67056000D01*
X116840000Y-49276000D02*
X99060000Y-49276000D01*
X96139000Y-62738000D02*
X97917000Y-62738000D01*
X96139000Y-65278000D02*
X96139000Y-62738000D01*
X97917000Y-65278000D02*
X96139000Y-65278000D01*
X97917000Y-62738000D02*
X97917000Y-65278000D01*
X93802200Y-49631600D02*
X86182200Y-49631600D01*
X93802200Y-44551600D02*
X93802200Y-49631600D01*
X86182200Y-44551600D02*
X93802200Y-44551600D01*
X86182200Y-49631600D02*
X86182200Y-44551600D01*
X112910000Y-48820000D02*
X112910000Y-47550000D01*
X113545000Y-48820000D02*
X112910000Y-48820000D01*
X117990000Y-48820000D02*
X117990000Y-47550000D01*
X117355000Y-48820000D02*
X117990000Y-48820000D01*
X76410000Y-48820000D02*
X76410000Y-47550000D01*
X77045000Y-48820000D02*
X76410000Y-48820000D01*
X81490000Y-48820000D02*
X81490000Y-47550000D01*
X80855000Y-48820000D02*
X81490000Y-48820000D01*
X97028000Y-50165000D02*
X97028000Y-52705000D01*
X93218000Y-50165000D02*
X97028000Y-50165000D01*
X93218000Y-52705000D02*
X93218000Y-50165000D01*
X97028000Y-52705000D02*
X93218000Y-52705000D01*
X92303600Y-62611000D02*
X80238600Y-62611000D01*
X92303600Y-49911000D02*
X92303600Y-62611000D01*
X80238600Y-49911000D02*
X92303600Y-49911000D01*
X102298500Y-67056000D02*
X105473500Y-67056000D01*
X102298500Y-70866000D02*
X102298500Y-67056000D01*
X105473500Y-70866000D02*
X102298500Y-70866000D01*
X105473500Y-67056000D02*
X105473500Y-70866000D01*
X96139000Y-60007500D02*
X96139000Y-63182500D01*
X92329000Y-60007500D02*
X96139000Y-60007500D01*
X92329000Y-63182500D02*
X92329000Y-60007500D01*
X96139000Y-63182500D02*
X92329000Y-63182500D01*
X91503500Y-69723000D02*
X88328500Y-69723000D01*
X91503500Y-65913000D02*
X91503500Y-69723000D01*
X88328500Y-65913000D02*
X91503500Y-65913000D01*
X88328500Y-69723000D02*
X88328500Y-65913000D01*
G36*
X99060000Y-65405000D02*
G01*
X97790000Y-65405000D01*
X99060000Y-66675000D01*
X99060000Y-65405000D01*
G37*
X91440000Y-65405000D02*
X99060000Y-65405000D01*
X91440000Y-73025000D02*
X91440000Y-65405000D01*
X99060000Y-73025000D02*
X91440000Y-73025000D01*
X99060000Y-65405000D02*
X99060000Y-73025000D01*
X83820000Y-63373000D02*
X76200000Y-63373000D01*
X83820000Y-76073000D02*
X83820000Y-63373000D01*
X76200000Y-76073000D02*
X83820000Y-76073000D01*
D13*
X94640400Y-46507400D02*
G75*
G03X94640400Y-46507400I-127000J0D01*
G01*
D12*
G36*
X95529400Y-46761400D02*
G01*
X95529400Y-47904400D01*
X96545400Y-46761400D01*
X95529400Y-46761400D01*
G37*
X96545400Y-46761400D02*
X95529400Y-46761400D01*
X96545400Y-49809400D02*
X96545400Y-46761400D01*
X95529400Y-49809400D02*
X96545400Y-49809400D01*
X95529400Y-46761400D02*
X95529400Y-49809400D01*
X95123000Y-44272200D02*
X95123000Y-46409000D01*
X93853000Y-46409000D02*
X93853000Y-44269000D01*
X95123000Y-46409000D02*
X93853000Y-46409000D01*
X97663000Y-46409000D02*
X95123000Y-46409000D01*
X97663000Y-44272200D02*
X97663000Y-46409000D01*
X95123000Y-44272200D02*
X97663000Y-44272200D01*
X93853000Y-44269000D02*
X95123000Y-44272200D01*
X88265000Y-72009000D02*
X84201000Y-72009000D01*
X88265000Y-72009000D02*
G75*
G02X88519000Y-72263000I0J-254000D01*
G01*
X88519000Y-74041000D02*
X88519000Y-72263000D01*
X88519000Y-74041000D02*
G75*
G02X88265000Y-74295000I-254000J0D01*
G01*
X84201000Y-74295000D02*
X88265000Y-74295000D01*
X84201000Y-74295000D02*
G75*
G02X83947000Y-74041000I0J254000D01*
G01*
X83947000Y-72263000D02*
X83947000Y-74041000D01*
X83947000Y-72263000D02*
G75*
G02X84201000Y-72009000I254000J0D01*
G01*
G36*
X83820000Y-70993000D02*
G01*
X83997800Y-70993000D01*
X83820000Y-70815200D01*
X83820000Y-70993000D01*
G37*
X83820000Y-70993000D02*
X83820000Y-67945000D01*
X87122000Y-70993000D02*
X83820000Y-70993000D01*
X87122000Y-67945000D02*
X87122000Y-70993000D01*
X83820000Y-67945000D02*
X87122000Y-67945000D01*
X83813000Y-67959000D02*
X86113000Y-67959000D01*
X83813000Y-63359000D02*
X83813000Y-67959000D01*
X86113000Y-63359000D02*
X83813000Y-63359000D01*
X86113000Y-67959000D02*
X86113000Y-63359000D01*
D13*
X93091000Y-54356000D02*
G75*
G03X93091000Y-54356000I-127000J0D01*
G01*
D12*
X93345000Y-54737000D02*
X96901000Y-54737000D01*
X93345000Y-58801000D02*
X93345000Y-54737000D01*
X96901000Y-58801000D02*
X93345000Y-58801000D01*
X96901000Y-54737000D02*
X96901000Y-58801000D01*
X101142800Y-70485000D02*
X99872800Y-70485000D01*
X101142800Y-67945000D02*
X101142800Y-70485000D01*
X99872800Y-67945000D02*
X101142800Y-67945000D01*
X99872800Y-70485000D02*
X99872800Y-67945000D01*
X77724000Y-51308000D02*
X77724000Y-52324000D01*
X79502000Y-51308000D02*
X77724000Y-51308000D01*
X79502000Y-52324000D02*
X79502000Y-51308000D01*
X77724000Y-52324000D02*
X79502000Y-52324000D01*
X77724000Y-52451000D02*
X77724000Y-53467000D01*
X79502000Y-52451000D02*
X77724000Y-52451000D01*
X79502000Y-53467000D02*
X79502000Y-52451000D01*
X77724000Y-53467000D02*
X79502000Y-53467000D01*
X79756000Y-53721000D02*
X78740000Y-53721000D01*
X79756000Y-55499000D02*
X79756000Y-53721000D01*
X78740000Y-55499000D02*
X79756000Y-55499000D01*
X78740000Y-53721000D02*
X78740000Y-55499000D01*
X77724000Y-55753000D02*
X77724000Y-56769000D01*
X79502000Y-55753000D02*
X77724000Y-55753000D01*
X79502000Y-56769000D02*
X79502000Y-55753000D01*
X77724000Y-56769000D02*
X79502000Y-56769000D01*
X77724000Y-56769000D02*
X77724000Y-57785000D01*
X79502000Y-56769000D02*
X77724000Y-56769000D01*
X79502000Y-57785000D02*
X79502000Y-56769000D01*
X77724000Y-57785000D02*
X79502000Y-57785000D01*
X77724000Y-57912000D02*
X77724000Y-58928000D01*
X79502000Y-57912000D02*
X77724000Y-57912000D01*
X79502000Y-58928000D02*
X79502000Y-57912000D01*
X77724000Y-58928000D02*
X79502000Y-58928000D01*
X77724000Y-59055000D02*
X77724000Y-60071000D01*
X79502000Y-59055000D02*
X77724000Y-59055000D01*
X79502000Y-60071000D02*
X79502000Y-59055000D01*
X77724000Y-60071000D02*
X79502000Y-60071000D01*
X109728000Y-75057000D02*
X109728000Y-76073000D01*
X111506000Y-75057000D02*
X109728000Y-75057000D01*
X111506000Y-76073000D02*
X111506000Y-75057000D01*
X109728000Y-76073000D02*
X111506000Y-76073000D01*
X118110000Y-67564000D02*
X117094000Y-67564000D01*
X118110000Y-69342000D02*
X118110000Y-67564000D01*
X117094000Y-69342000D02*
X118110000Y-69342000D01*
X117094000Y-67564000D02*
X117094000Y-69342000D01*
X116840000Y-51054000D02*
X117856000Y-51054000D01*
X116840000Y-49276000D02*
X116840000Y-51054000D01*
X117856000Y-49276000D02*
X116840000Y-49276000D01*
X117856000Y-51054000D02*
X117856000Y-49276000D01*
X77470000Y-49530000D02*
X76454000Y-49530000D01*
X77470000Y-51308000D02*
X77470000Y-49530000D01*
X76454000Y-51308000D02*
X77470000Y-51308000D01*
X76454000Y-49530000D02*
X76454000Y-51308000D01*
X99448998Y-73533000D02*
G75*
G02X99449000Y-74549000I1J-508000D01*
G01*
X98417000Y-74549000D02*
X99449000Y-74549000D01*
X98417002Y-74549000D02*
G75*
G02X98417000Y-73533000I-1J508000D01*
G01*
X99449000Y-73533000D02*
X98417000Y-73533000D01*
X97416998Y-73533000D02*
G75*
G02X97417000Y-74549000I1J-508000D01*
G01*
X96385000Y-74549000D02*
X97417000Y-74549000D01*
X96385002Y-74549000D02*
G75*
G02X96385000Y-73533000I-1J508000D01*
G01*
X97417000Y-73533000D02*
X96385000Y-73533000D01*
X94353002Y-74549000D02*
G75*
G02X94353000Y-73533000I-1J508000D01*
G01*
X95385000Y-73533000D02*
X94353000Y-73533000D01*
X95384998Y-73533000D02*
G75*
G02X95385000Y-74549000I1J-508000D01*
G01*
X94353000Y-74549000D02*
X95385000Y-74549000D01*
X91305002Y-74041000D02*
G75*
G02X91305000Y-73025000I-1J508000D01*
G01*
X92337000Y-73025000D02*
X91305000Y-73025000D01*
X92336998Y-73025000D02*
G75*
G02X92337000Y-74041000I1J-508000D01*
G01*
X91305000Y-74041000D02*
X92337000Y-74041000D01*
X90939998Y-71755000D02*
G75*
G02X90940000Y-72771000I1J-508000D01*
G01*
X89908000Y-72771000D02*
X90940000Y-72771000D01*
X89908002Y-72771000D02*
G75*
G02X89908000Y-71755000I-1J508000D01*
G01*
X90940000Y-71755000D02*
X89908000Y-71755000D01*
X90431998Y-69723000D02*
G75*
G02X90432000Y-70739000I1J-508000D01*
G01*
X89400000Y-70739000D02*
X90432000Y-70739000D01*
X89400002Y-70739000D02*
G75*
G02X89400000Y-69723000I-1J508000D01*
G01*
X90432000Y-69723000D02*
X89400000Y-69723000D01*
X92075000Y-64904998D02*
G75*
G02X91059000Y-64905000I-508000J-1D01*
G01*
X91059000Y-63873000D02*
X91059000Y-64905000D01*
X91059000Y-63873002D02*
G75*
G02X92075000Y-63873000I508000J1D01*
G01*
X92075000Y-64905000D02*
X92075000Y-63873000D01*
X100591998Y-70485000D02*
G75*
G02X100592000Y-71501000I1J-508000D01*
G01*
X99560000Y-71501000D02*
X100592000Y-71501000D01*
X99560002Y-71501000D02*
G75*
G02X99560000Y-70485000I-1J508000D01*
G01*
X100592000Y-70485000D02*
X99560000Y-70485000D01*
X93091000Y-64904998D02*
G75*
G02X92075000Y-64905000I-508000J-1D01*
G01*
X92075000Y-63873000D02*
X92075000Y-64905000D01*
X92075000Y-63873002D02*
G75*
G02X93091000Y-63873000I508000J1D01*
G01*
X93091000Y-64905000D02*
X93091000Y-63873000D01*
X91305002Y-75057000D02*
G75*
G02X91305000Y-74041000I-1J508000D01*
G01*
X92337000Y-74041000D02*
X91305000Y-74041000D01*
X92336998Y-74041000D02*
G75*
G02X92337000Y-75057000I1J-508000D01*
G01*
X91305000Y-75057000D02*
X92337000Y-75057000D01*
X89154000Y-65412998D02*
G75*
G02X88138000Y-65413000I-508000J-1D01*
G01*
X88138000Y-64381000D02*
X88138000Y-65413000D01*
X88138000Y-64381002D02*
G75*
G02X89154000Y-64381000I508000J1D01*
G01*
X89154000Y-65413000D02*
X89154000Y-64381000D01*
X87249000Y-66413002D02*
G75*
G02X88265000Y-66413000I508000J1D01*
G01*
X88265000Y-67445000D02*
X88265000Y-66413000D01*
X88265000Y-67444998D02*
G75*
G02X87249000Y-67445000I-508000J-1D01*
G01*
X87249000Y-66413000D02*
X87249000Y-67445000D01*
X91059000Y-65412998D02*
G75*
G02X90043000Y-65413000I-508000J-1D01*
G01*
X90043000Y-64381000D02*
X90043000Y-65413000D01*
X90043000Y-64381002D02*
G75*
G02X91059000Y-64381000I508000J1D01*
G01*
X91059000Y-65413000D02*
X91059000Y-64381000D01*
X87376000Y-68953002D02*
G75*
G02X88392000Y-68953000I508000J1D01*
G01*
X88392000Y-69985000D02*
X88392000Y-68953000D01*
X88392000Y-69984998D02*
G75*
G02X87376000Y-69985000I-508000J-1D01*
G01*
X87376000Y-68953000D02*
X87376000Y-69985000D01*
X92829002Y-59817000D02*
G75*
G02X92829000Y-58801000I-1J508000D01*
G01*
X93861000Y-58801000D02*
X92829000Y-58801000D01*
X93860998Y-58801000D02*
G75*
G02X93861000Y-59817000I1J-508000D01*
G01*
X92829000Y-59817000D02*
X93861000Y-59817000D01*
X93345000Y-58300998D02*
G75*
G02X92329000Y-58301000I-508000J-1D01*
G01*
X92329000Y-57269000D02*
X92329000Y-58301000D01*
X92329000Y-57269002D02*
G75*
G02X93345000Y-57269000I508000J1D01*
G01*
X93345000Y-58301000D02*
X93345000Y-57269000D01*
X103766998Y-70866000D02*
G75*
G02X103767000Y-71882000I1J-508000D01*
G01*
X102735000Y-71882000D02*
X103767000Y-71882000D01*
X102735002Y-71882000D02*
G75*
G02X102735000Y-70866000I-1J508000D01*
G01*
X103767000Y-70866000D02*
X102735000Y-70866000D01*
X100591998Y-71501000D02*
G75*
G02X100592000Y-72517000I1J-508000D01*
G01*
X99560000Y-72517000D02*
X100592000Y-72517000D01*
X99560002Y-72517000D02*
G75*
G02X99560000Y-71501000I-1J508000D01*
G01*
X100592000Y-71501000D02*
X99560000Y-71501000D01*
X102235000Y-69730998D02*
G75*
G02X101219000Y-69731000I-508000J-1D01*
G01*
X101219000Y-68699000D02*
X101219000Y-69731000D01*
X101219000Y-68699002D02*
G75*
G02X102235000Y-68699000I508000J1D01*
G01*
X102235000Y-69731000D02*
X102235000Y-68699000D01*
X92964000Y-53205002D02*
G75*
G02X93980000Y-53205000I508000J1D01*
G01*
X93980000Y-54237000D02*
X93980000Y-53205000D01*
X93980000Y-54236998D02*
G75*
G02X92964000Y-54237000I-508000J-1D01*
G01*
X92964000Y-53205000D02*
X92964000Y-54237000D01*
X97028000Y-50538002D02*
G75*
G02X98044000Y-50538000I508000J1D01*
G01*
X98044000Y-51570000D02*
X98044000Y-50538000D01*
X98044000Y-51569998D02*
G75*
G02X97028000Y-51570000I-508000J-1D01*
G01*
X97028000Y-50538000D02*
X97028000Y-51570000D01*
X93980000Y-53205002D02*
G75*
G02X94996000Y-53205000I508000J1D01*
G01*
X94996000Y-54237000D02*
X94996000Y-53205000D01*
X94996000Y-54236998D02*
G75*
G02X93980000Y-54237000I-508000J-1D01*
G01*
X93980000Y-53205000D02*
X93980000Y-54237000D01*
X98559998Y-58674000D02*
G75*
G02X98560000Y-59690000I1J-508000D01*
G01*
X97528000Y-59690000D02*
X98560000Y-59690000D01*
X97528002Y-59690000D02*
G75*
G02X97528000Y-58674000I-1J508000D01*
G01*
X98560000Y-58674000D02*
X97528000Y-58674000D01*
X105918000Y-67556002D02*
G75*
G02X106934000Y-67556000I508000J1D01*
G01*
X106934000Y-68588000D02*
X106934000Y-67556000D01*
X106934000Y-68587998D02*
G75*
G02X105918000Y-68588000I-508000J-1D01*
G01*
X105918000Y-67556000D02*
X105918000Y-68588000D01*
X98559998Y-59690000D02*
G75*
G02X98560000Y-60706000I1J-508000D01*
G01*
X97528000Y-60706000D02*
X98560000Y-60706000D01*
X97528002Y-60706000D02*
G75*
G02X97528000Y-59690000I-1J508000D01*
G01*
X98560000Y-59690000D02*
X97528000Y-59690000D01*
X98559998Y-56642000D02*
G75*
G02X98560000Y-57658000I1J-508000D01*
G01*
X97528000Y-57658000D02*
X98560000Y-57658000D01*
X97528002Y-57658000D02*
G75*
G02X97528000Y-56642000I-1J508000D01*
G01*
X98560000Y-56642000D02*
X97528000Y-56642000D01*
X98559998Y-53975000D02*
G75*
G02X98560000Y-54991000I1J-508000D01*
G01*
X97528000Y-54991000D02*
X98560000Y-54991000D01*
X97528002Y-54991000D02*
G75*
G02X97528000Y-53975000I-1J508000D01*
G01*
X98560000Y-53975000D02*
X97528000Y-53975000D01*
X98559998Y-52959000D02*
G75*
G02X98560000Y-53975000I1J-508000D01*
G01*
X97528000Y-53975000D02*
X98560000Y-53975000D01*
X97528002Y-53975000D02*
G75*
G02X97528000Y-52959000I-1J508000D01*
G01*
X98560000Y-52959000D02*
X97528000Y-52959000D01*
X109989998Y-48260000D02*
G75*
G02X109990000Y-49276000I1J-508000D01*
G01*
X108958000Y-49276000D02*
X109990000Y-49276000D01*
X108958002Y-49276000D02*
G75*
G02X108958000Y-48260000I-1J508000D01*
G01*
X109990000Y-48260000D02*
X108958000Y-48260000D01*
X111371002Y-49276000D02*
G75*
G02X111371000Y-48260000I-1J508000D01*
G01*
X112403000Y-48260000D02*
X111371000Y-48260000D01*
X112402998Y-48260000D02*
G75*
G02X112403000Y-49276000I1J-508000D01*
G01*
X111371000Y-49276000D02*
X112403000Y-49276000D01*
X117094000Y-54602002D02*
G75*
G02X118110000Y-54602000I508000J1D01*
G01*
X118110000Y-55634000D02*
X118110000Y-54602000D01*
X118110000Y-55633998D02*
G75*
G02X117094000Y-55634000I-508000J-1D01*
G01*
X117094000Y-54602000D02*
X117094000Y-55634000D01*
X116339998Y-67056000D02*
G75*
G02X116340000Y-68072000I1J-508000D01*
G01*
X115308000Y-68072000D02*
X116340000Y-68072000D01*
X115308002Y-68072000D02*
G75*
G02X115308000Y-67056000I-1J508000D01*
G01*
X116340000Y-67056000D02*
X115308000Y-67056000D01*
X117856000Y-66555998D02*
G75*
G02X116840000Y-66556000I-508000J-1D01*
G01*
X116840000Y-65524000D02*
X116840000Y-66556000D01*
X116840000Y-65524002D02*
G75*
G02X117856000Y-65524000I508000J1D01*
G01*
X117856000Y-66556000D02*
X117856000Y-65524000D01*
X117856000Y-58173998D02*
G75*
G02X116840000Y-58174000I-508000J-1D01*
G01*
X116840000Y-57142000D02*
X116840000Y-58174000D01*
X116840000Y-57142002D02*
G75*
G02X117856000Y-57142000I508000J1D01*
G01*
X117856000Y-58174000D02*
X117856000Y-57142000D01*
X97028000Y-54236998D02*
G75*
G02X96012000Y-54237000I-508000J-1D01*
G01*
X96012000Y-53205000D02*
X96012000Y-54237000D01*
X96012000Y-53205002D02*
G75*
G02X97028000Y-53205000I508000J1D01*
G01*
X97028000Y-54237000D02*
X97028000Y-53205000D01*
X96012000Y-54236998D02*
G75*
G02X94996000Y-54237000I-508000J-1D01*
G01*
X94996000Y-53205000D02*
X94996000Y-54237000D01*
X94996000Y-53205002D02*
G75*
G02X96012000Y-53205000I508000J1D01*
G01*
X96012000Y-54237000D02*
X96012000Y-53205000D01*
X97528002Y-58674000D02*
G75*
G02X97528000Y-57658000I-1J508000D01*
G01*
X98560000Y-57658000D02*
X97528000Y-57658000D01*
X98559998Y-57658000D02*
G75*
G02X98560000Y-58674000I1J-508000D01*
G01*
X97528000Y-58674000D02*
X98560000Y-58674000D01*
X108458000Y-68587998D02*
G75*
G02X107442000Y-68588000I-508000J-1D01*
G01*
X107442000Y-67556000D02*
X107442000Y-68588000D01*
X107442000Y-67556002D02*
G75*
G02X108458000Y-67556000I508000J1D01*
G01*
X108458000Y-68588000D02*
X108458000Y-67556000D01*
X87122000Y-64381002D02*
G75*
G02X88138000Y-64381000I508000J1D01*
G01*
X88138000Y-65413000D02*
X88138000Y-64381000D01*
X88138000Y-65412998D02*
G75*
G02X87122000Y-65413000I-508000J-1D01*
G01*
X87122000Y-64381000D02*
X87122000Y-65413000D01*
X86106000Y-64381002D02*
G75*
G02X87122000Y-64381000I508000J1D01*
G01*
X87122000Y-65413000D02*
X87122000Y-64381000D01*
X87122000Y-65412998D02*
G75*
G02X86106000Y-65413000I-508000J-1D01*
G01*
X86106000Y-64381000D02*
X86106000Y-65413000D01*
X86106000Y-66413002D02*
G75*
G02X87122000Y-66413000I508000J1D01*
G01*
X87122000Y-67445000D02*
X87122000Y-66413000D01*
X87122000Y-67444998D02*
G75*
G02X86106000Y-67445000I-508000J-1D01*
G01*
X86106000Y-66413000D02*
X86106000Y-67445000D01*
X104902000Y-72382002D02*
G75*
G02X105918000Y-72382000I508000J1D01*
G01*
X105918000Y-73414000D02*
X105918000Y-72382000D01*
X105918000Y-73413998D02*
G75*
G02X104902000Y-73414000I-508000J-1D01*
G01*
X104902000Y-72382000D02*
X104902000Y-73414000D01*
X96527998Y-58801000D02*
G75*
G02X96528000Y-59817000I1J-508000D01*
G01*
X95496000Y-59817000D02*
X96528000Y-59817000D01*
X95496002Y-59817000D02*
G75*
G02X95496000Y-58801000I-1J508000D01*
G01*
X96528000Y-58801000D02*
X95496000Y-58801000D01*
X92329000Y-55237002D02*
G75*
G02X93345000Y-55237000I508000J1D01*
G01*
X93345000Y-56269000D02*
X93345000Y-55237000D01*
X93345000Y-56268998D02*
G75*
G02X92329000Y-56269000I-508000J-1D01*
G01*
X92329000Y-55237000D02*
X92329000Y-56269000D01*
X96139000Y-64650998D02*
G75*
G02X95123000Y-64651000I-508000J-1D01*
G01*
X95123000Y-63619000D02*
X95123000Y-64651000D01*
X95123000Y-63619002D02*
G75*
G02X96139000Y-63619000I508000J1D01*
G01*
X96139000Y-64651000D02*
X96139000Y-63619000D01*
X97028000Y-62237998D02*
G75*
G02X96012000Y-62238000I-508000J-1D01*
G01*
X96012000Y-61206000D02*
X96012000Y-62238000D01*
X96012000Y-61206002D02*
G75*
G02X97028000Y-61206000I508000J1D01*
G01*
X97028000Y-62238000D02*
X97028000Y-61206000D01*
X78486000Y-54998998D02*
G75*
G02X77470000Y-54999000I-508000J-1D01*
G01*
X77470000Y-53967000D02*
X77470000Y-54999000D01*
X77470000Y-53967002D02*
G75*
G02X78486000Y-53967000I508000J1D01*
G01*
X78486000Y-54999000D02*
X78486000Y-53967000D01*
X116840000Y-59809002D02*
G75*
G02X117856000Y-59809000I508000J1D01*
G01*
X117856000Y-60841000D02*
X117856000Y-59809000D01*
X117856000Y-60840998D02*
G75*
G02X116840000Y-60841000I-508000J-1D01*
G01*
X116840000Y-59809000D02*
X116840000Y-60841000D01*
X117856000Y-53220998D02*
G75*
G02X116840000Y-53221000I-508000J-1D01*
G01*
X116840000Y-52189000D02*
X116840000Y-53221000D01*
X116840000Y-52189002D02*
G75*
G02X117856000Y-52189000I508000J1D01*
G01*
X117856000Y-53221000D02*
X117856000Y-52189000D01*
X98559998Y-61722000D02*
G75*
G02X98560000Y-62738000I1J-508000D01*
G01*
X97528000Y-62738000D02*
X98560000Y-62738000D01*
X97528002Y-62738000D02*
G75*
G02X97528000Y-61722000I-1J508000D01*
G01*
X98560000Y-61722000D02*
X97528000Y-61722000D01*
X98559998Y-60706000D02*
G75*
G02X98560000Y-61722000I1J-508000D01*
G01*
X97528000Y-61722000D02*
X98560000Y-61722000D01*
X97528002Y-61722000D02*
G75*
G02X97528000Y-60706000I-1J508000D01*
G01*
X98560000Y-60706000D02*
X97528000Y-60706000D01*
X106934000Y-73413998D02*
G75*
G02X105918000Y-73414000I-508000J-1D01*
G01*
X105918000Y-72382000D02*
X105918000Y-73414000D01*
X105918000Y-72382002D02*
G75*
G02X106934000Y-72382000I508000J1D01*
G01*
X106934000Y-73414000D02*
X106934000Y-72382000D01*
X107950000Y-73413998D02*
G75*
G02X106934000Y-73414000I-508000J-1D01*
G01*
X106934000Y-72382000D02*
X106934000Y-73414000D01*
X106934000Y-72382002D02*
G75*
G02X107950000Y-72382000I508000J1D01*
G01*
X107950000Y-73414000D02*
X107950000Y-72382000D01*
X91440000Y-71755000D02*
X91440000Y-70739000D01*
X89408000Y-71755000D02*
X91440000Y-71755000D01*
X89408000Y-70739000D02*
X89408000Y-71755000D01*
X91440000Y-70739000D02*
X89408000Y-70739000D01*
X99060000Y-50927000D02*
X98044000Y-50927000D01*
X99060000Y-52959000D02*
X99060000Y-50927000D01*
X98044000Y-52959000D02*
X99060000Y-52959000D01*
X98044000Y-50927000D02*
X98044000Y-52959000D01*
X98044000Y-50927000D02*
X99060000Y-50927000D01*
X98044000Y-48895000D02*
X98044000Y-50927000D01*
X99060000Y-48895000D02*
X98044000Y-48895000D01*
X99060000Y-50927000D02*
X99060000Y-48895000D01*
X92202000Y-51689000D02*
X93218000Y-51689000D01*
X92202000Y-49657000D02*
X92202000Y-51689000D01*
X93218000Y-49657000D02*
X92202000Y-49657000D01*
X93218000Y-51689000D02*
X93218000Y-49657000D01*
X98933000Y-56007000D02*
X98933000Y-54991000D01*
X96901000Y-56007000D02*
X98933000Y-56007000D01*
X96901000Y-54991000D02*
X96901000Y-56007000D01*
X98933000Y-54991000D02*
X96901000Y-54991000D01*
X79883000Y-60071000D02*
X78867000Y-60071000D01*
X79883000Y-62103000D02*
X79883000Y-60071000D01*
X78867000Y-62103000D02*
X79883000Y-62103000D01*
X78867000Y-60071000D02*
X78867000Y-62103000D01*
X85852000Y-72009000D02*
X85852000Y-70993000D01*
X83820000Y-72009000D02*
X85852000Y-72009000D01*
X83820000Y-70993000D02*
X83820000Y-72009000D01*
X85852000Y-70993000D02*
X83820000Y-70993000D01*
X98044000Y-65024000D02*
X99060000Y-65024000D01*
X98044000Y-62992000D02*
X98044000Y-65024000D01*
X99060000Y-62992000D02*
X98044000Y-62992000D01*
X99060000Y-65024000D02*
X99060000Y-62992000D01*
X78359000Y-60071000D02*
X77343000Y-60071000D01*
X78359000Y-62103000D02*
X78359000Y-60071000D01*
X77343000Y-62103000D02*
X78359000Y-62103000D01*
X77343000Y-60071000D02*
X77343000Y-62103000D01*
%LPC*%
G36*
X109950000Y-56166000D02*
G01*
X105950000Y-56166000D01*
X105950000Y-60166000D01*
X109950000Y-60166000D01*
X109950000Y-56166000D01*
G37*
G36*
X93150000Y-67115000D02*
G01*
X93150000Y-71315000D01*
X97350000Y-71315000D01*
X97350000Y-67115000D01*
X93150000Y-67115000D01*
G37*
G36*
X80800000Y-64173000D02*
G01*
X81700000Y-64173000D01*
X81881173Y-64196852D01*
X82050000Y-64266782D01*
X82194975Y-64378025D01*
X82306218Y-64523000D01*
X82400000Y-64873000D01*
X82376148Y-65054173D01*
X82306218Y-65223000D01*
X82194975Y-65367975D01*
X82050000Y-65479218D01*
X81881173Y-65549148D01*
X81700000Y-65573000D01*
X80800000Y-65573000D01*
X80618827Y-65549148D01*
X80450000Y-65479218D01*
X80305025Y-65367975D01*
X80193782Y-65223000D01*
X80123852Y-65054173D01*
X80100000Y-64873000D01*
X80123852Y-64691827D01*
X80193782Y-64523000D01*
X80305025Y-64378025D01*
X80450000Y-64266782D01*
X80800000Y-64173000D01*
G37*
G36*
X80800000Y-73873000D02*
G01*
X81700000Y-73873000D01*
X81881173Y-73896852D01*
X82050000Y-73966782D01*
X82194975Y-74078025D01*
X82306218Y-74223000D01*
X82400000Y-74573000D01*
X82376148Y-74754173D01*
X82306218Y-74923000D01*
X82194975Y-75067975D01*
X82050000Y-75179218D01*
X81881173Y-75249148D01*
X81700000Y-75273000D01*
X80800000Y-75273000D01*
X80618827Y-75249148D01*
X80450000Y-75179218D01*
X80305025Y-75067975D01*
X80193782Y-74923000D01*
X80123852Y-74754173D01*
X80100000Y-74573000D01*
X80123852Y-74391827D01*
X80193782Y-74223000D01*
X80305025Y-74078025D01*
X80450000Y-73966782D01*
X80800000Y-73873000D01*
G37*
G36*
X77500000Y-64173000D02*
G01*
X78400000Y-64173000D01*
X78399999Y-64173000D01*
X78581172Y-64196852D01*
X78749999Y-64266782D01*
X78894974Y-64378025D01*
X79006217Y-64523000D01*
X79100000Y-64873000D01*
X79100000Y-64872999D01*
X79076148Y-65054173D01*
X79006218Y-65223000D01*
X78894975Y-65367975D01*
X78750000Y-65479218D01*
X78581174Y-65549149D01*
X78400000Y-65573000D01*
X77500000Y-65573000D01*
X77318827Y-65549148D01*
X77150000Y-65479218D01*
X77005025Y-65367975D01*
X76893782Y-65223000D01*
X76823852Y-65054173D01*
X76800000Y-64873000D01*
X76823852Y-64691827D01*
X76893782Y-64523000D01*
X77005025Y-64378025D01*
X77150000Y-64266782D01*
X77500000Y-64173000D01*
G37*
G36*
X77500000Y-73873000D02*
G01*
X78400000Y-73873000D01*
X78399999Y-73873000D01*
X78581172Y-73896852D01*
X78749999Y-73966782D01*
X78894974Y-74078025D01*
X79006217Y-74223000D01*
X79100000Y-74573000D01*
X79100000Y-74572999D01*
X79076148Y-74754173D01*
X79006218Y-74923000D01*
X78894975Y-75067975D01*
X78750000Y-75179218D01*
X78581174Y-75249149D01*
X78400000Y-75273000D01*
X77500000Y-75273000D01*
X77318827Y-75249148D01*
X77150000Y-75179218D01*
X77005025Y-75067975D01*
X76893782Y-74923000D01*
X76823852Y-74754173D01*
X76800000Y-74573000D01*
X76823852Y-74391827D01*
X76893782Y-74223000D01*
X77005025Y-74078025D01*
X77150000Y-73966782D01*
X77500000Y-73873000D01*
G37*
D14*
X116196200Y-50393600D02*
G75*
G03X116196200Y-50393600I-550000J0D01*
G01*
X82846000Y-63119000D02*
G75*
G03X82846000Y-63119000I-550000J0D01*
G01*
D15*
X103533000Y-48536000D03*
X103533000Y-44936000D03*
D16*
X99658000Y-47236000D03*
X99658000Y-46236000D03*
D17*
X106950000Y-57166000D03*
X107950000Y-57166000D03*
X108950000Y-57166000D03*
X106950000Y-58166000D03*
X107950000Y-58166000D03*
X108950000Y-58166000D03*
X106950000Y-59166000D03*
X107950000Y-59166000D03*
X108950000Y-59166000D03*
D18*
X114150000Y-65966000D03*
X113750000Y-65966000D03*
X113350000Y-65966000D03*
X112950000Y-65966000D03*
X112550000Y-65966000D03*
X112150000Y-65966000D03*
X111750000Y-65966000D03*
X111350000Y-65966000D03*
X110950000Y-65966000D03*
X110550000Y-65966000D03*
X110150000Y-65966000D03*
X109750000Y-65966000D03*
X109350000Y-65966000D03*
X108950000Y-65966000D03*
X108550000Y-65966000D03*
X108150000Y-65966000D03*
X107750000Y-65966000D03*
X107350000Y-65966000D03*
X106950000Y-65966000D03*
X106550000Y-65966000D03*
X106150000Y-65966000D03*
X105750000Y-65966000D03*
X105350000Y-65966000D03*
X104950000Y-65966000D03*
X104550000Y-65966000D03*
X104150000Y-65966000D03*
X103750000Y-65966000D03*
X103350000Y-65966000D03*
X102950000Y-65966000D03*
X102550000Y-65966000D03*
X102150000Y-65966000D03*
X101750000Y-65966000D03*
D19*
X100150000Y-64366000D03*
X100150000Y-63966000D03*
X100150000Y-63566000D03*
X100150000Y-63166000D03*
X100150000Y-62766000D03*
X100150000Y-62366000D03*
X100150000Y-61966000D03*
X100150000Y-61566000D03*
X100150000Y-61166000D03*
X100150000Y-60766000D03*
X100150000Y-60366000D03*
X100150000Y-59966000D03*
X100150000Y-59566000D03*
X100150000Y-59166000D03*
X100150000Y-58766000D03*
X100150000Y-58366000D03*
X100150000Y-57966000D03*
X100150000Y-57566000D03*
X100150000Y-57166000D03*
X100150000Y-56766000D03*
X100150000Y-56366000D03*
X100150000Y-55966000D03*
X100150000Y-55566000D03*
X100150000Y-55166000D03*
X100150000Y-54766000D03*
X100150000Y-54366000D03*
X100150000Y-53966000D03*
X100150000Y-53566000D03*
X100150000Y-53166000D03*
X100150000Y-52766000D03*
X100150000Y-52366000D03*
X100150000Y-51966000D03*
D18*
X101750000Y-50366000D03*
X102150000Y-50366000D03*
X102550000Y-50366000D03*
X102950000Y-50366000D03*
X103350000Y-50366000D03*
X103750000Y-50366000D03*
X104150000Y-50366000D03*
X104550000Y-50366000D03*
X104950000Y-50366000D03*
X105350000Y-50366000D03*
X105750000Y-50366000D03*
X106150000Y-50366000D03*
X106550000Y-50366000D03*
X106950000Y-50366000D03*
X107350000Y-50366000D03*
X107750000Y-50366000D03*
X108150000Y-50366000D03*
X108550000Y-50366000D03*
X108950000Y-50366000D03*
X109350000Y-50366000D03*
X109750000Y-50366000D03*
X110150000Y-50366000D03*
X110550000Y-50366000D03*
X110950000Y-50366000D03*
X111350000Y-50366000D03*
X111750000Y-50366000D03*
X112150000Y-50366000D03*
X112550000Y-50366000D03*
X112950000Y-50366000D03*
X113350000Y-50366000D03*
X113750000Y-50366000D03*
X114150000Y-50366000D03*
D19*
X115750000Y-51966000D03*
X115750000Y-52366000D03*
X115750000Y-52766000D03*
X115750000Y-53166000D03*
X115750000Y-53566000D03*
X115750000Y-53966000D03*
X115750000Y-54366000D03*
X115750000Y-54766000D03*
X115750000Y-55166000D03*
X115750000Y-55566000D03*
X115750000Y-55966000D03*
X115750000Y-56366000D03*
X115750000Y-56766000D03*
X115750000Y-57166000D03*
X115750000Y-57566000D03*
X115750000Y-57966000D03*
X115750000Y-58366000D03*
X115750000Y-58766000D03*
X115750000Y-59166000D03*
X115750000Y-59566000D03*
X115750000Y-59966000D03*
X115750000Y-60366000D03*
X115750000Y-60766000D03*
X115750000Y-61166000D03*
X115750000Y-61566000D03*
X115750000Y-61966000D03*
X115750000Y-62366000D03*
X115750000Y-62766000D03*
X115750000Y-63166000D03*
X115750000Y-63566000D03*
X115750000Y-63966000D03*
X115750000Y-64366000D03*
D20*
X97028000Y-64758000D03*
X97028000Y-63258000D03*
D21*
X86552200Y-47091600D03*
X93432200Y-47091600D03*
D22*
X92192200Y-45771600D03*
X91792200Y-45771600D03*
X91392200Y-45771600D03*
X90992200Y-45771600D03*
X90592200Y-45771600D03*
X90192200Y-45771600D03*
X89792200Y-45771600D03*
X89392200Y-45771600D03*
X88992200Y-45771600D03*
X88592200Y-45771600D03*
X88192200Y-45771600D03*
X87792200Y-45771600D03*
X92192200Y-48411600D03*
X91792200Y-48411600D03*
X91392200Y-48411600D03*
X90992200Y-48411600D03*
X90592200Y-48411600D03*
X90192200Y-48411600D03*
X89792200Y-48411600D03*
X89392200Y-48411600D03*
X88992200Y-48411600D03*
X88592200Y-48411600D03*
X88192200Y-48411600D03*
X87792200Y-48411600D03*
D23*
X112975000Y-46850000D03*
X117925000Y-46850000D03*
D24*
X114300000Y-48525000D03*
X116600000Y-48525000D03*
X115450000Y-48525000D03*
D23*
X76475000Y-46850000D03*
X81425000Y-46850000D03*
D24*
X77800000Y-48525000D03*
X80100000Y-48525000D03*
X78950000Y-48525000D03*
D25*
X94298000Y-51435000D03*
X95948000Y-51435000D03*
D26*
X86828600Y-50613500D03*
D27*
X91053600Y-52461000D03*
X91053600Y-59261000D03*
D28*
X91053600Y-50823500D03*
X91053600Y-61698500D03*
D29*
X86128600Y-61873500D03*
D30*
X80578600Y-61348500D03*
D31*
X80578600Y-50918500D03*
D32*
X88603600Y-61708500D03*
D33*
X82553600Y-60461000D03*
D34*
X82553600Y-51761000D03*
X82553600Y-52861000D03*
X82553600Y-53961000D03*
X82553600Y-55061000D03*
X82553600Y-56161000D03*
X82553600Y-57261000D03*
X82553600Y-58361000D03*
X82553600Y-59461000D03*
D35*
X103886000Y-70161000D03*
X103886000Y-67761000D03*
D36*
X93034000Y-61595000D03*
X95434000Y-61595000D03*
D35*
X89916000Y-66618000D03*
X89916000Y-69018000D03*
D17*
X94050000Y-70415000D03*
X94050000Y-69215000D03*
X94050000Y-68015000D03*
X95250000Y-70415000D03*
X95250000Y-69215000D03*
X95250000Y-68015000D03*
X96450000Y-70415000D03*
X96450000Y-69215000D03*
X96450000Y-68015000D03*
D37*
X98250000Y-67015000D03*
X98250000Y-67415000D03*
X98250000Y-67815000D03*
X98250000Y-68215000D03*
X98250000Y-68615000D03*
X98250000Y-69015000D03*
X98250000Y-69415000D03*
X98250000Y-69815000D03*
X98250000Y-70215000D03*
X98250000Y-70615000D03*
X98250000Y-71015000D03*
X98250000Y-71415000D03*
D38*
X97450000Y-72215000D03*
X97050000Y-72215000D03*
X96650000Y-72215000D03*
X96250000Y-72215000D03*
X95850000Y-72215000D03*
X95450000Y-72215000D03*
X95050000Y-72215000D03*
X94650000Y-72215000D03*
X94250000Y-72215000D03*
X93850000Y-72215000D03*
X93450000Y-72215000D03*
X93050000Y-72215000D03*
D37*
X92250000Y-71415000D03*
X92250000Y-71015000D03*
X92250000Y-70615000D03*
X92250000Y-70215000D03*
X92250000Y-69815000D03*
X92250000Y-69415000D03*
X92250000Y-69015000D03*
X92250000Y-68615000D03*
X92250000Y-68215000D03*
X92250000Y-67815000D03*
X92250000Y-67415000D03*
X92250000Y-67015000D03*
D38*
X93050000Y-66215000D03*
X93450000Y-66215000D03*
X93850000Y-66215000D03*
X94250000Y-66215000D03*
X94650000Y-66215000D03*
X95050000Y-66215000D03*
X95450000Y-66215000D03*
X95850000Y-66215000D03*
X96250000Y-66215000D03*
X96650000Y-66215000D03*
X97050000Y-66215000D03*
X97450000Y-66215000D03*
D39*
X81250000Y-74573000D03*
X81250000Y-64873000D03*
D40*
X82035000Y-71023000D03*
X82035000Y-70373000D03*
X82035000Y-69723000D03*
X82035000Y-69073000D03*
X82035000Y-68423000D03*
D39*
X77950000Y-64873000D03*
X77950000Y-74573000D03*
D41*
X97337400Y-47335400D03*
X97337400Y-49235400D03*
X94737400Y-49235400D03*
X94737400Y-48285400D03*
X94737400Y-47335400D03*
D42*
X97028000Y-45339000D03*
X95758000Y-45339000D03*
D43*
X94488000Y-45339000D03*
D44*
X87757000Y-73152000D03*
X84709000Y-73152000D03*
D45*
X84521000Y-68469000D03*
X86421000Y-68469000D03*
X86421000Y-70469000D03*
D46*
X84721000Y-70469000D03*
D47*
X84963000Y-64309000D03*
X84963000Y-67009000D03*
D48*
X96012000Y-55626000D03*
X96012000Y-57912000D03*
X94234000Y-57912000D03*
X94234000Y-55626000D03*
D49*
X100507800Y-68580000D03*
X100507800Y-69850000D03*
D50*
X78188000Y-51816000D03*
X79038000Y-51816000D03*
X78188000Y-52959000D03*
X79038000Y-52959000D03*
D51*
X79248000Y-54185000D03*
X79248000Y-55035000D03*
D50*
X78188000Y-56261000D03*
X79038000Y-56261000D03*
X78188000Y-57277000D03*
X79038000Y-57277000D03*
X78188000Y-58420000D03*
X79038000Y-58420000D03*
X78188000Y-59563000D03*
X79038000Y-59563000D03*
X110192000Y-75565000D03*
X111042000Y-75565000D03*
D51*
X117602000Y-68028000D03*
X117602000Y-68878000D03*
X117348000Y-50590000D03*
X117348000Y-49740000D03*
X76962000Y-49994000D03*
X76962000Y-50844000D03*
D52*
X99314000Y-74041000D03*
X98552000Y-74041000D03*
X97282000Y-74041000D03*
X96520000Y-74041000D03*
X94488000Y-74041000D03*
X95250000Y-74041000D03*
X91440000Y-73533000D03*
X92202000Y-73533000D03*
X90805000Y-72263000D03*
X90043000Y-72263000D03*
X90297000Y-70231000D03*
X89535000Y-70231000D03*
X91567000Y-64770000D03*
X91567000Y-64008000D03*
X100457000Y-70993000D03*
X99695000Y-70993000D03*
X92583000Y-64770000D03*
X92583000Y-64008000D03*
X91440000Y-74549000D03*
X92202000Y-74549000D03*
X88646000Y-65278000D03*
X88646000Y-64516000D03*
X87757000Y-66548000D03*
X87757000Y-67310000D03*
X90551000Y-65278000D03*
X90551000Y-64516000D03*
X87884000Y-69088000D03*
X87884000Y-69850000D03*
X92964000Y-59309000D03*
X93726000Y-59309000D03*
X92837000Y-58166000D03*
X92837000Y-57404000D03*
X103632000Y-71374000D03*
X102870000Y-71374000D03*
X100457000Y-72009000D03*
X99695000Y-72009000D03*
X101727000Y-69596000D03*
X101727000Y-68834000D03*
X93472000Y-53340000D03*
X93472000Y-54102000D03*
X97536000Y-50673000D03*
X97536000Y-51435000D03*
X94488000Y-53340000D03*
X94488000Y-54102000D03*
X98425000Y-59182000D03*
X97663000Y-59182000D03*
X106426000Y-67691000D03*
X106426000Y-68453000D03*
X98425000Y-60198000D03*
X97663000Y-60198000D03*
X98425000Y-57150000D03*
X97663000Y-57150000D03*
X98425000Y-54483000D03*
X97663000Y-54483000D03*
X98425000Y-53467000D03*
X97663000Y-53467000D03*
X109855000Y-48768000D03*
X109093000Y-48768000D03*
X111506000Y-48768000D03*
X112268000Y-48768000D03*
X117602000Y-54737000D03*
X117602000Y-55499000D03*
X116205000Y-67564000D03*
X115443000Y-67564000D03*
X117348000Y-66421000D03*
X117348000Y-65659000D03*
X117348000Y-58039000D03*
X117348000Y-57277000D03*
X96520000Y-54102000D03*
X96520000Y-53340000D03*
X95504000Y-54102000D03*
X95504000Y-53340000D03*
X97663000Y-58166000D03*
X98425000Y-58166000D03*
X107950000Y-68453000D03*
X107950000Y-67691000D03*
X87630000Y-64516000D03*
X87630000Y-65278000D03*
X86614000Y-64516000D03*
X86614000Y-65278000D03*
X86614000Y-66548000D03*
X86614000Y-67310000D03*
X105410000Y-72517000D03*
X105410000Y-73279000D03*
X96393000Y-59309000D03*
X95631000Y-59309000D03*
X92837000Y-55372000D03*
X92837000Y-56134000D03*
X95631000Y-64516000D03*
X95631000Y-63754000D03*
X96520000Y-62103000D03*
X96520000Y-61341000D03*
X77978000Y-54864000D03*
X77978000Y-54102000D03*
X117348000Y-59944000D03*
X117348000Y-60706000D03*
X117348000Y-53086000D03*
X117348000Y-52324000D03*
X98425000Y-62230000D03*
X97663000Y-62230000D03*
X98425000Y-61214000D03*
X97663000Y-61214000D03*
X106426000Y-73279000D03*
X106426000Y-72517000D03*
X107442000Y-73279000D03*
X107442000Y-72517000D03*
X90805000Y-71247000D03*
X90043000Y-71247000D03*
X98552000Y-51562000D03*
X98552000Y-52324000D03*
X98552000Y-50292000D03*
X98552000Y-49530000D03*
X92710000Y-51054000D03*
X92710000Y-50292000D03*
X98298000Y-55499000D03*
X97536000Y-55499000D03*
X79375000Y-60706000D03*
X79375000Y-61468000D03*
X85217000Y-71501000D03*
X84455000Y-71501000D03*
X98552000Y-64389000D03*
X98552000Y-63627000D03*
X77851000Y-60706000D03*
X77851000Y-61468000D03*
D53*
X115646200Y-50393600D03*
X82296000Y-63119000D03*
M02*
