G04 #@! TF.GenerationSoftware,KiCad,Pcbnew,5.1.5+dfsg1-2build2*
G04 #@! TF.CreationDate,2021-07-27T21:48:52+02:00*
G04 #@! TF.ProjectId,FunKey,46756e4b-6579-42e6-9b69-6361645f7063,F*
G04 #@! TF.SameCoordinates,Original*
G04 #@! TF.FileFunction,Soldermask,Bot*
G04 #@! TF.FilePolarity,Negative*
%FSLAX46Y46*%
G04 Gerber Fmt 4.6, Leading zero omitted, Abs format (unit mm)*
G04 Created by KiCad (PCBNEW 5.1.5+dfsg1-2build2) date 2021-07-27 21:48:52*
%MOMM*%
%LPD*%
G04 APERTURE LIST*
%ADD10C,1.100000*%
%ADD11C,0.127000*%
G04 APERTURE END LIST*
D10*
X82973000Y-48641000D02*
G75*
G03X82973000Y-48641000I-550000J0D01*
G01*
X116882000Y-63373000D02*
G75*
G03X116882000Y-63373000I-550000J0D01*
G01*
D11*
G36*
X109950000Y-56166000D02*
G01*
X105950000Y-56166000D01*
X105950000Y-60166000D01*
X109950000Y-60166000D01*
X109950000Y-56166000D01*
G37*
G36*
X93150000Y-67115000D02*
G01*
X93150000Y-71315000D01*
X97350000Y-71315000D01*
X97350000Y-67115000D01*
X93150000Y-67115000D01*
G37*
G36*
X80800000Y-64173000D02*
G01*
X81700000Y-64173000D01*
X81881173Y-64196852D01*
X82050000Y-64266782D01*
X82194975Y-64378025D01*
X82306218Y-64523000D01*
X82400000Y-64873000D01*
X82376148Y-65054173D01*
X82306218Y-65223000D01*
X82194975Y-65367975D01*
X82050000Y-65479218D01*
X81881173Y-65549148D01*
X81700000Y-65573000D01*
X80800000Y-65573000D01*
X80618827Y-65549148D01*
X80450000Y-65479218D01*
X80305025Y-65367975D01*
X80193782Y-65223000D01*
X80123852Y-65054173D01*
X80100000Y-64873000D01*
X80123852Y-64691827D01*
X80193782Y-64523000D01*
X80305025Y-64378025D01*
X80450000Y-64266782D01*
X80800000Y-64173000D01*
G37*
G36*
X80800000Y-73873000D02*
G01*
X81700000Y-73873000D01*
X81881173Y-73896852D01*
X82050000Y-73966782D01*
X82194975Y-74078025D01*
X82306218Y-74223000D01*
X82400000Y-74573000D01*
X82376148Y-74754173D01*
X82306218Y-74923000D01*
X82194975Y-75067975D01*
X82050000Y-75179218D01*
X81881173Y-75249148D01*
X81700000Y-75273000D01*
X80800000Y-75273000D01*
X80618827Y-75249148D01*
X80450000Y-75179218D01*
X80305025Y-75067975D01*
X80193782Y-74923000D01*
X80123852Y-74754173D01*
X80100000Y-74573000D01*
X80123852Y-74391827D01*
X80193782Y-74223000D01*
X80305025Y-74078025D01*
X80450000Y-73966782D01*
X80800000Y-73873000D01*
G37*
G36*
X77500000Y-64173000D02*
G01*
X78400000Y-64173000D01*
X78399999Y-64173000D01*
X78581172Y-64196852D01*
X78749999Y-64266782D01*
X78894974Y-64378025D01*
X79006217Y-64523000D01*
X79100000Y-64873000D01*
X79100000Y-64872999D01*
X79076148Y-65054173D01*
X79006218Y-65223000D01*
X78894975Y-65367975D01*
X78750000Y-65479218D01*
X78581174Y-65549149D01*
X78400000Y-65573000D01*
X77500000Y-65573000D01*
X77318827Y-65549148D01*
X77150000Y-65479218D01*
X77005025Y-65367975D01*
X76893782Y-65223000D01*
X76823852Y-65054173D01*
X76800000Y-64873000D01*
X76823852Y-64691827D01*
X76893782Y-64523000D01*
X77005025Y-64378025D01*
X77150000Y-64266782D01*
X77500000Y-64173000D01*
G37*
G36*
X77500000Y-73873000D02*
G01*
X78400000Y-73873000D01*
X78399999Y-73873000D01*
X78581172Y-73896852D01*
X78749999Y-73966782D01*
X78894974Y-74078025D01*
X79006217Y-74223000D01*
X79100000Y-74573000D01*
X79100000Y-74572999D01*
X79076148Y-74754173D01*
X79006218Y-74923000D01*
X78894975Y-75067975D01*
X78750000Y-75179218D01*
X78581174Y-75249149D01*
X78400000Y-75273000D01*
X77500000Y-75273000D01*
X77318827Y-75249148D01*
X77150000Y-75179218D01*
X77005025Y-75067975D01*
X76893782Y-74923000D01*
X76823852Y-74754173D01*
X76800000Y-74573000D01*
X76823852Y-74391827D01*
X76893782Y-74223000D01*
X77005025Y-74078025D01*
X77150000Y-73966782D01*
X77500000Y-73873000D01*
G37*
G36*
X90152859Y-73714566D02*
G01*
X90152861Y-73714567D01*
X90152862Y-73714567D01*
X90253102Y-73756087D01*
X90343314Y-73816366D01*
X90420034Y-73893086D01*
X90480313Y-73983298D01*
X90503607Y-74039536D01*
X90521834Y-74083541D01*
X90543000Y-74189950D01*
X90543000Y-74298449D01*
X90521833Y-74404862D01*
X90480313Y-74505102D01*
X90420034Y-74595314D01*
X90343314Y-74672034D01*
X90314567Y-74691242D01*
X90295633Y-74706781D01*
X90280088Y-74725723D01*
X90268536Y-74747334D01*
X90261423Y-74770783D01*
X90259021Y-74795169D01*
X90261423Y-74819555D01*
X90268535Y-74843004D01*
X90280086Y-74864615D01*
X90295631Y-74883557D01*
X90314573Y-74899102D01*
X90336184Y-74910654D01*
X90354824Y-74918375D01*
X90430902Y-74949887D01*
X90521114Y-75010166D01*
X90597834Y-75086886D01*
X90658113Y-75177098D01*
X90699633Y-75277338D01*
X90720800Y-75383751D01*
X90720800Y-75492249D01*
X90699633Y-75598662D01*
X90658113Y-75698902D01*
X90597834Y-75789114D01*
X90521114Y-75865834D01*
X90430902Y-75926113D01*
X90330662Y-75967633D01*
X90330661Y-75967633D01*
X90330659Y-75967634D01*
X90224250Y-75988800D01*
X90115750Y-75988800D01*
X90009341Y-75967634D01*
X90009339Y-75967633D01*
X90009338Y-75967633D01*
X89909098Y-75926113D01*
X89818886Y-75865834D01*
X89742166Y-75789114D01*
X89681887Y-75698902D01*
X89640367Y-75598662D01*
X89619200Y-75492249D01*
X89619200Y-75383751D01*
X89640367Y-75277338D01*
X89681887Y-75177098D01*
X89742166Y-75086886D01*
X89818886Y-75010166D01*
X89847633Y-74990958D01*
X89866567Y-74975419D01*
X89882112Y-74956477D01*
X89893664Y-74934866D01*
X89900777Y-74911417D01*
X89903179Y-74887031D01*
X89900777Y-74862645D01*
X89893665Y-74839196D01*
X89882114Y-74817585D01*
X89866569Y-74798643D01*
X89847627Y-74783098D01*
X89826016Y-74771546D01*
X89807376Y-74763825D01*
X89731298Y-74732313D01*
X89641086Y-74672034D01*
X89564366Y-74595314D01*
X89504087Y-74505102D01*
X89462567Y-74404862D01*
X89441400Y-74298449D01*
X89441400Y-74189950D01*
X89462566Y-74083541D01*
X89480793Y-74039536D01*
X89504087Y-73983298D01*
X89564366Y-73893086D01*
X89641086Y-73816366D01*
X89731298Y-73756087D01*
X89831538Y-73714567D01*
X89831539Y-73714567D01*
X89831541Y-73714566D01*
X89937950Y-73693400D01*
X90046450Y-73693400D01*
X90152859Y-73714566D01*
G37*
G36*
X103728800Y-75680800D02*
G01*
X103027200Y-75680800D01*
X103027200Y-74179200D01*
X103728800Y-74179200D01*
X103728800Y-75680800D01*
G37*
G36*
X81792029Y-73827632D02*
G01*
X81847182Y-73833064D01*
X81988709Y-73875996D01*
X81988711Y-73875997D01*
X82119139Y-73945712D01*
X82233464Y-74039536D01*
X82327288Y-74153861D01*
X82384737Y-74261341D01*
X82397004Y-74284291D01*
X82416586Y-74348844D01*
X82425962Y-74371477D01*
X82439576Y-74391852D01*
X82456903Y-74409179D01*
X82477277Y-74422792D01*
X82499916Y-74432170D01*
X82523949Y-74436950D01*
X82524986Y-74436950D01*
X82508305Y-74445866D01*
X82489363Y-74461411D01*
X82473818Y-74480353D01*
X82462267Y-74501964D01*
X82455154Y-74525413D01*
X82453354Y-74562051D01*
X82454432Y-74573000D01*
X82439936Y-74720184D01*
X82400885Y-74848915D01*
X82396104Y-74872949D01*
X82396104Y-74897453D01*
X82400884Y-74921486D01*
X82410262Y-74944125D01*
X82423875Y-74964499D01*
X82441202Y-74981826D01*
X82461576Y-74995440D01*
X82484215Y-75004817D01*
X82508249Y-75009598D01*
X82520501Y-75010200D01*
X83289800Y-75010200D01*
X83289800Y-75611800D01*
X82488200Y-75611800D01*
X82488200Y-75145416D01*
X82485798Y-75121030D01*
X82478685Y-75097581D01*
X82467134Y-75075970D01*
X82451589Y-75057028D01*
X82432647Y-75041483D01*
X82411036Y-75029932D01*
X82387587Y-75022819D01*
X82363201Y-75020417D01*
X82338815Y-75022819D01*
X82315366Y-75029932D01*
X82293755Y-75041483D01*
X82266576Y-75066117D01*
X82233464Y-75106464D01*
X82119139Y-75200288D01*
X81988711Y-75270003D01*
X81988709Y-75270004D01*
X81847182Y-75312936D01*
X81736878Y-75323800D01*
X80763122Y-75323800D01*
X80652818Y-75312936D01*
X80511291Y-75270004D01*
X80511289Y-75270003D01*
X80380861Y-75200288D01*
X80266536Y-75106464D01*
X80172712Y-74992139D01*
X80102997Y-74861711D01*
X80082812Y-74795169D01*
X80060064Y-74720182D01*
X80045568Y-74573000D01*
X80060064Y-74425818D01*
X80102996Y-74284291D01*
X80172713Y-74153860D01*
X80266536Y-74039536D01*
X80380860Y-73945713D01*
X80380859Y-73945713D01*
X80380861Y-73945712D01*
X80511289Y-73875997D01*
X80511291Y-73875996D01*
X80652818Y-73833064D01*
X80707971Y-73827632D01*
X80763122Y-73822200D01*
X81736878Y-73822200D01*
X81792029Y-73827632D01*
G37*
G36*
X84389800Y-75611800D02*
G01*
X83588200Y-75611800D01*
X83588200Y-75010200D01*
X84389800Y-75010200D01*
X84389800Y-75611800D01*
G37*
G36*
X78492029Y-73827632D02*
G01*
X78547182Y-73833064D01*
X78688709Y-73875996D01*
X78688711Y-73875997D01*
X78819139Y-73945712D01*
X78819141Y-73945713D01*
X78819140Y-73945713D01*
X78933464Y-74039536D01*
X79027287Y-74153860D01*
X79097004Y-74284291D01*
X79139936Y-74425818D01*
X79154432Y-74573000D01*
X79139936Y-74720182D01*
X79117189Y-74795169D01*
X79097003Y-74861711D01*
X79027288Y-74992139D01*
X78933464Y-75106464D01*
X78819139Y-75200288D01*
X78688711Y-75270003D01*
X78688709Y-75270004D01*
X78547182Y-75312936D01*
X78436878Y-75323800D01*
X77463122Y-75323800D01*
X77352818Y-75312936D01*
X77211291Y-75270004D01*
X77211289Y-75270003D01*
X77080861Y-75200288D01*
X76966536Y-75106464D01*
X76872712Y-74992139D01*
X76802997Y-74861711D01*
X76782812Y-74795169D01*
X76760064Y-74720182D01*
X76745568Y-74573000D01*
X76760064Y-74425818D01*
X76802996Y-74284291D01*
X76872713Y-74153860D01*
X76966536Y-74039536D01*
X77080860Y-73945713D01*
X77080859Y-73945713D01*
X77080861Y-73945712D01*
X77211289Y-73875997D01*
X77211291Y-73875996D01*
X77352818Y-73833064D01*
X77407971Y-73827632D01*
X77463122Y-73822200D01*
X78436878Y-73822200D01*
X78492029Y-73827632D01*
G37*
G36*
X96934659Y-73892366D02*
G01*
X96934661Y-73892367D01*
X96934662Y-73892367D01*
X97034902Y-73933887D01*
X97125114Y-73994166D01*
X97201834Y-74070886D01*
X97262113Y-74161098D01*
X97303633Y-74261338D01*
X97303634Y-74261341D01*
X97321038Y-74348838D01*
X97324800Y-74367751D01*
X97324800Y-74476249D01*
X97303633Y-74582662D01*
X97262113Y-74682902D01*
X97201834Y-74773114D01*
X97125114Y-74849834D01*
X97034902Y-74910113D01*
X96934662Y-74951633D01*
X96934661Y-74951633D01*
X96934659Y-74951634D01*
X96828250Y-74972800D01*
X96719750Y-74972800D01*
X96613341Y-74951634D01*
X96613339Y-74951633D01*
X96613338Y-74951633D01*
X96513098Y-74910113D01*
X96422886Y-74849834D01*
X96346166Y-74773114D01*
X96285887Y-74682902D01*
X96244367Y-74582662D01*
X96223200Y-74476249D01*
X96223200Y-74367751D01*
X96226962Y-74348838D01*
X96244366Y-74261341D01*
X96244367Y-74261338D01*
X96285887Y-74161098D01*
X96346166Y-74070886D01*
X96422886Y-73994166D01*
X96513098Y-73933887D01*
X96613338Y-73892367D01*
X96613339Y-73892367D01*
X96613341Y-73892366D01*
X96719750Y-73871200D01*
X96828250Y-73871200D01*
X96934659Y-73892366D01*
G37*
G36*
X83962800Y-74424800D02*
G01*
X82590278Y-74424800D01*
X82595125Y-74422792D01*
X82615500Y-74409178D01*
X82632827Y-74391851D01*
X82646440Y-74371477D01*
X82655818Y-74348838D01*
X82661200Y-74312553D01*
X82661200Y-72923200D01*
X83962800Y-72923200D01*
X83962800Y-74424800D01*
G37*
G36*
X107141800Y-74167300D02*
G01*
X104440200Y-74167300D01*
X104440200Y-73065700D01*
X107141800Y-73065700D01*
X107141800Y-74167300D01*
G37*
G36*
X86456800Y-73775800D02*
G01*
X85755200Y-73775800D01*
X85755200Y-72274200D01*
X86456800Y-72274200D01*
X86456800Y-73775800D01*
G37*
G36*
X85394800Y-73456800D02*
G01*
X84785200Y-73456800D01*
X84785200Y-72085200D01*
X85394800Y-72085200D01*
X85394800Y-73456800D01*
G37*
G36*
X95918659Y-71606366D02*
G01*
X95918661Y-71606367D01*
X95918662Y-71606367D01*
X96018902Y-71647887D01*
X96109114Y-71708166D01*
X96185834Y-71784886D01*
X96246113Y-71875098D01*
X96284718Y-71968300D01*
X96287634Y-71975341D01*
X96308800Y-72081750D01*
X96308800Y-72190249D01*
X96287633Y-72296662D01*
X96246113Y-72396902D01*
X96185834Y-72487114D01*
X96109114Y-72563834D01*
X96018902Y-72624113D01*
X95918662Y-72665633D01*
X95918661Y-72665633D01*
X95918659Y-72665634D01*
X95812250Y-72686800D01*
X95703750Y-72686800D01*
X95597341Y-72665634D01*
X95597339Y-72665633D01*
X95597338Y-72665633D01*
X95497098Y-72624113D01*
X95406886Y-72563834D01*
X95330166Y-72487114D01*
X95269887Y-72396902D01*
X95228367Y-72296662D01*
X95207200Y-72190249D01*
X95207200Y-72081750D01*
X95228366Y-71975341D01*
X95231282Y-71968300D01*
X95269887Y-71875098D01*
X95330166Y-71784886D01*
X95406886Y-71708166D01*
X95497098Y-71647887D01*
X95597338Y-71606367D01*
X95597339Y-71606367D01*
X95597341Y-71606366D01*
X95703750Y-71585200D01*
X95812250Y-71585200D01*
X95918659Y-71606366D01*
G37*
G36*
X92200800Y-72650800D02*
G01*
X91549200Y-72650800D01*
X91549200Y-71249200D01*
X92200800Y-71249200D01*
X92200800Y-72650800D01*
G37*
G36*
X102850800Y-72650800D02*
G01*
X102199200Y-72650800D01*
X102199200Y-71249200D01*
X102850800Y-71249200D01*
X102850800Y-72650800D01*
G37*
G36*
X94850800Y-72650800D02*
G01*
X94199200Y-72650800D01*
X94199200Y-71249200D01*
X94850800Y-71249200D01*
X94850800Y-72650800D01*
G37*
G36*
X100200800Y-72650800D02*
G01*
X99549200Y-72650800D01*
X99549200Y-71249200D01*
X100200800Y-71249200D01*
X100200800Y-72650800D01*
G37*
G36*
X107141800Y-71968300D02*
G01*
X104440200Y-71968300D01*
X104440200Y-71884992D01*
X104437798Y-71860606D01*
X104430685Y-71837157D01*
X104419134Y-71815546D01*
X104403589Y-71796604D01*
X104384647Y-71781059D01*
X104363036Y-71769508D01*
X104339587Y-71762395D01*
X104315201Y-71759993D01*
X104290815Y-71762395D01*
X104267366Y-71769508D01*
X104245755Y-71781059D01*
X104226813Y-71796604D01*
X104211271Y-71815543D01*
X104186834Y-71852114D01*
X104110114Y-71928834D01*
X104019902Y-71989113D01*
X103919662Y-72030633D01*
X103919661Y-72030633D01*
X103919659Y-72030634D01*
X103813250Y-72051800D01*
X103704750Y-72051800D01*
X103598341Y-72030634D01*
X103598339Y-72030633D01*
X103598338Y-72030633D01*
X103498098Y-71989113D01*
X103407886Y-71928834D01*
X103331166Y-71852114D01*
X103270887Y-71761902D01*
X103229367Y-71661662D01*
X103214158Y-71585200D01*
X103208200Y-71555250D01*
X103208200Y-71446750D01*
X103229366Y-71340341D01*
X103229367Y-71340338D01*
X103270887Y-71240098D01*
X103331166Y-71149886D01*
X103407886Y-71073166D01*
X103498098Y-71012887D01*
X103598338Y-70971367D01*
X103598339Y-70971367D01*
X103598341Y-70971366D01*
X103704750Y-70950200D01*
X103813250Y-70950200D01*
X103919659Y-70971366D01*
X103919661Y-70971367D01*
X103919662Y-70971367D01*
X104019902Y-71012887D01*
X104110114Y-71073166D01*
X104186834Y-71149886D01*
X104200809Y-71170800D01*
X104211268Y-71186454D01*
X104226813Y-71205396D01*
X104245755Y-71220941D01*
X104267366Y-71232492D01*
X104290815Y-71239605D01*
X104315201Y-71242007D01*
X104339587Y-71239605D01*
X104363036Y-71232492D01*
X104384647Y-71220941D01*
X104403589Y-71205396D01*
X104419134Y-71186454D01*
X104430685Y-71164843D01*
X104437798Y-71141394D01*
X104440200Y-71117008D01*
X104440200Y-70866700D01*
X107141800Y-70866700D01*
X107141800Y-71968300D01*
G37*
G36*
X90158800Y-71597800D02*
G01*
X88657200Y-71597800D01*
X88657200Y-70896200D01*
X90158800Y-70896200D01*
X90158800Y-71597800D01*
G37*
G36*
X96553725Y-70073065D02*
G01*
X96618440Y-70099871D01*
X96676682Y-70138787D01*
X96726213Y-70188318D01*
X96765129Y-70246560D01*
X96791935Y-70311275D01*
X96805600Y-70379976D01*
X96805600Y-70436201D01*
X96808002Y-70460587D01*
X96815115Y-70484036D01*
X96826666Y-70505647D01*
X96842211Y-70524589D01*
X96861153Y-70540134D01*
X96882764Y-70551685D01*
X96906213Y-70558798D01*
X96930599Y-70561200D01*
X98348800Y-70561200D01*
X98348800Y-71170800D01*
X96977200Y-71170800D01*
X96977200Y-70678118D01*
X96974798Y-70653732D01*
X96967685Y-70630283D01*
X96956134Y-70608672D01*
X96940589Y-70589730D01*
X96921647Y-70574185D01*
X96900036Y-70562634D01*
X96876587Y-70555521D01*
X96852201Y-70553119D01*
X96827815Y-70555521D01*
X96804366Y-70562634D01*
X96782755Y-70574185D01*
X96763813Y-70589730D01*
X96748276Y-70608662D01*
X96726213Y-70641682D01*
X96676682Y-70691213D01*
X96618440Y-70730129D01*
X96553725Y-70756935D01*
X96485024Y-70770600D01*
X96414976Y-70770600D01*
X96346275Y-70756935D01*
X96281560Y-70730129D01*
X96223318Y-70691213D01*
X96173787Y-70641682D01*
X96134871Y-70583440D01*
X96108065Y-70518725D01*
X96094400Y-70450024D01*
X96094400Y-70379976D01*
X96108065Y-70311275D01*
X96134871Y-70246560D01*
X96173787Y-70188318D01*
X96223318Y-70138787D01*
X96281560Y-70099871D01*
X96346275Y-70073065D01*
X96414976Y-70059400D01*
X96485024Y-70059400D01*
X96553725Y-70073065D01*
G37*
G36*
X94153725Y-70073065D02*
G01*
X94218440Y-70099871D01*
X94276682Y-70138787D01*
X94326213Y-70188318D01*
X94365129Y-70246560D01*
X94391935Y-70311275D01*
X94405600Y-70379976D01*
X94405600Y-70450024D01*
X94391935Y-70518725D01*
X94365129Y-70583440D01*
X94326213Y-70641682D01*
X94276682Y-70691213D01*
X94218440Y-70730129D01*
X94153725Y-70756935D01*
X94085024Y-70770600D01*
X94014976Y-70770600D01*
X93946275Y-70756935D01*
X93881560Y-70730129D01*
X93823318Y-70691213D01*
X93773787Y-70641682D01*
X93734871Y-70583440D01*
X93708065Y-70518725D01*
X93694400Y-70450024D01*
X93694400Y-70379976D01*
X93708065Y-70311275D01*
X93734871Y-70246560D01*
X93773787Y-70188318D01*
X93823318Y-70138787D01*
X93881560Y-70099871D01*
X93946275Y-70073065D01*
X94014976Y-70059400D01*
X94085024Y-70059400D01*
X94153725Y-70073065D01*
G37*
G36*
X95353725Y-70073065D02*
G01*
X95418440Y-70099871D01*
X95476682Y-70138787D01*
X95526213Y-70188318D01*
X95565129Y-70246560D01*
X95591935Y-70311275D01*
X95605600Y-70379976D01*
X95605600Y-70450024D01*
X95591935Y-70518725D01*
X95565129Y-70583440D01*
X95526213Y-70641682D01*
X95476682Y-70691213D01*
X95418440Y-70730129D01*
X95353725Y-70756935D01*
X95285024Y-70770600D01*
X95214976Y-70770600D01*
X95146275Y-70756935D01*
X95081560Y-70730129D01*
X95023318Y-70691213D01*
X94973787Y-70641682D01*
X94934871Y-70583440D01*
X94908065Y-70518725D01*
X94894400Y-70450024D01*
X94894400Y-70379976D01*
X94908065Y-70311275D01*
X94934871Y-70246560D01*
X94973787Y-70188318D01*
X95023318Y-70138787D01*
X95081560Y-70099871D01*
X95146275Y-70073065D01*
X95214976Y-70059400D01*
X95285024Y-70059400D01*
X95353725Y-70073065D01*
G37*
G36*
X90601800Y-70535800D02*
G01*
X89230200Y-70535800D01*
X89230200Y-69926200D01*
X90601800Y-69926200D01*
X90601800Y-70535800D01*
G37*
G36*
X102903659Y-69447366D02*
G01*
X102903661Y-69447367D01*
X102903662Y-69447367D01*
X103003902Y-69488887D01*
X103094114Y-69549166D01*
X103170834Y-69625886D01*
X103231113Y-69716098D01*
X103272633Y-69816338D01*
X103272634Y-69816341D01*
X103293800Y-69922750D01*
X103293800Y-70031250D01*
X103280151Y-70099870D01*
X103272633Y-70137662D01*
X103231113Y-70237902D01*
X103170834Y-70328114D01*
X103094114Y-70404834D01*
X103003902Y-70465113D01*
X102903662Y-70506633D01*
X102903661Y-70506633D01*
X102903659Y-70506634D01*
X102797250Y-70527800D01*
X102688750Y-70527800D01*
X102582341Y-70506634D01*
X102582339Y-70506633D01*
X102582338Y-70506633D01*
X102482098Y-70465113D01*
X102391886Y-70404834D01*
X102315166Y-70328114D01*
X102254887Y-70237902D01*
X102213367Y-70137662D01*
X102205850Y-70099870D01*
X102192200Y-70031250D01*
X102192200Y-69922750D01*
X102213366Y-69816341D01*
X102213367Y-69816338D01*
X102254887Y-69716098D01*
X102315166Y-69625886D01*
X102391886Y-69549166D01*
X102482098Y-69488887D01*
X102582338Y-69447367D01*
X102582339Y-69447367D01*
X102582341Y-69447366D01*
X102688750Y-69426200D01*
X102797250Y-69426200D01*
X102903659Y-69447366D01*
G37*
G36*
X100744659Y-69447366D02*
G01*
X100744661Y-69447367D01*
X100744662Y-69447367D01*
X100844902Y-69488887D01*
X100935114Y-69549166D01*
X101011834Y-69625886D01*
X101072113Y-69716098D01*
X101113633Y-69816338D01*
X101113634Y-69816341D01*
X101134800Y-69922750D01*
X101134800Y-70031250D01*
X101121151Y-70099870D01*
X101113633Y-70137662D01*
X101072113Y-70237902D01*
X101011834Y-70328114D01*
X100935114Y-70404834D01*
X100844902Y-70465113D01*
X100744662Y-70506633D01*
X100744661Y-70506633D01*
X100744659Y-70506634D01*
X100638250Y-70527800D01*
X100529750Y-70527800D01*
X100423341Y-70506634D01*
X100423339Y-70506633D01*
X100423338Y-70506633D01*
X100323098Y-70465113D01*
X100232886Y-70404834D01*
X100156166Y-70328114D01*
X100095887Y-70237902D01*
X100054367Y-70137662D01*
X100046850Y-70099870D01*
X100033200Y-70031250D01*
X100033200Y-69922750D01*
X100054366Y-69816341D01*
X100054367Y-69816338D01*
X100095887Y-69716098D01*
X100156166Y-69625886D01*
X100232886Y-69549166D01*
X100323098Y-69488887D01*
X100423338Y-69447367D01*
X100423339Y-69447367D01*
X100423341Y-69447366D01*
X100529750Y-69426200D01*
X100638250Y-69426200D01*
X100744659Y-69447366D01*
G37*
G36*
X104571800Y-70408800D02*
G01*
X103708200Y-70408800D01*
X103708200Y-69291200D01*
X104571800Y-69291200D01*
X104571800Y-70408800D01*
G37*
G36*
X98602800Y-70154800D02*
G01*
X97231200Y-70154800D01*
X97231200Y-69545200D01*
X98602800Y-69545200D01*
X98602800Y-70154800D01*
G37*
G36*
X88542800Y-69860800D02*
G01*
X85701200Y-69860800D01*
X85701200Y-68859200D01*
X88542800Y-68859200D01*
X88542800Y-69860800D01*
G37*
G36*
X83962800Y-69824800D02*
G01*
X82661200Y-69824800D01*
X82661200Y-68323200D01*
X83962800Y-68323200D01*
X83962800Y-69824800D01*
G37*
G36*
X92362659Y-67288366D02*
G01*
X92362661Y-67288367D01*
X92362662Y-67288367D01*
X92462902Y-67329887D01*
X92553114Y-67390166D01*
X92629834Y-67466886D01*
X92690113Y-67557098D01*
X92724534Y-67640200D01*
X92731634Y-67657341D01*
X92752800Y-67763750D01*
X92752800Y-67872250D01*
X92745038Y-67911274D01*
X92731633Y-67978662D01*
X92690113Y-68078902D01*
X92629834Y-68169114D01*
X92553114Y-68245834D01*
X92462902Y-68306113D01*
X92387087Y-68337516D01*
X92365477Y-68349068D01*
X92346535Y-68364613D01*
X92330990Y-68383555D01*
X92319439Y-68405166D01*
X92312326Y-68428615D01*
X92309924Y-68453001D01*
X92312326Y-68477387D01*
X92319439Y-68500836D01*
X92330991Y-68522446D01*
X92346536Y-68541388D01*
X92365478Y-68556933D01*
X92387087Y-68568484D01*
X92462902Y-68599887D01*
X92553114Y-68660166D01*
X92629834Y-68736886D01*
X92690113Y-68827098D01*
X92720256Y-68899871D01*
X92731634Y-68927341D01*
X92752800Y-69033750D01*
X92752800Y-69142250D01*
X92745296Y-69179977D01*
X92731633Y-69248662D01*
X92690113Y-69348902D01*
X92629834Y-69439114D01*
X92553114Y-69515834D01*
X92462902Y-69576113D01*
X92362662Y-69617633D01*
X92362661Y-69617633D01*
X92362659Y-69617634D01*
X92256250Y-69638800D01*
X92147750Y-69638800D01*
X92041341Y-69617634D01*
X92041339Y-69617633D01*
X92041338Y-69617633D01*
X91941098Y-69576113D01*
X91850886Y-69515834D01*
X91774166Y-69439114D01*
X91713887Y-69348902D01*
X91672367Y-69248662D01*
X91658705Y-69179977D01*
X91651200Y-69142250D01*
X91651200Y-69033750D01*
X91672366Y-68927341D01*
X91683744Y-68899871D01*
X91713887Y-68827098D01*
X91774166Y-68736886D01*
X91850886Y-68660166D01*
X91941098Y-68599887D01*
X92016913Y-68568484D01*
X92038523Y-68556932D01*
X92057465Y-68541387D01*
X92073010Y-68522445D01*
X92084561Y-68500834D01*
X92091674Y-68477385D01*
X92094076Y-68452999D01*
X92091674Y-68428613D01*
X92084561Y-68405164D01*
X92073009Y-68383554D01*
X92057464Y-68364612D01*
X92038522Y-68349067D01*
X92016913Y-68337516D01*
X91941098Y-68306113D01*
X91850886Y-68245834D01*
X91774166Y-68169114D01*
X91713887Y-68078902D01*
X91672367Y-67978662D01*
X91658963Y-67911274D01*
X91651200Y-67872250D01*
X91651200Y-67763750D01*
X91672366Y-67657341D01*
X91679466Y-67640200D01*
X91713887Y-67557098D01*
X91774166Y-67466886D01*
X91850886Y-67390166D01*
X91941098Y-67329887D01*
X92041338Y-67288367D01*
X92041339Y-67288367D01*
X92041341Y-67288366D01*
X92147750Y-67267200D01*
X92256250Y-67267200D01*
X92362659Y-67288366D01*
G37*
G36*
X94153725Y-68873065D02*
G01*
X94218440Y-68899871D01*
X94276682Y-68938787D01*
X94326213Y-68988318D01*
X94365129Y-69046560D01*
X94391935Y-69111275D01*
X94405600Y-69179976D01*
X94405600Y-69250024D01*
X94391935Y-69318725D01*
X94365129Y-69383440D01*
X94326213Y-69441682D01*
X94276682Y-69491213D01*
X94218440Y-69530129D01*
X94153725Y-69556935D01*
X94085024Y-69570600D01*
X94014976Y-69570600D01*
X93946275Y-69556935D01*
X93881560Y-69530129D01*
X93823318Y-69491213D01*
X93773787Y-69441682D01*
X93734871Y-69383440D01*
X93708065Y-69318725D01*
X93694400Y-69250024D01*
X93694400Y-69179976D01*
X93708065Y-69111275D01*
X93734871Y-69046560D01*
X93773787Y-68988318D01*
X93823318Y-68938787D01*
X93881560Y-68899871D01*
X93946275Y-68873065D01*
X94014976Y-68859400D01*
X94085024Y-68859400D01*
X94153725Y-68873065D01*
G37*
G36*
X95353725Y-68873065D02*
G01*
X95418440Y-68899871D01*
X95476682Y-68938787D01*
X95526213Y-68988318D01*
X95565129Y-69046560D01*
X95591935Y-69111275D01*
X95605600Y-69179976D01*
X95605600Y-69250024D01*
X95591935Y-69318725D01*
X95565129Y-69383440D01*
X95526213Y-69441682D01*
X95476682Y-69491213D01*
X95418440Y-69530129D01*
X95353725Y-69556935D01*
X95285024Y-69570600D01*
X95214976Y-69570600D01*
X95146275Y-69556935D01*
X95081560Y-69530129D01*
X95023318Y-69491213D01*
X94973787Y-69441682D01*
X94934871Y-69383440D01*
X94908065Y-69318725D01*
X94894400Y-69250024D01*
X94894400Y-69179976D01*
X94908065Y-69111275D01*
X94934871Y-69046560D01*
X94973787Y-68988318D01*
X95023318Y-68938787D01*
X95081560Y-68899871D01*
X95146275Y-68873065D01*
X95214976Y-68859400D01*
X95285024Y-68859400D01*
X95353725Y-68873065D01*
G37*
G36*
X96553725Y-68873065D02*
G01*
X96618440Y-68899871D01*
X96676682Y-68938787D01*
X96726213Y-68988318D01*
X96765129Y-69046560D01*
X96791935Y-69111275D01*
X96805600Y-69179976D01*
X96805600Y-69250024D01*
X96791935Y-69318725D01*
X96765129Y-69383440D01*
X96726213Y-69441682D01*
X96676682Y-69491213D01*
X96618440Y-69530129D01*
X96553725Y-69556935D01*
X96485024Y-69570600D01*
X96414976Y-69570600D01*
X96346275Y-69556935D01*
X96281560Y-69530129D01*
X96223318Y-69491213D01*
X96173787Y-69441682D01*
X96134871Y-69383440D01*
X96108065Y-69318725D01*
X96094400Y-69250024D01*
X96094400Y-69179976D01*
X96108065Y-69111275D01*
X96134871Y-69046560D01*
X96173787Y-68988318D01*
X96223318Y-68938787D01*
X96281560Y-68899871D01*
X96346275Y-68873065D01*
X96414976Y-68859400D01*
X96485024Y-68859400D01*
X96553725Y-68873065D01*
G37*
G36*
X98602800Y-69138800D02*
G01*
X97231200Y-69138800D01*
X97231200Y-68529200D01*
X98602800Y-68529200D01*
X98602800Y-69138800D01*
G37*
G36*
X103301800Y-69011800D02*
G01*
X102692200Y-69011800D01*
X102692200Y-67640200D01*
X103301800Y-67640200D01*
X103301800Y-69011800D01*
G37*
G36*
X105587800Y-69011800D02*
G01*
X104978200Y-69011800D01*
X104978200Y-67640200D01*
X105587800Y-67640200D01*
X105587800Y-69011800D01*
G37*
G36*
X89672800Y-68730800D02*
G01*
X88671200Y-68730800D01*
X88671200Y-65889200D01*
X89672800Y-65889200D01*
X89672800Y-68730800D01*
G37*
G36*
X85572800Y-68730800D02*
G01*
X84571200Y-68730800D01*
X84571200Y-65889200D01*
X85572800Y-65889200D01*
X85572800Y-68730800D01*
G37*
G36*
X104571800Y-68630800D02*
G01*
X103708200Y-68630800D01*
X103708200Y-67513200D01*
X104571800Y-67513200D01*
X104571800Y-68630800D01*
G37*
G36*
X100888800Y-68630800D02*
G01*
X100279200Y-68630800D01*
X100279200Y-67259200D01*
X100888800Y-67259200D01*
X100888800Y-68630800D01*
G37*
G36*
X88222800Y-68410800D02*
G01*
X86021200Y-68410800D01*
X86021200Y-66209200D01*
X88222800Y-66209200D01*
X88222800Y-68410800D01*
G37*
G36*
X96553725Y-67673065D02*
G01*
X96618440Y-67699871D01*
X96676682Y-67738787D01*
X96726213Y-67788318D01*
X96765129Y-67846560D01*
X96791935Y-67911275D01*
X96805600Y-67979976D01*
X96805600Y-68050024D01*
X96791935Y-68118725D01*
X96765129Y-68183440D01*
X96726213Y-68241682D01*
X96676682Y-68291213D01*
X96618440Y-68330129D01*
X96553725Y-68356935D01*
X96485024Y-68370600D01*
X96414976Y-68370600D01*
X96346275Y-68356935D01*
X96281560Y-68330129D01*
X96223318Y-68291213D01*
X96173787Y-68241682D01*
X96134871Y-68183440D01*
X96108065Y-68118725D01*
X96094400Y-68050024D01*
X96094400Y-67979976D01*
X96108065Y-67911275D01*
X96134871Y-67846560D01*
X96173787Y-67788318D01*
X96223318Y-67738787D01*
X96281560Y-67699871D01*
X96346275Y-67673065D01*
X96414976Y-67659400D01*
X96485024Y-67659400D01*
X96553725Y-67673065D01*
G37*
G36*
X95353725Y-67673065D02*
G01*
X95418440Y-67699871D01*
X95476682Y-67738787D01*
X95526213Y-67788318D01*
X95565129Y-67846560D01*
X95591935Y-67911275D01*
X95605600Y-67979976D01*
X95605600Y-68050024D01*
X95591935Y-68118725D01*
X95565129Y-68183440D01*
X95526213Y-68241682D01*
X95476682Y-68291213D01*
X95418440Y-68330129D01*
X95353725Y-68356935D01*
X95285024Y-68370600D01*
X95214976Y-68370600D01*
X95146275Y-68356935D01*
X95081560Y-68330129D01*
X95023318Y-68291213D01*
X94973787Y-68241682D01*
X94934871Y-68183440D01*
X94908065Y-68118725D01*
X94894400Y-68050024D01*
X94894400Y-67979976D01*
X94908065Y-67911275D01*
X94934871Y-67846560D01*
X94973787Y-67788318D01*
X95023318Y-67738787D01*
X95081560Y-67699871D01*
X95146275Y-67673065D01*
X95214976Y-67659400D01*
X95285024Y-67659400D01*
X95353725Y-67673065D01*
G37*
G36*
X94153725Y-67673065D02*
G01*
X94218440Y-67699871D01*
X94276682Y-67738787D01*
X94326213Y-67788318D01*
X94365129Y-67846560D01*
X94391935Y-67911275D01*
X94405600Y-67979976D01*
X94405600Y-68050024D01*
X94391935Y-68118725D01*
X94365129Y-68183440D01*
X94326213Y-68241682D01*
X94276682Y-68291213D01*
X94218440Y-68330129D01*
X94153725Y-68356935D01*
X94085024Y-68370600D01*
X94014976Y-68370600D01*
X93946275Y-68356935D01*
X93881560Y-68330129D01*
X93823318Y-68291213D01*
X93773787Y-68241682D01*
X93734871Y-68183440D01*
X93708065Y-68118725D01*
X93694400Y-68050024D01*
X93694400Y-67979976D01*
X93708065Y-67911275D01*
X93734871Y-67846560D01*
X93773787Y-67788318D01*
X93823318Y-67738787D01*
X93881560Y-67699871D01*
X93946275Y-67673065D01*
X94014976Y-67659400D01*
X94085024Y-67659400D01*
X94153725Y-67673065D01*
G37*
G36*
X108254800Y-68249800D02*
G01*
X107645200Y-68249800D01*
X107645200Y-66878200D01*
X108254800Y-66878200D01*
X108254800Y-68249800D01*
G37*
G36*
X95300800Y-67106800D02*
G01*
X94691200Y-67106800D01*
X94691200Y-65735200D01*
X95300800Y-65735200D01*
X95300800Y-67106800D01*
G37*
G36*
X94284800Y-67106800D02*
G01*
X93675200Y-67106800D01*
X93675200Y-65735200D01*
X94284800Y-65735200D01*
X94284800Y-67106800D01*
G37*
G36*
X105189659Y-66018366D02*
G01*
X105189661Y-66018367D01*
X105189662Y-66018367D01*
X105289902Y-66059887D01*
X105380114Y-66120166D01*
X105456834Y-66196886D01*
X105517113Y-66287098D01*
X105558633Y-66387338D01*
X105558634Y-66387341D01*
X105572024Y-66454659D01*
X105579800Y-66493751D01*
X105579800Y-66602249D01*
X105558633Y-66708662D01*
X105517113Y-66808902D01*
X105456834Y-66899114D01*
X105380114Y-66975834D01*
X105289902Y-67036113D01*
X105189662Y-67077633D01*
X105189661Y-67077633D01*
X105189659Y-67077634D01*
X105083250Y-67098800D01*
X104974750Y-67098800D01*
X104868341Y-67077634D01*
X104868339Y-67077633D01*
X104868338Y-67077633D01*
X104768098Y-67036113D01*
X104677886Y-66975834D01*
X104601166Y-66899114D01*
X104540887Y-66808902D01*
X104499367Y-66708662D01*
X104478200Y-66602249D01*
X104478200Y-66493751D01*
X104485976Y-66454659D01*
X104499366Y-66387341D01*
X104499367Y-66387338D01*
X104540887Y-66287098D01*
X104601166Y-66196886D01*
X104677886Y-66120166D01*
X104768098Y-66059887D01*
X104868338Y-66018367D01*
X104868339Y-66018367D01*
X104868341Y-66018366D01*
X104974750Y-65997200D01*
X105083250Y-65997200D01*
X105189659Y-66018366D01*
G37*
G36*
X103665659Y-65764366D02*
G01*
X103665661Y-65764367D01*
X103665662Y-65764367D01*
X103765902Y-65805887D01*
X103856114Y-65866166D01*
X103932834Y-65942886D01*
X103993113Y-66033098D01*
X104029177Y-66120166D01*
X104034634Y-66133341D01*
X104055800Y-66239750D01*
X104055800Y-66348250D01*
X104047655Y-66389200D01*
X104034633Y-66454662D01*
X103993113Y-66554902D01*
X103932834Y-66645114D01*
X103856114Y-66721834D01*
X103765902Y-66782113D01*
X103665662Y-66823633D01*
X103665661Y-66823633D01*
X103665659Y-66823634D01*
X103559250Y-66844800D01*
X103450750Y-66844800D01*
X103344341Y-66823634D01*
X103344339Y-66823633D01*
X103344338Y-66823633D01*
X103244098Y-66782113D01*
X103153886Y-66721834D01*
X103077166Y-66645114D01*
X103016887Y-66554902D01*
X102975367Y-66454662D01*
X102962346Y-66389200D01*
X102954200Y-66348250D01*
X102954200Y-66239750D01*
X102975366Y-66133341D01*
X102980823Y-66120166D01*
X103016887Y-66033098D01*
X103077166Y-65942886D01*
X103153886Y-65866166D01*
X103244098Y-65805887D01*
X103344338Y-65764367D01*
X103344339Y-65764367D01*
X103344341Y-65764366D01*
X103450750Y-65743200D01*
X103559250Y-65743200D01*
X103665659Y-65764366D01*
G37*
G36*
X102666800Y-66598800D02*
G01*
X102057200Y-66598800D01*
X102057200Y-65227200D01*
X102666800Y-65227200D01*
X102666800Y-66598800D01*
G37*
G36*
X100126800Y-66471800D02*
G01*
X99517200Y-66471800D01*
X99517200Y-65100200D01*
X100126800Y-65100200D01*
X100126800Y-66471800D01*
G37*
G36*
X101142800Y-66471800D02*
G01*
X100533200Y-66471800D01*
X100533200Y-65100200D01*
X101142800Y-65100200D01*
X101142800Y-66471800D01*
G37*
G36*
X97290259Y-65256366D02*
G01*
X97290261Y-65256367D01*
X97290262Y-65256367D01*
X97390502Y-65297887D01*
X97480714Y-65358166D01*
X97557434Y-65434886D01*
X97617713Y-65525098D01*
X97659233Y-65625338D01*
X97680400Y-65731751D01*
X97680400Y-65840249D01*
X97659233Y-65946662D01*
X97617713Y-66046902D01*
X97557434Y-66137114D01*
X97480714Y-66213834D01*
X97390502Y-66274113D01*
X97290262Y-66315633D01*
X97290261Y-66315633D01*
X97290259Y-66315634D01*
X97183850Y-66336800D01*
X97075350Y-66336800D01*
X96968941Y-66315634D01*
X96968939Y-66315633D01*
X96968938Y-66315633D01*
X96868698Y-66274113D01*
X96778486Y-66213834D01*
X96701766Y-66137114D01*
X96641487Y-66046902D01*
X96599967Y-65946662D01*
X96578800Y-65840249D01*
X96578800Y-65731751D01*
X96599967Y-65625338D01*
X96641487Y-65525098D01*
X96701766Y-65434886D01*
X96778486Y-65358166D01*
X96868698Y-65297887D01*
X96968938Y-65256367D01*
X96968939Y-65256367D01*
X96968941Y-65256366D01*
X97075350Y-65235200D01*
X97183850Y-65235200D01*
X97290259Y-65256366D01*
G37*
G36*
X110413800Y-66217800D02*
G01*
X109804200Y-66217800D01*
X109804200Y-64846200D01*
X110413800Y-64846200D01*
X110413800Y-66217800D01*
G37*
G36*
X109397800Y-66217800D02*
G01*
X108788200Y-66217800D01*
X108788200Y-64846200D01*
X109397800Y-64846200D01*
X109397800Y-66217800D01*
G37*
G36*
X108381800Y-66217800D02*
G01*
X107772200Y-66217800D01*
X107772200Y-64846200D01*
X108381800Y-64846200D01*
X108381800Y-66217800D01*
G37*
G36*
X89458800Y-64566800D02*
G01*
X88667799Y-64566800D01*
X88643413Y-64569202D01*
X88619964Y-64576315D01*
X88598353Y-64587866D01*
X88579411Y-64603411D01*
X88563866Y-64622353D01*
X88552315Y-64643964D01*
X88545202Y-64667413D01*
X88542800Y-64691799D01*
X88542800Y-65760800D01*
X85701200Y-65760800D01*
X85701200Y-64759200D01*
X87962201Y-64759200D01*
X87986587Y-64756798D01*
X88010036Y-64749685D01*
X88031647Y-64738134D01*
X88050589Y-64722589D01*
X88066134Y-64703647D01*
X88077685Y-64682036D01*
X88084798Y-64658587D01*
X88087200Y-64634201D01*
X88087200Y-63957200D01*
X89458800Y-63957200D01*
X89458800Y-64566800D01*
G37*
G36*
X78547182Y-64133064D02*
G01*
X78688709Y-64175996D01*
X78688711Y-64175997D01*
X78819139Y-64245712D01*
X78933464Y-64339536D01*
X79027288Y-64453861D01*
X79087655Y-64566800D01*
X79097004Y-64584291D01*
X79139936Y-64725818D01*
X79154432Y-64873000D01*
X79139936Y-65020182D01*
X79115663Y-65100200D01*
X79097003Y-65161711D01*
X79027288Y-65292139D01*
X78933464Y-65406464D01*
X78819139Y-65500288D01*
X78688711Y-65570003D01*
X78688709Y-65570004D01*
X78547182Y-65612936D01*
X78492029Y-65618368D01*
X78436878Y-65623800D01*
X77463122Y-65623800D01*
X77407971Y-65618368D01*
X77352818Y-65612936D01*
X77211291Y-65570004D01*
X77211289Y-65570003D01*
X77080861Y-65500288D01*
X76966536Y-65406464D01*
X76872712Y-65292139D01*
X76802997Y-65161711D01*
X76784338Y-65100200D01*
X76760064Y-65020182D01*
X76745568Y-64873000D01*
X76760064Y-64725818D01*
X76802996Y-64584291D01*
X76812345Y-64566800D01*
X76872712Y-64453861D01*
X76966536Y-64339536D01*
X77080861Y-64245712D01*
X77211289Y-64175997D01*
X77211291Y-64175996D01*
X77352818Y-64133064D01*
X77463122Y-64122200D01*
X78436878Y-64122200D01*
X78547182Y-64133064D01*
G37*
G36*
X81847182Y-64133064D02*
G01*
X81988709Y-64175996D01*
X81988711Y-64175997D01*
X82119139Y-64245712D01*
X82233464Y-64339536D01*
X82327288Y-64453861D01*
X82387655Y-64566800D01*
X82397004Y-64584291D01*
X82439936Y-64725818D01*
X82454432Y-64873000D01*
X82439936Y-65020182D01*
X82415663Y-65100200D01*
X82397003Y-65161711D01*
X82327288Y-65292139D01*
X82233464Y-65406464D01*
X82119139Y-65500288D01*
X81988711Y-65570003D01*
X81988709Y-65570004D01*
X81847182Y-65612936D01*
X81792029Y-65618368D01*
X81736878Y-65623800D01*
X80763122Y-65623800D01*
X80707971Y-65618368D01*
X80652818Y-65612936D01*
X80511291Y-65570004D01*
X80511289Y-65570003D01*
X80380861Y-65500288D01*
X80266536Y-65406464D01*
X80172712Y-65292139D01*
X80102997Y-65161711D01*
X80084338Y-65100200D01*
X80060064Y-65020182D01*
X80045568Y-64873000D01*
X80060064Y-64725818D01*
X80102996Y-64584291D01*
X80112345Y-64566800D01*
X80172712Y-64453861D01*
X80266536Y-64339536D01*
X80380861Y-64245712D01*
X80511289Y-64175997D01*
X80511291Y-64175996D01*
X80652818Y-64133064D01*
X80763122Y-64122200D01*
X81736878Y-64122200D01*
X81847182Y-64133064D01*
G37*
G36*
X112318800Y-65328800D02*
G01*
X110947200Y-65328800D01*
X110947200Y-64719200D01*
X112318800Y-64719200D01*
X112318800Y-65328800D01*
G37*
G36*
X115239800Y-65328800D02*
G01*
X113868200Y-65328800D01*
X113868200Y-64719200D01*
X115239800Y-64719200D01*
X115239800Y-65328800D01*
G37*
G36*
X107238800Y-65328800D02*
G01*
X105867200Y-65328800D01*
X105867200Y-64719200D01*
X107238800Y-64719200D01*
X107238800Y-65328800D01*
G37*
G36*
X94665800Y-65074800D02*
G01*
X94056200Y-65074800D01*
X94056200Y-63703200D01*
X94665800Y-63703200D01*
X94665800Y-65074800D01*
G37*
G36*
X98331659Y-63986366D02*
G01*
X98331661Y-63986367D01*
X98331662Y-63986367D01*
X98431902Y-64027887D01*
X98522114Y-64088166D01*
X98598834Y-64164886D01*
X98659113Y-64255098D01*
X98700633Y-64355338D01*
X98700634Y-64355341D01*
X98721800Y-64461750D01*
X98721800Y-64570250D01*
X98704229Y-64658587D01*
X98700633Y-64676662D01*
X98659113Y-64776902D01*
X98598834Y-64867114D01*
X98522114Y-64943834D01*
X98431902Y-65004113D01*
X98331662Y-65045633D01*
X98331661Y-65045633D01*
X98331659Y-65045634D01*
X98225250Y-65066800D01*
X98116750Y-65066800D01*
X98010341Y-65045634D01*
X98010339Y-65045633D01*
X98010338Y-65045633D01*
X97910098Y-65004113D01*
X97819886Y-64943834D01*
X97743166Y-64867114D01*
X97682887Y-64776902D01*
X97641367Y-64676662D01*
X97637772Y-64658587D01*
X97620200Y-64570250D01*
X97620200Y-64461750D01*
X97641366Y-64355341D01*
X97641367Y-64355338D01*
X97682887Y-64255098D01*
X97743166Y-64164886D01*
X97819886Y-64088166D01*
X97910098Y-64027887D01*
X98010338Y-63986367D01*
X98010339Y-63986367D01*
X98010341Y-63986366D01*
X98116750Y-63965200D01*
X98225250Y-63965200D01*
X98331659Y-63986366D01*
G37*
G36*
X105206800Y-64566800D02*
G01*
X104597200Y-64566800D01*
X104597200Y-63195200D01*
X105206800Y-63195200D01*
X105206800Y-64566800D01*
G37*
G36*
X113842800Y-64312800D02*
G01*
X112471200Y-64312800D01*
X112471200Y-63703200D01*
X113842800Y-63703200D01*
X113842800Y-64312800D01*
G37*
G36*
X116494996Y-62835674D02*
G01*
X116545843Y-62856736D01*
X116596692Y-62877798D01*
X116688212Y-62938949D01*
X116766051Y-63016788D01*
X116827202Y-63108308D01*
X116869326Y-63210005D01*
X116890800Y-63317962D01*
X116890800Y-63428038D01*
X116869326Y-63535995D01*
X116827202Y-63637692D01*
X116766051Y-63729212D01*
X116688212Y-63807051D01*
X116596692Y-63868202D01*
X116545843Y-63889264D01*
X116494996Y-63910326D01*
X116387038Y-63931800D01*
X116276962Y-63931800D01*
X116169004Y-63910326D01*
X116118157Y-63889264D01*
X116067308Y-63868202D01*
X115975788Y-63807051D01*
X115897949Y-63729212D01*
X115836798Y-63637692D01*
X115794674Y-63535995D01*
X115773200Y-63428038D01*
X115773200Y-63317962D01*
X115794674Y-63210005D01*
X115836798Y-63108308D01*
X115897949Y-63016788D01*
X115975788Y-62938949D01*
X116067308Y-62877798D01*
X116118157Y-62856736D01*
X116169004Y-62835674D01*
X116276962Y-62814200D01*
X116387038Y-62814200D01*
X116494996Y-62835674D01*
G37*
G36*
X101396800Y-63804800D02*
G01*
X100787200Y-63804800D01*
X100787200Y-62433200D01*
X101396800Y-62433200D01*
X101396800Y-63804800D01*
G37*
G36*
X104063800Y-63677800D02*
G01*
X102692200Y-63677800D01*
X102692200Y-63068200D01*
X104063800Y-63068200D01*
X104063800Y-63677800D01*
G37*
G36*
X113969800Y-63169800D02*
G01*
X113360200Y-63169800D01*
X113360200Y-61798200D01*
X113969800Y-61798200D01*
X113969800Y-63169800D01*
G37*
G36*
X90474800Y-63169800D02*
G01*
X89103200Y-63169800D01*
X89103200Y-62560200D01*
X90474800Y-62560200D01*
X90474800Y-63169800D01*
G37*
G36*
X112953800Y-63169800D02*
G01*
X112344200Y-63169800D01*
X112344200Y-61798200D01*
X112953800Y-61798200D01*
X112953800Y-63169800D01*
G37*
G36*
X79916659Y-61700366D02*
G01*
X79916661Y-61700367D01*
X79916662Y-61700367D01*
X80016902Y-61741887D01*
X80107114Y-61802166D01*
X80183834Y-61878886D01*
X80244113Y-61969098D01*
X80285633Y-62069338D01*
X80306800Y-62175751D01*
X80306800Y-62284249D01*
X80285633Y-62390662D01*
X80244113Y-62490902D01*
X80183834Y-62581114D01*
X80107114Y-62657834D01*
X80016902Y-62718113D01*
X79916662Y-62759633D01*
X79916661Y-62759633D01*
X79916659Y-62759634D01*
X79810250Y-62780800D01*
X79701750Y-62780800D01*
X79595341Y-62759634D01*
X79595339Y-62759633D01*
X79595338Y-62759633D01*
X79495098Y-62718113D01*
X79404886Y-62657834D01*
X79328166Y-62581114D01*
X79267887Y-62490902D01*
X79226367Y-62390662D01*
X79205200Y-62284249D01*
X79205200Y-62175751D01*
X79226367Y-62069338D01*
X79267887Y-61969098D01*
X79328166Y-61878886D01*
X79404886Y-61802166D01*
X79495098Y-61741887D01*
X79595338Y-61700367D01*
X79595339Y-61700367D01*
X79595341Y-61700366D01*
X79701750Y-61679200D01*
X79810250Y-61679200D01*
X79916659Y-61700366D01*
G37*
G36*
X90920800Y-62199800D02*
G01*
X89419200Y-62199800D01*
X89419200Y-61498200D01*
X90920800Y-61498200D01*
X90920800Y-62199800D01*
G37*
G36*
X93141800Y-62026800D02*
G01*
X92532200Y-62026800D01*
X92532200Y-60655200D01*
X93141800Y-60655200D01*
X93141800Y-62026800D01*
G37*
G36*
X107950800Y-61960800D02*
G01*
X107299200Y-61960800D01*
X107299200Y-60559200D01*
X107950800Y-60559200D01*
X107950800Y-61960800D01*
G37*
G36*
X110600800Y-61960800D02*
G01*
X109949200Y-61960800D01*
X109949200Y-60559200D01*
X110600800Y-60559200D01*
X110600800Y-61960800D01*
G37*
G36*
X84450800Y-61950800D02*
G01*
X83799200Y-61950800D01*
X83799200Y-60549200D01*
X84450800Y-60549200D01*
X84450800Y-61950800D01*
G37*
G36*
X87100800Y-61950800D02*
G01*
X86449200Y-61950800D01*
X86449200Y-60549200D01*
X87100800Y-60549200D01*
X87100800Y-61950800D01*
G37*
G36*
X92171800Y-61837800D02*
G01*
X91470200Y-61837800D01*
X91470200Y-60336200D01*
X92171800Y-60336200D01*
X92171800Y-61837800D01*
G37*
G36*
X111793659Y-60430366D02*
G01*
X111793661Y-60430367D01*
X111793662Y-60430367D01*
X111893902Y-60471887D01*
X111984114Y-60532166D01*
X112060834Y-60608886D01*
X112121113Y-60699098D01*
X112162633Y-60799338D01*
X112183800Y-60905751D01*
X112183800Y-61014249D01*
X112162633Y-61120662D01*
X112121113Y-61220902D01*
X112060834Y-61311114D01*
X111984114Y-61387834D01*
X111893902Y-61448113D01*
X111793662Y-61489633D01*
X111793661Y-61489633D01*
X111793659Y-61489634D01*
X111687250Y-61510800D01*
X111578750Y-61510800D01*
X111472341Y-61489634D01*
X111472339Y-61489633D01*
X111472338Y-61489633D01*
X111372098Y-61448113D01*
X111281886Y-61387834D01*
X111205166Y-61311114D01*
X111144887Y-61220902D01*
X111103367Y-61120662D01*
X111082200Y-61014249D01*
X111082200Y-60905751D01*
X111103367Y-60799338D01*
X111144887Y-60699098D01*
X111205166Y-60608886D01*
X111281886Y-60532166D01*
X111372098Y-60471887D01*
X111472338Y-60430367D01*
X111472339Y-60430367D01*
X111472341Y-60430366D01*
X111578750Y-60409200D01*
X111687250Y-60409200D01*
X111793659Y-60430366D01*
G37*
G36*
X114985800Y-61391800D02*
G01*
X114376200Y-61391800D01*
X114376200Y-60020200D01*
X114985800Y-60020200D01*
X114985800Y-61391800D01*
G37*
G36*
X117017800Y-61391800D02*
G01*
X116408200Y-61391800D01*
X116408200Y-60020200D01*
X117017800Y-60020200D01*
X117017800Y-61391800D01*
G37*
G36*
X116001800Y-61391800D02*
G01*
X115392200Y-61391800D01*
X115392200Y-60020200D01*
X116001800Y-60020200D01*
X116001800Y-61391800D01*
G37*
G36*
X105652800Y-60294800D02*
G01*
X104151200Y-60294800D01*
X104151200Y-59593200D01*
X105652800Y-59593200D01*
X105652800Y-60294800D01*
G37*
G36*
X103239800Y-60294800D02*
G01*
X101738200Y-60294800D01*
X101738200Y-59593200D01*
X103239800Y-59593200D01*
X103239800Y-60294800D01*
G37*
G36*
X107053725Y-58824065D02*
G01*
X107118440Y-58850871D01*
X107176682Y-58889787D01*
X107226213Y-58939318D01*
X107265129Y-58997560D01*
X107291935Y-59062275D01*
X107305600Y-59130976D01*
X107305600Y-59201024D01*
X107291935Y-59269725D01*
X107265129Y-59334440D01*
X107226213Y-59392682D01*
X107176682Y-59442213D01*
X107118440Y-59481129D01*
X107053725Y-59507935D01*
X106985024Y-59521600D01*
X106914976Y-59521600D01*
X106846275Y-59507935D01*
X106781560Y-59481129D01*
X106723318Y-59442213D01*
X106673787Y-59392682D01*
X106634871Y-59334440D01*
X106608065Y-59269725D01*
X106594400Y-59201024D01*
X106594400Y-59130976D01*
X106608065Y-59062275D01*
X106634871Y-58997560D01*
X106673787Y-58939318D01*
X106723318Y-58889787D01*
X106781560Y-58850871D01*
X106846275Y-58824065D01*
X106914976Y-58810400D01*
X106985024Y-58810400D01*
X107053725Y-58824065D01*
G37*
G36*
X108053725Y-58824065D02*
G01*
X108118440Y-58850871D01*
X108176682Y-58889787D01*
X108226213Y-58939318D01*
X108265129Y-58997560D01*
X108291935Y-59062275D01*
X108305600Y-59130976D01*
X108305600Y-59201024D01*
X108291935Y-59269725D01*
X108265129Y-59334440D01*
X108226213Y-59392682D01*
X108176682Y-59442213D01*
X108118440Y-59481129D01*
X108053725Y-59507935D01*
X107985024Y-59521600D01*
X107914976Y-59521600D01*
X107846275Y-59507935D01*
X107781560Y-59481129D01*
X107723318Y-59442213D01*
X107673787Y-59392682D01*
X107634871Y-59334440D01*
X107608065Y-59269725D01*
X107594400Y-59201024D01*
X107594400Y-59130976D01*
X107608065Y-59062275D01*
X107634871Y-58997560D01*
X107673787Y-58939318D01*
X107723318Y-58889787D01*
X107781560Y-58850871D01*
X107846275Y-58824065D01*
X107914976Y-58810400D01*
X107985024Y-58810400D01*
X108053725Y-58824065D01*
G37*
G36*
X109053725Y-58824065D02*
G01*
X109118440Y-58850871D01*
X109176682Y-58889787D01*
X109226213Y-58939318D01*
X109265129Y-58997560D01*
X109291935Y-59062275D01*
X109305600Y-59130976D01*
X109305600Y-59201024D01*
X109291935Y-59269725D01*
X109265129Y-59334440D01*
X109226213Y-59392682D01*
X109176682Y-59442213D01*
X109118440Y-59481129D01*
X109053725Y-59507935D01*
X108985024Y-59521600D01*
X108914976Y-59521600D01*
X108846275Y-59507935D01*
X108781560Y-59481129D01*
X108723318Y-59442213D01*
X108673787Y-59392682D01*
X108634871Y-59334440D01*
X108608065Y-59269725D01*
X108594400Y-59201024D01*
X108594400Y-59130976D01*
X108608065Y-59062275D01*
X108634871Y-58997560D01*
X108673787Y-58939318D01*
X108723318Y-58889787D01*
X108781560Y-58850871D01*
X108846275Y-58824065D01*
X108914976Y-58810400D01*
X108985024Y-58810400D01*
X109053725Y-58824065D01*
G37*
G36*
X99525459Y-57610966D02*
G01*
X99525461Y-57610967D01*
X99525462Y-57610967D01*
X99625702Y-57652487D01*
X99715914Y-57712766D01*
X99792634Y-57789486D01*
X99852913Y-57879698D01*
X99894433Y-57979938D01*
X99894434Y-57979941D01*
X99904604Y-58031068D01*
X99911717Y-58054517D01*
X99923268Y-58076127D01*
X99938813Y-58095069D01*
X99957755Y-58110615D01*
X99979366Y-58122166D01*
X100002814Y-58129279D01*
X100027201Y-58131681D01*
X100051587Y-58129279D01*
X100075036Y-58122166D01*
X100096646Y-58110615D01*
X100115588Y-58095070D01*
X100131134Y-58076128D01*
X100142685Y-58054517D01*
X100149798Y-58031069D01*
X100152200Y-58006682D01*
X100152200Y-57734200D01*
X100761800Y-57734200D01*
X100761800Y-59105800D01*
X100152200Y-59105800D01*
X100152200Y-58274518D01*
X100149798Y-58250132D01*
X100142685Y-58226683D01*
X100131134Y-58205072D01*
X100115589Y-58186130D01*
X100096647Y-58170585D01*
X100075036Y-58159034D01*
X100051587Y-58151921D01*
X100027201Y-58149519D01*
X100002815Y-58151921D01*
X99979366Y-58159034D01*
X99957755Y-58170585D01*
X99938813Y-58186130D01*
X99923268Y-58205072D01*
X99911717Y-58226683D01*
X99904604Y-58250132D01*
X99899753Y-58274518D01*
X99894433Y-58301262D01*
X99852913Y-58401502D01*
X99792634Y-58491714D01*
X99715914Y-58568434D01*
X99625702Y-58628713D01*
X99525462Y-58670233D01*
X99525461Y-58670233D01*
X99525459Y-58670234D01*
X99419050Y-58691400D01*
X99310550Y-58691400D01*
X99204141Y-58670234D01*
X99204139Y-58670233D01*
X99204138Y-58670233D01*
X99103898Y-58628713D01*
X99013686Y-58568434D01*
X98936966Y-58491714D01*
X98876687Y-58401502D01*
X98835167Y-58301262D01*
X98829568Y-58273113D01*
X98814000Y-58194850D01*
X98814000Y-58086350D01*
X98835166Y-57979941D01*
X98835167Y-57979938D01*
X98876687Y-57879698D01*
X98936966Y-57789486D01*
X99013686Y-57712766D01*
X99103898Y-57652487D01*
X99204138Y-57610967D01*
X99204139Y-57610967D01*
X99204141Y-57610966D01*
X99310550Y-57589800D01*
X99419050Y-57589800D01*
X99525459Y-57610966D01*
G37*
G36*
X83015459Y-51235566D02*
G01*
X83015461Y-51235567D01*
X83015462Y-51235567D01*
X83115702Y-51277087D01*
X83205914Y-51337366D01*
X83282634Y-51414086D01*
X83342913Y-51504298D01*
X83384433Y-51604538D01*
X83384434Y-51604541D01*
X83403263Y-51699200D01*
X83405600Y-51710951D01*
X83405600Y-51819449D01*
X83384433Y-51925862D01*
X83342913Y-52026102D01*
X83282634Y-52116314D01*
X83205914Y-52193034D01*
X83115702Y-52253313D01*
X83015462Y-52294833D01*
X83015461Y-52294833D01*
X83015459Y-52294834D01*
X82974392Y-52303003D01*
X82950943Y-52310116D01*
X82929333Y-52321667D01*
X82910391Y-52337212D01*
X82894845Y-52356154D01*
X82883294Y-52377765D01*
X82876181Y-52401213D01*
X82873779Y-52425600D01*
X82876181Y-52449986D01*
X82883294Y-52473435D01*
X82894845Y-52495045D01*
X82910390Y-52513987D01*
X82929332Y-52529533D01*
X82950943Y-52541084D01*
X82974392Y-52548197D01*
X83015459Y-52556366D01*
X83015461Y-52556367D01*
X83015462Y-52556367D01*
X83115702Y-52597887D01*
X83205914Y-52658166D01*
X83282634Y-52734886D01*
X83342913Y-52825098D01*
X83384433Y-52925338D01*
X83405600Y-53031751D01*
X83405600Y-53140249D01*
X83384433Y-53246662D01*
X83342913Y-53346902D01*
X83282634Y-53437114D01*
X83205914Y-53513834D01*
X83115702Y-53574113D01*
X83015462Y-53615633D01*
X83015461Y-53615633D01*
X83015459Y-53615634D01*
X82974392Y-53623803D01*
X82950943Y-53630916D01*
X82929333Y-53642467D01*
X82910391Y-53658012D01*
X82894845Y-53676954D01*
X82883294Y-53698565D01*
X82876181Y-53722013D01*
X82873779Y-53746400D01*
X82876181Y-53770786D01*
X82883294Y-53794235D01*
X82894845Y-53815845D01*
X82910390Y-53834787D01*
X82929332Y-53850333D01*
X82950943Y-53861884D01*
X82974392Y-53868997D01*
X83015459Y-53877166D01*
X83015461Y-53877167D01*
X83015462Y-53877167D01*
X83115702Y-53918687D01*
X83205914Y-53978966D01*
X83282634Y-54055686D01*
X83342913Y-54145898D01*
X83384433Y-54246138D01*
X83405600Y-54352551D01*
X83405600Y-54461049D01*
X83384433Y-54567462D01*
X83342913Y-54667702D01*
X83282634Y-54757914D01*
X83205914Y-54834634D01*
X83115702Y-54894913D01*
X83015462Y-54936433D01*
X83015461Y-54936433D01*
X83015459Y-54936434D01*
X82974392Y-54944603D01*
X82950943Y-54951716D01*
X82929333Y-54963267D01*
X82910391Y-54978812D01*
X82894845Y-54997754D01*
X82883294Y-55019365D01*
X82876181Y-55042813D01*
X82873779Y-55067200D01*
X82876181Y-55091586D01*
X82883294Y-55115035D01*
X82894845Y-55136645D01*
X82910390Y-55155587D01*
X82929332Y-55171133D01*
X82950943Y-55182684D01*
X82974392Y-55189797D01*
X83015459Y-55197966D01*
X83015461Y-55197967D01*
X83015462Y-55197967D01*
X83115702Y-55239487D01*
X83205914Y-55299766D01*
X83282634Y-55376486D01*
X83342913Y-55466698D01*
X83364530Y-55518888D01*
X83384434Y-55566941D01*
X83405600Y-55673350D01*
X83405600Y-55781850D01*
X83392773Y-55846338D01*
X83384433Y-55888262D01*
X83342913Y-55988502D01*
X83282634Y-56078714D01*
X83205914Y-56155434D01*
X83115702Y-56215713D01*
X83015462Y-56257233D01*
X83015461Y-56257233D01*
X83015459Y-56257234D01*
X82974392Y-56265403D01*
X82950943Y-56272516D01*
X82929333Y-56284067D01*
X82910391Y-56299612D01*
X82894845Y-56318554D01*
X82883294Y-56340165D01*
X82876181Y-56363613D01*
X82873779Y-56388000D01*
X82876181Y-56412386D01*
X82883294Y-56435835D01*
X82894845Y-56457445D01*
X82910390Y-56476387D01*
X82929332Y-56491933D01*
X82950943Y-56503484D01*
X82974392Y-56510597D01*
X83015459Y-56518766D01*
X83015461Y-56518767D01*
X83015462Y-56518767D01*
X83115702Y-56560287D01*
X83205914Y-56620566D01*
X83282634Y-56697286D01*
X83342913Y-56787498D01*
X83384433Y-56887738D01*
X83384434Y-56887741D01*
X83405600Y-56994150D01*
X83405600Y-57102650D01*
X83390033Y-57180913D01*
X83384433Y-57209062D01*
X83342913Y-57309302D01*
X83282634Y-57399514D01*
X83205914Y-57476234D01*
X83115702Y-57536513D01*
X83015462Y-57578033D01*
X83015461Y-57578033D01*
X83015459Y-57578034D01*
X82974392Y-57586203D01*
X82950943Y-57593316D01*
X82929333Y-57604867D01*
X82910391Y-57620412D01*
X82894845Y-57639354D01*
X82883294Y-57660965D01*
X82876181Y-57684413D01*
X82873779Y-57708800D01*
X82876181Y-57733186D01*
X82883294Y-57756635D01*
X82894845Y-57778245D01*
X82910390Y-57797187D01*
X82929332Y-57812733D01*
X82950943Y-57824284D01*
X82974392Y-57831397D01*
X83015459Y-57839566D01*
X83015461Y-57839567D01*
X83015462Y-57839567D01*
X83115702Y-57881087D01*
X83205914Y-57941366D01*
X83282634Y-58018086D01*
X83342913Y-58108298D01*
X83382997Y-58205072D01*
X83384434Y-58208541D01*
X83405600Y-58314950D01*
X83405600Y-58423450D01*
X83386077Y-58521600D01*
X83384433Y-58529862D01*
X83342913Y-58630102D01*
X83282634Y-58720314D01*
X83205914Y-58797034D01*
X83115702Y-58857313D01*
X83015462Y-58898833D01*
X83015461Y-58898833D01*
X83015459Y-58898834D01*
X82909050Y-58920000D01*
X82800550Y-58920000D01*
X82694141Y-58898834D01*
X82694139Y-58898833D01*
X82694138Y-58898833D01*
X82593898Y-58857313D01*
X82503686Y-58797034D01*
X82426966Y-58720314D01*
X82366687Y-58630102D01*
X82325167Y-58529862D01*
X82323524Y-58521600D01*
X82304000Y-58423450D01*
X82304000Y-58314950D01*
X82325166Y-58208541D01*
X82326603Y-58205072D01*
X82366687Y-58108298D01*
X82426966Y-58018086D01*
X82503686Y-57941366D01*
X82593898Y-57881087D01*
X82694138Y-57839567D01*
X82694139Y-57839567D01*
X82694141Y-57839566D01*
X82735208Y-57831397D01*
X82758657Y-57824284D01*
X82780267Y-57812733D01*
X82799209Y-57797188D01*
X82814755Y-57778246D01*
X82826306Y-57756635D01*
X82833419Y-57733187D01*
X82835821Y-57708800D01*
X82833419Y-57684414D01*
X82826306Y-57660965D01*
X82814755Y-57639355D01*
X82799210Y-57620413D01*
X82780268Y-57604867D01*
X82758657Y-57593316D01*
X82735208Y-57586203D01*
X82694141Y-57578034D01*
X82694139Y-57578033D01*
X82694138Y-57578033D01*
X82593898Y-57536513D01*
X82503686Y-57476234D01*
X82426966Y-57399514D01*
X82366687Y-57309302D01*
X82325167Y-57209062D01*
X82319568Y-57180913D01*
X82304000Y-57102650D01*
X82304000Y-56994150D01*
X82325166Y-56887741D01*
X82325167Y-56887738D01*
X82366687Y-56787498D01*
X82426966Y-56697286D01*
X82503686Y-56620566D01*
X82593898Y-56560287D01*
X82694138Y-56518767D01*
X82694139Y-56518767D01*
X82694141Y-56518766D01*
X82735208Y-56510597D01*
X82758657Y-56503484D01*
X82780267Y-56491933D01*
X82799209Y-56476388D01*
X82814755Y-56457446D01*
X82826306Y-56435835D01*
X82833419Y-56412387D01*
X82835821Y-56388000D01*
X82833419Y-56363614D01*
X82826306Y-56340165D01*
X82814755Y-56318555D01*
X82799210Y-56299613D01*
X82780268Y-56284067D01*
X82758657Y-56272516D01*
X82735208Y-56265403D01*
X82694141Y-56257234D01*
X82694139Y-56257233D01*
X82694138Y-56257233D01*
X82593898Y-56215713D01*
X82503686Y-56155434D01*
X82426966Y-56078714D01*
X82366687Y-55988502D01*
X82325167Y-55888262D01*
X82316828Y-55846338D01*
X82304000Y-55781850D01*
X82304000Y-55673350D01*
X82325166Y-55566941D01*
X82345070Y-55518888D01*
X82366687Y-55466698D01*
X82426966Y-55376486D01*
X82503686Y-55299766D01*
X82593898Y-55239487D01*
X82694138Y-55197967D01*
X82694139Y-55197967D01*
X82694141Y-55197966D01*
X82735208Y-55189797D01*
X82758657Y-55182684D01*
X82780267Y-55171133D01*
X82799209Y-55155588D01*
X82814755Y-55136646D01*
X82826306Y-55115035D01*
X82833419Y-55091587D01*
X82835821Y-55067200D01*
X82833419Y-55042814D01*
X82826306Y-55019365D01*
X82814755Y-54997755D01*
X82799210Y-54978813D01*
X82780268Y-54963267D01*
X82758657Y-54951716D01*
X82735208Y-54944603D01*
X82694141Y-54936434D01*
X82694139Y-54936433D01*
X82694138Y-54936433D01*
X82593898Y-54894913D01*
X82503686Y-54834634D01*
X82426966Y-54757914D01*
X82366687Y-54667702D01*
X82325167Y-54567462D01*
X82304000Y-54461049D01*
X82304000Y-54352551D01*
X82325167Y-54246138D01*
X82366687Y-54145898D01*
X82426966Y-54055686D01*
X82503686Y-53978966D01*
X82593898Y-53918687D01*
X82694138Y-53877167D01*
X82694139Y-53877167D01*
X82694141Y-53877166D01*
X82735208Y-53868997D01*
X82758657Y-53861884D01*
X82780267Y-53850333D01*
X82799209Y-53834788D01*
X82814755Y-53815846D01*
X82826306Y-53794235D01*
X82833419Y-53770787D01*
X82835821Y-53746400D01*
X82833419Y-53722014D01*
X82826306Y-53698565D01*
X82814755Y-53676955D01*
X82799210Y-53658013D01*
X82780268Y-53642467D01*
X82758657Y-53630916D01*
X82735208Y-53623803D01*
X82694141Y-53615634D01*
X82694139Y-53615633D01*
X82694138Y-53615633D01*
X82593898Y-53574113D01*
X82503686Y-53513834D01*
X82426966Y-53437114D01*
X82366687Y-53346902D01*
X82325167Y-53246662D01*
X82304000Y-53140249D01*
X82304000Y-53031751D01*
X82325167Y-52925338D01*
X82366687Y-52825098D01*
X82426966Y-52734886D01*
X82503686Y-52658166D01*
X82593898Y-52597887D01*
X82694138Y-52556367D01*
X82694139Y-52556367D01*
X82694141Y-52556366D01*
X82735208Y-52548197D01*
X82758657Y-52541084D01*
X82780267Y-52529533D01*
X82799209Y-52513988D01*
X82814755Y-52495046D01*
X82826306Y-52473435D01*
X82833419Y-52449987D01*
X82835821Y-52425600D01*
X82833419Y-52401214D01*
X82826306Y-52377765D01*
X82814755Y-52356155D01*
X82799210Y-52337213D01*
X82780268Y-52321667D01*
X82758657Y-52310116D01*
X82735208Y-52303003D01*
X82694141Y-52294834D01*
X82694139Y-52294833D01*
X82694138Y-52294833D01*
X82593898Y-52253313D01*
X82503686Y-52193034D01*
X82426966Y-52116314D01*
X82366687Y-52026102D01*
X82325167Y-51925862D01*
X82304000Y-51819449D01*
X82304000Y-51710951D01*
X82306337Y-51699200D01*
X82325166Y-51604541D01*
X82325167Y-51604538D01*
X82366687Y-51504298D01*
X82426966Y-51414086D01*
X82503686Y-51337366D01*
X82593898Y-51277087D01*
X82694138Y-51235567D01*
X82694139Y-51235567D01*
X82694141Y-51235566D01*
X82800550Y-51214400D01*
X82909050Y-51214400D01*
X83015459Y-51235566D01*
G37*
G36*
X109053725Y-57824065D02*
G01*
X109118440Y-57850871D01*
X109176682Y-57889787D01*
X109226213Y-57939318D01*
X109265129Y-57997560D01*
X109291935Y-58062275D01*
X109305600Y-58130976D01*
X109305600Y-58201024D01*
X109291935Y-58269725D01*
X109265129Y-58334440D01*
X109226213Y-58392682D01*
X109176682Y-58442213D01*
X109118440Y-58481129D01*
X109053725Y-58507935D01*
X108985024Y-58521600D01*
X108914976Y-58521600D01*
X108846275Y-58507935D01*
X108781560Y-58481129D01*
X108723318Y-58442213D01*
X108673787Y-58392682D01*
X108634871Y-58334440D01*
X108608065Y-58269725D01*
X108594400Y-58201024D01*
X108594400Y-58130976D01*
X108608065Y-58062275D01*
X108634871Y-57997560D01*
X108673787Y-57939318D01*
X108723318Y-57889787D01*
X108781560Y-57850871D01*
X108846275Y-57824065D01*
X108914976Y-57810400D01*
X108985024Y-57810400D01*
X109053725Y-57824065D01*
G37*
G36*
X108053725Y-57824065D02*
G01*
X108118440Y-57850871D01*
X108176682Y-57889787D01*
X108226213Y-57939318D01*
X108265129Y-57997560D01*
X108291935Y-58062275D01*
X108305600Y-58130976D01*
X108305600Y-58201024D01*
X108291935Y-58269725D01*
X108265129Y-58334440D01*
X108226213Y-58392682D01*
X108176682Y-58442213D01*
X108118440Y-58481129D01*
X108053725Y-58507935D01*
X107985024Y-58521600D01*
X107914976Y-58521600D01*
X107846275Y-58507935D01*
X107781560Y-58481129D01*
X107723318Y-58442213D01*
X107673787Y-58392682D01*
X107634871Y-58334440D01*
X107608065Y-58269725D01*
X107594400Y-58201024D01*
X107594400Y-58130976D01*
X107608065Y-58062275D01*
X107634871Y-57997560D01*
X107673787Y-57939318D01*
X107723318Y-57889787D01*
X107781560Y-57850871D01*
X107846275Y-57824065D01*
X107914976Y-57810400D01*
X107985024Y-57810400D01*
X108053725Y-57824065D01*
G37*
G36*
X107053725Y-57824065D02*
G01*
X107118440Y-57850871D01*
X107176682Y-57889787D01*
X107226213Y-57939318D01*
X107265129Y-57997560D01*
X107291935Y-58062275D01*
X107305600Y-58130976D01*
X107305600Y-58201024D01*
X107291935Y-58269725D01*
X107265129Y-58334440D01*
X107226213Y-58392682D01*
X107176682Y-58442213D01*
X107118440Y-58481129D01*
X107053725Y-58507935D01*
X106985024Y-58521600D01*
X106914976Y-58521600D01*
X106846275Y-58507935D01*
X106781560Y-58481129D01*
X106723318Y-58442213D01*
X106673787Y-58392682D01*
X106634871Y-58334440D01*
X106608065Y-58269725D01*
X106594400Y-58201024D01*
X106594400Y-58130976D01*
X106608065Y-58062275D01*
X106634871Y-57997560D01*
X106673787Y-57939318D01*
X106723318Y-57889787D01*
X106781560Y-57850871D01*
X106846275Y-57824065D01*
X106914976Y-57810400D01*
X106985024Y-57810400D01*
X107053725Y-57824065D01*
G37*
G36*
X92616659Y-57255366D02*
G01*
X92616661Y-57255367D01*
X92616662Y-57255367D01*
X92716902Y-57296887D01*
X92807114Y-57357166D01*
X92883834Y-57433886D01*
X92944113Y-57524098D01*
X92984007Y-57620412D01*
X92985634Y-57624341D01*
X93006800Y-57730750D01*
X93006800Y-57839250D01*
X92996748Y-57889787D01*
X92985633Y-57945662D01*
X92944113Y-58045902D01*
X92883834Y-58136114D01*
X92807114Y-58212834D01*
X92716902Y-58273113D01*
X92616662Y-58314633D01*
X92616661Y-58314633D01*
X92616659Y-58314634D01*
X92510250Y-58335800D01*
X92401750Y-58335800D01*
X92295341Y-58314634D01*
X92295339Y-58314633D01*
X92295338Y-58314633D01*
X92195098Y-58273113D01*
X92104886Y-58212834D01*
X92028166Y-58136114D01*
X91967887Y-58045902D01*
X91926367Y-57945662D01*
X91915253Y-57889787D01*
X91905200Y-57839250D01*
X91905200Y-57730750D01*
X91926366Y-57624341D01*
X91927993Y-57620412D01*
X91967887Y-57524098D01*
X92028166Y-57433886D01*
X92104886Y-57357166D01*
X92195098Y-57296887D01*
X92295338Y-57255367D01*
X92295339Y-57255367D01*
X92295341Y-57255366D01*
X92401750Y-57234200D01*
X92510250Y-57234200D01*
X92616659Y-57255366D01*
G37*
G36*
X81350800Y-58100800D02*
G01*
X79949200Y-58100800D01*
X79949200Y-57449200D01*
X81350800Y-57449200D01*
X81350800Y-58100800D01*
G37*
G36*
X90950800Y-58100800D02*
G01*
X89549200Y-58100800D01*
X89549200Y-57449200D01*
X90950800Y-57449200D01*
X90950800Y-58100800D01*
G37*
G36*
X104850800Y-58100800D02*
G01*
X103449200Y-58100800D01*
X103449200Y-57449200D01*
X104850800Y-57449200D01*
X104850800Y-58100800D01*
G37*
G36*
X114450800Y-58100800D02*
G01*
X113049200Y-58100800D01*
X113049200Y-57449200D01*
X114450800Y-57449200D01*
X114450800Y-58100800D01*
G37*
G36*
X107053725Y-56824065D02*
G01*
X107118440Y-56850871D01*
X107176682Y-56889787D01*
X107226213Y-56939318D01*
X107265129Y-56997560D01*
X107291935Y-57062275D01*
X107305600Y-57130976D01*
X107305600Y-57201024D01*
X107291935Y-57269725D01*
X107265129Y-57334440D01*
X107226213Y-57392682D01*
X107176682Y-57442213D01*
X107118440Y-57481129D01*
X107053725Y-57507935D01*
X106985024Y-57521600D01*
X106914976Y-57521600D01*
X106846275Y-57507935D01*
X106781560Y-57481129D01*
X106723318Y-57442213D01*
X106673787Y-57392682D01*
X106634871Y-57334440D01*
X106608065Y-57269725D01*
X106594400Y-57201024D01*
X106594400Y-57130976D01*
X106608065Y-57062275D01*
X106634871Y-56997560D01*
X106673787Y-56939318D01*
X106723318Y-56889787D01*
X106781560Y-56850871D01*
X106846275Y-56824065D01*
X106914976Y-56810400D01*
X106985024Y-56810400D01*
X107053725Y-56824065D01*
G37*
G36*
X108053725Y-56824065D02*
G01*
X108118440Y-56850871D01*
X108176682Y-56889787D01*
X108226213Y-56939318D01*
X108265129Y-56997560D01*
X108291935Y-57062275D01*
X108305600Y-57130976D01*
X108305600Y-57201024D01*
X108291935Y-57269725D01*
X108265129Y-57334440D01*
X108226213Y-57392682D01*
X108176682Y-57442213D01*
X108118440Y-57481129D01*
X108053725Y-57507935D01*
X107985024Y-57521600D01*
X107914976Y-57521600D01*
X107846275Y-57507935D01*
X107781560Y-57481129D01*
X107723318Y-57442213D01*
X107673787Y-57392682D01*
X107634871Y-57334440D01*
X107608065Y-57269725D01*
X107594400Y-57201024D01*
X107594400Y-57130976D01*
X107608065Y-57062275D01*
X107634871Y-56997560D01*
X107673787Y-56939318D01*
X107723318Y-56889787D01*
X107781560Y-56850871D01*
X107846275Y-56824065D01*
X107914976Y-56810400D01*
X107985024Y-56810400D01*
X108053725Y-56824065D01*
G37*
G36*
X109053725Y-56824065D02*
G01*
X109118440Y-56850871D01*
X109176682Y-56889787D01*
X109226213Y-56939318D01*
X109265129Y-56997560D01*
X109291935Y-57062275D01*
X109305600Y-57130976D01*
X109305600Y-57201024D01*
X109291935Y-57269725D01*
X109265129Y-57334440D01*
X109226213Y-57392682D01*
X109176682Y-57442213D01*
X109118440Y-57481129D01*
X109053725Y-57507935D01*
X108985024Y-57521600D01*
X108914976Y-57521600D01*
X108846275Y-57507935D01*
X108781560Y-57481129D01*
X108723318Y-57442213D01*
X108673787Y-57392682D01*
X108634871Y-57334440D01*
X108608065Y-57269725D01*
X108594400Y-57201024D01*
X108594400Y-57130976D01*
X108608065Y-57062275D01*
X108634871Y-56997560D01*
X108673787Y-56939318D01*
X108723318Y-56889787D01*
X108781560Y-56850871D01*
X108846275Y-56824065D01*
X108914976Y-56810400D01*
X108985024Y-56810400D01*
X109053725Y-56824065D01*
G37*
G36*
X100871659Y-55477366D02*
G01*
X100871661Y-55477367D01*
X100871662Y-55477367D01*
X100971902Y-55518887D01*
X101062114Y-55579166D01*
X101138834Y-55655886D01*
X101199113Y-55746098D01*
X101240633Y-55846338D01*
X101240634Y-55846341D01*
X101261800Y-55952750D01*
X101261800Y-56061250D01*
X101241528Y-56163167D01*
X101240633Y-56167662D01*
X101199113Y-56267902D01*
X101138834Y-56358114D01*
X101062114Y-56434834D01*
X100971902Y-56495113D01*
X100871662Y-56536633D01*
X100871661Y-56536633D01*
X100871659Y-56536634D01*
X100765250Y-56557800D01*
X100656750Y-56557800D01*
X100550341Y-56536634D01*
X100550339Y-56536633D01*
X100550338Y-56536633D01*
X100450098Y-56495113D01*
X100432489Y-56483347D01*
X100410884Y-56471799D01*
X100387435Y-56464687D01*
X100363049Y-56462285D01*
X100338663Y-56464687D01*
X100315214Y-56471800D01*
X100293603Y-56483352D01*
X100274661Y-56498897D01*
X100259116Y-56517839D01*
X100247565Y-56539450D01*
X100240453Y-56562899D01*
X100238051Y-56587285D01*
X100240453Y-56611669D01*
X100245800Y-56638550D01*
X100245800Y-56747050D01*
X100225149Y-56850871D01*
X100224633Y-56853462D01*
X100183113Y-56953702D01*
X100122834Y-57043914D01*
X100046114Y-57120634D01*
X99955902Y-57180913D01*
X99855662Y-57222433D01*
X99855661Y-57222433D01*
X99855659Y-57222434D01*
X99749250Y-57243600D01*
X99640750Y-57243600D01*
X99534341Y-57222434D01*
X99534339Y-57222433D01*
X99534338Y-57222433D01*
X99434098Y-57180913D01*
X99343886Y-57120634D01*
X99267166Y-57043914D01*
X99206887Y-56953702D01*
X99165367Y-56853462D01*
X99164852Y-56850871D01*
X99144200Y-56747050D01*
X99144200Y-56638550D01*
X99165366Y-56532141D01*
X99165367Y-56532138D01*
X99206887Y-56431898D01*
X99267166Y-56341686D01*
X99343886Y-56264966D01*
X99434098Y-56204687D01*
X99534338Y-56163167D01*
X99534339Y-56163167D01*
X99534341Y-56163166D01*
X99640750Y-56142000D01*
X99749250Y-56142000D01*
X99855659Y-56163166D01*
X99855661Y-56163167D01*
X99855662Y-56163167D01*
X99955902Y-56204687D01*
X99973511Y-56216453D01*
X99995116Y-56228001D01*
X100018565Y-56235113D01*
X100042951Y-56237515D01*
X100067337Y-56235113D01*
X100090786Y-56228000D01*
X100112397Y-56216448D01*
X100131339Y-56200903D01*
X100146884Y-56181961D01*
X100158435Y-56160350D01*
X100165547Y-56136901D01*
X100167949Y-56112515D01*
X100165547Y-56088129D01*
X100160200Y-56061248D01*
X100160200Y-55952750D01*
X100181366Y-55846341D01*
X100181367Y-55846338D01*
X100222887Y-55746098D01*
X100283166Y-55655886D01*
X100359886Y-55579166D01*
X100450098Y-55518887D01*
X100550338Y-55477367D01*
X100550339Y-55477367D01*
X100550341Y-55477366D01*
X100656750Y-55456200D01*
X100765250Y-55456200D01*
X100871659Y-55477366D01*
G37*
G36*
X92362659Y-55477366D02*
G01*
X92362661Y-55477367D01*
X92362662Y-55477367D01*
X92462902Y-55518887D01*
X92553114Y-55579166D01*
X92629834Y-55655886D01*
X92690113Y-55746098D01*
X92731633Y-55846338D01*
X92731634Y-55846341D01*
X92752800Y-55952750D01*
X92752800Y-56061250D01*
X92732528Y-56163167D01*
X92731633Y-56167662D01*
X92690113Y-56267902D01*
X92629834Y-56358114D01*
X92553114Y-56434834D01*
X92462902Y-56495113D01*
X92362662Y-56536633D01*
X92362661Y-56536633D01*
X92362659Y-56536634D01*
X92256250Y-56557800D01*
X92147750Y-56557800D01*
X92041341Y-56536634D01*
X92041339Y-56536633D01*
X92041338Y-56536633D01*
X91941098Y-56495113D01*
X91850886Y-56434834D01*
X91774166Y-56358114D01*
X91713887Y-56267902D01*
X91672367Y-56167662D01*
X91671473Y-56163167D01*
X91651200Y-56061250D01*
X91651200Y-55952750D01*
X91672366Y-55846341D01*
X91672367Y-55846338D01*
X91713887Y-55746098D01*
X91774166Y-55655886D01*
X91850886Y-55579166D01*
X91941098Y-55518887D01*
X92041338Y-55477367D01*
X92041339Y-55477367D01*
X92041341Y-55477366D01*
X92147750Y-55456200D01*
X92256250Y-55456200D01*
X92362659Y-55477366D01*
G37*
G36*
X81350800Y-55450800D02*
G01*
X79949200Y-55450800D01*
X79949200Y-54799200D01*
X81350800Y-54799200D01*
X81350800Y-55450800D01*
G37*
G36*
X104850800Y-55450800D02*
G01*
X103449200Y-55450800D01*
X103449200Y-54799200D01*
X104850800Y-54799200D01*
X104850800Y-55450800D01*
G37*
G36*
X114450800Y-55450800D02*
G01*
X113049200Y-55450800D01*
X113049200Y-54799200D01*
X114450800Y-54799200D01*
X114450800Y-55450800D01*
G37*
G36*
X90950800Y-55450800D02*
G01*
X89549200Y-55450800D01*
X89549200Y-54799200D01*
X90950800Y-54799200D01*
X90950800Y-55450800D01*
G37*
G36*
X114542800Y-53309800D02*
G01*
X113041200Y-53309800D01*
X113041200Y-52608200D01*
X114542800Y-52608200D01*
X114542800Y-53309800D01*
G37*
G36*
X79471800Y-52566800D02*
G01*
X78770200Y-52566800D01*
X78770200Y-51065200D01*
X79471800Y-51065200D01*
X79471800Y-52566800D01*
G37*
G36*
X87100800Y-52350800D02*
G01*
X86449200Y-52350800D01*
X86449200Y-50949200D01*
X87100800Y-50949200D01*
X87100800Y-52350800D01*
G37*
G36*
X84450800Y-52350800D02*
G01*
X83799200Y-52350800D01*
X83799200Y-50949200D01*
X84450800Y-50949200D01*
X84450800Y-52350800D01*
G37*
G36*
X110600800Y-52340800D02*
G01*
X109949200Y-52340800D01*
X109949200Y-50939200D01*
X110600800Y-50939200D01*
X110600800Y-52340800D01*
G37*
G36*
X107950800Y-52340800D02*
G01*
X107299200Y-52340800D01*
X107299200Y-50939200D01*
X107950800Y-50939200D01*
X107950800Y-52340800D01*
G37*
G36*
X113588800Y-51739800D02*
G01*
X112217200Y-51739800D01*
X112217200Y-51130200D01*
X113588800Y-51130200D01*
X113588800Y-51739800D01*
G37*
G36*
X116059800Y-51482400D02*
G01*
X114856799Y-51482400D01*
X114832413Y-51484802D01*
X114808964Y-51491915D01*
X114787353Y-51503466D01*
X114768411Y-51519011D01*
X114752866Y-51537953D01*
X114741315Y-51559564D01*
X114734202Y-51583013D01*
X114731800Y-51607399D01*
X114731800Y-51612800D01*
X114122200Y-51612800D01*
X114122200Y-50241200D01*
X114833201Y-50241200D01*
X114857587Y-50238798D01*
X114881036Y-50231685D01*
X114902647Y-50220134D01*
X114921589Y-50204589D01*
X114937134Y-50185647D01*
X114948685Y-50164036D01*
X114955798Y-50140587D01*
X114958200Y-50116201D01*
X114958200Y-49980800D01*
X116059800Y-49980800D01*
X116059800Y-51482400D01*
G37*
G36*
X100634800Y-51612800D02*
G01*
X99263200Y-51612800D01*
X99263200Y-51003200D01*
X100634800Y-51003200D01*
X100634800Y-51612800D01*
G37*
G36*
X94349800Y-51531800D02*
G01*
X92848200Y-51531800D01*
X92848200Y-50830200D01*
X94349800Y-50830200D01*
X94349800Y-51531800D01*
G37*
G36*
X117959800Y-51482400D02*
G01*
X116858200Y-51482400D01*
X116858200Y-49980800D01*
X117959800Y-49980800D01*
X117959800Y-51482400D01*
G37*
G36*
X95918659Y-50016366D02*
G01*
X95918661Y-50016367D01*
X95918662Y-50016367D01*
X96018902Y-50057887D01*
X96109114Y-50118166D01*
X96185834Y-50194886D01*
X96246113Y-50285098D01*
X96287633Y-50385338D01*
X96308800Y-50491751D01*
X96308800Y-50600249D01*
X96287633Y-50706662D01*
X96246113Y-50806902D01*
X96185834Y-50897114D01*
X96109114Y-50973834D01*
X96018902Y-51034113D01*
X95918662Y-51075633D01*
X95918661Y-51075633D01*
X95918659Y-51075634D01*
X95812250Y-51096800D01*
X95703750Y-51096800D01*
X95597341Y-51075634D01*
X95597339Y-51075633D01*
X95597338Y-51075633D01*
X95497098Y-51034113D01*
X95406886Y-50973834D01*
X95330166Y-50897114D01*
X95269887Y-50806902D01*
X95228367Y-50706662D01*
X95207200Y-50600249D01*
X95207200Y-50491751D01*
X95228367Y-50385338D01*
X95269887Y-50285098D01*
X95330166Y-50194886D01*
X95406886Y-50118166D01*
X95497098Y-50057887D01*
X95597338Y-50016367D01*
X95597339Y-50016367D01*
X95597341Y-50016366D01*
X95703750Y-49995200D01*
X95812250Y-49995200D01*
X95918659Y-50016366D01*
G37*
G36*
X113526800Y-50769800D02*
G01*
X112025200Y-50769800D01*
X112025200Y-50068200D01*
X113526800Y-50068200D01*
X113526800Y-50769800D01*
G37*
G36*
X81522800Y-50515800D02*
G01*
X80021200Y-50515800D01*
X80021200Y-49814200D01*
X81522800Y-49814200D01*
X81522800Y-50515800D01*
G37*
G36*
X114350800Y-49707800D02*
G01*
X112979200Y-49707800D01*
X112979200Y-49098200D01*
X114350800Y-49098200D01*
X114350800Y-49707800D01*
G37*
G36*
X97900800Y-49600800D02*
G01*
X96499200Y-49600800D01*
X96499200Y-48949200D01*
X97900800Y-48949200D01*
X97900800Y-49600800D01*
G37*
G36*
X86774659Y-48238366D02*
G01*
X86774661Y-48238367D01*
X86774662Y-48238367D01*
X86874902Y-48279887D01*
X86965114Y-48340166D01*
X87041834Y-48416886D01*
X87102113Y-48507098D01*
X87134779Y-48585962D01*
X87143634Y-48607341D01*
X87164800Y-48713750D01*
X87164800Y-48822250D01*
X87148203Y-48905691D01*
X87143633Y-48928662D01*
X87102113Y-49028902D01*
X87041834Y-49119114D01*
X86965114Y-49195834D01*
X86874902Y-49256113D01*
X86774662Y-49297633D01*
X86774661Y-49297633D01*
X86774659Y-49297634D01*
X86668250Y-49318800D01*
X86559750Y-49318800D01*
X86453341Y-49297634D01*
X86453339Y-49297633D01*
X86453338Y-49297633D01*
X86353098Y-49256113D01*
X86262886Y-49195834D01*
X86186166Y-49119114D01*
X86125887Y-49028902D01*
X86084367Y-48928662D01*
X86079798Y-48905691D01*
X86063200Y-48822250D01*
X86063200Y-48713750D01*
X86084366Y-48607341D01*
X86093221Y-48585962D01*
X86125887Y-48507098D01*
X86186166Y-48416886D01*
X86262886Y-48340166D01*
X86353098Y-48279887D01*
X86453338Y-48238367D01*
X86453339Y-48238367D01*
X86453341Y-48238366D01*
X86559750Y-48217200D01*
X86668250Y-48217200D01*
X86774659Y-48238366D01*
G37*
G36*
X89060659Y-48238366D02*
G01*
X89060661Y-48238367D01*
X89060662Y-48238367D01*
X89160902Y-48279887D01*
X89251114Y-48340166D01*
X89327834Y-48416886D01*
X89388113Y-48507098D01*
X89420779Y-48585962D01*
X89429634Y-48607341D01*
X89450800Y-48713750D01*
X89450800Y-48822250D01*
X89434203Y-48905691D01*
X89429633Y-48928662D01*
X89388113Y-49028902D01*
X89327834Y-49119114D01*
X89251114Y-49195834D01*
X89160902Y-49256113D01*
X89060662Y-49297633D01*
X89060661Y-49297633D01*
X89060659Y-49297634D01*
X88954250Y-49318800D01*
X88845750Y-49318800D01*
X88739341Y-49297634D01*
X88739339Y-49297633D01*
X88739338Y-49297633D01*
X88639098Y-49256113D01*
X88548886Y-49195834D01*
X88472166Y-49119114D01*
X88411887Y-49028902D01*
X88370367Y-48928662D01*
X88365798Y-48905691D01*
X88349200Y-48822250D01*
X88349200Y-48713750D01*
X88370366Y-48607341D01*
X88379221Y-48585962D01*
X88411887Y-48507098D01*
X88472166Y-48416886D01*
X88548886Y-48340166D01*
X88639098Y-48279887D01*
X88739338Y-48238367D01*
X88739339Y-48238367D01*
X88739341Y-48238366D01*
X88845750Y-48217200D01*
X88954250Y-48217200D01*
X89060659Y-48238366D01*
G37*
G36*
X91346659Y-48238366D02*
G01*
X91346661Y-48238367D01*
X91346662Y-48238367D01*
X91446902Y-48279887D01*
X91537114Y-48340166D01*
X91613834Y-48416886D01*
X91674113Y-48507098D01*
X91706779Y-48585962D01*
X91715634Y-48607341D01*
X91736800Y-48713750D01*
X91736800Y-48822250D01*
X91720203Y-48905691D01*
X91715633Y-48928662D01*
X91674113Y-49028902D01*
X91613834Y-49119114D01*
X91537114Y-49195834D01*
X91446902Y-49256113D01*
X91346662Y-49297633D01*
X91346661Y-49297633D01*
X91346659Y-49297634D01*
X91240250Y-49318800D01*
X91131750Y-49318800D01*
X91025341Y-49297634D01*
X91025339Y-49297633D01*
X91025338Y-49297633D01*
X90925098Y-49256113D01*
X90834886Y-49195834D01*
X90758166Y-49119114D01*
X90697887Y-49028902D01*
X90656367Y-48928662D01*
X90651798Y-48905691D01*
X90635200Y-48822250D01*
X90635200Y-48713750D01*
X90656366Y-48607341D01*
X90665221Y-48585962D01*
X90697887Y-48507098D01*
X90758166Y-48416886D01*
X90834886Y-48340166D01*
X90925098Y-48279887D01*
X91025338Y-48238367D01*
X91025339Y-48238367D01*
X91025341Y-48238366D01*
X91131750Y-48217200D01*
X91240250Y-48217200D01*
X91346659Y-48238366D01*
G37*
G36*
X117009800Y-49282400D02*
G01*
X115908200Y-49282400D01*
X115908200Y-47780800D01*
X117009800Y-47780800D01*
X117009800Y-49282400D01*
G37*
G36*
X82585996Y-48103674D02*
G01*
X82636843Y-48124736D01*
X82687692Y-48145798D01*
X82779212Y-48206949D01*
X82857051Y-48284788D01*
X82918202Y-48376308D01*
X82960326Y-48478005D01*
X82981800Y-48585962D01*
X82981800Y-48696038D01*
X82960326Y-48803995D01*
X82918202Y-48905692D01*
X82857051Y-48997212D01*
X82779212Y-49075051D01*
X82687692Y-49136202D01*
X82636843Y-49157264D01*
X82585996Y-49178326D01*
X82532016Y-49189063D01*
X82478038Y-49199800D01*
X82367962Y-49199800D01*
X82313984Y-49189063D01*
X82260004Y-49178326D01*
X82158308Y-49136202D01*
X82066788Y-49075051D01*
X81988949Y-48997212D01*
X81927798Y-48905692D01*
X81885674Y-48803995D01*
X81864200Y-48696038D01*
X81864200Y-48585962D01*
X81885674Y-48478005D01*
X81927798Y-48376308D01*
X81988949Y-48284788D01*
X82066788Y-48206949D01*
X82158308Y-48145798D01*
X82209157Y-48124736D01*
X82260004Y-48103674D01*
X82367962Y-48082200D01*
X82478038Y-48082200D01*
X82585996Y-48103674D01*
G37*
G36*
X102539800Y-49072800D02*
G01*
X101168200Y-49072800D01*
X101168200Y-48463200D01*
X102539800Y-48463200D01*
X102539800Y-49072800D01*
G37*
G36*
X103682800Y-48945800D02*
G01*
X103073200Y-48945800D01*
X103073200Y-47574200D01*
X103682800Y-47574200D01*
X103682800Y-48945800D01*
G37*
G36*
X104952800Y-48945800D02*
G01*
X104343200Y-48945800D01*
X104343200Y-47574200D01*
X104952800Y-47574200D01*
X104952800Y-48945800D01*
G37*
G36*
X105968800Y-48945800D02*
G01*
X105359200Y-48945800D01*
X105359200Y-47574200D01*
X105968800Y-47574200D01*
X105968800Y-48945800D01*
G37*
G36*
X92489659Y-47476366D02*
G01*
X92489661Y-47476367D01*
X92489662Y-47476367D01*
X92589902Y-47517887D01*
X92680114Y-47578166D01*
X92756834Y-47654886D01*
X92817113Y-47745098D01*
X92858633Y-47845338D01*
X92879800Y-47951751D01*
X92879800Y-48060249D01*
X92858633Y-48166662D01*
X92817113Y-48266902D01*
X92756834Y-48357114D01*
X92680114Y-48433834D01*
X92589902Y-48494113D01*
X92489662Y-48535633D01*
X92489661Y-48535633D01*
X92489659Y-48535634D01*
X92383250Y-48556800D01*
X92274750Y-48556800D01*
X92168341Y-48535634D01*
X92168339Y-48535633D01*
X92168338Y-48535633D01*
X92068098Y-48494113D01*
X91977886Y-48433834D01*
X91901166Y-48357114D01*
X91840887Y-48266902D01*
X91799367Y-48166662D01*
X91778200Y-48060249D01*
X91778200Y-47951751D01*
X91799367Y-47845338D01*
X91840887Y-47745098D01*
X91901166Y-47654886D01*
X91977886Y-47578166D01*
X92068098Y-47517887D01*
X92168338Y-47476367D01*
X92168339Y-47476367D01*
X92168341Y-47476366D01*
X92274750Y-47455200D01*
X92383250Y-47455200D01*
X92489659Y-47476366D01*
G37*
G36*
X87917659Y-47476366D02*
G01*
X87917661Y-47476367D01*
X87917662Y-47476367D01*
X88017902Y-47517887D01*
X88108114Y-47578166D01*
X88184834Y-47654886D01*
X88245113Y-47745098D01*
X88286633Y-47845338D01*
X88307800Y-47951751D01*
X88307800Y-48060249D01*
X88286633Y-48166662D01*
X88245113Y-48266902D01*
X88184834Y-48357114D01*
X88108114Y-48433834D01*
X88017902Y-48494113D01*
X87917662Y-48535633D01*
X87917661Y-48535633D01*
X87917659Y-48535634D01*
X87811250Y-48556800D01*
X87702750Y-48556800D01*
X87596341Y-48535634D01*
X87596339Y-48535633D01*
X87596338Y-48535633D01*
X87496098Y-48494113D01*
X87405886Y-48433834D01*
X87329166Y-48357114D01*
X87268887Y-48266902D01*
X87227367Y-48166662D01*
X87206200Y-48060249D01*
X87206200Y-47951751D01*
X87227367Y-47845338D01*
X87268887Y-47745098D01*
X87329166Y-47654886D01*
X87405886Y-47578166D01*
X87496098Y-47517887D01*
X87596338Y-47476367D01*
X87596339Y-47476367D01*
X87596341Y-47476366D01*
X87702750Y-47455200D01*
X87811250Y-47455200D01*
X87917659Y-47476366D01*
G37*
G36*
X90203659Y-47476366D02*
G01*
X90203661Y-47476367D01*
X90203662Y-47476367D01*
X90303902Y-47517887D01*
X90394114Y-47578166D01*
X90470834Y-47654886D01*
X90531113Y-47745098D01*
X90572633Y-47845338D01*
X90593800Y-47951751D01*
X90593800Y-48060249D01*
X90572633Y-48166662D01*
X90531113Y-48266902D01*
X90470834Y-48357114D01*
X90394114Y-48433834D01*
X90303902Y-48494113D01*
X90203662Y-48535633D01*
X90203661Y-48535633D01*
X90203659Y-48535634D01*
X90097250Y-48556800D01*
X89988750Y-48556800D01*
X89882341Y-48535634D01*
X89882339Y-48535633D01*
X89882338Y-48535633D01*
X89782098Y-48494113D01*
X89691886Y-48433834D01*
X89615166Y-48357114D01*
X89554887Y-48266902D01*
X89513367Y-48166662D01*
X89492200Y-48060249D01*
X89492200Y-47951751D01*
X89513367Y-47845338D01*
X89554887Y-47745098D01*
X89615166Y-47654886D01*
X89691886Y-47578166D01*
X89782098Y-47517887D01*
X89882338Y-47476367D01*
X89882339Y-47476367D01*
X89882341Y-47476366D01*
X89988750Y-47455200D01*
X90097250Y-47455200D01*
X90203659Y-47476366D01*
G37*
G36*
X106984800Y-48183800D02*
G01*
X106375200Y-48183800D01*
X106375200Y-46812200D01*
X106984800Y-46812200D01*
X106984800Y-48183800D01*
G37*
G36*
X108000800Y-48183800D02*
G01*
X107391200Y-48183800D01*
X107391200Y-46812200D01*
X108000800Y-46812200D01*
X108000800Y-48183800D01*
G37*
G36*
X101650800Y-47929800D02*
G01*
X101041200Y-47929800D01*
X101041200Y-46558200D01*
X101650800Y-46558200D01*
X101650800Y-47929800D01*
G37*
G36*
X102666800Y-47929800D02*
G01*
X102057200Y-47929800D01*
X102057200Y-46558200D01*
X102666800Y-46558200D01*
X102666800Y-47929800D01*
G37*
G36*
X93568800Y-46573818D02*
G01*
X93571202Y-46598204D01*
X93578315Y-46621653D01*
X93589866Y-46643264D01*
X93605411Y-46662206D01*
X93624353Y-46677751D01*
X93645964Y-46689302D01*
X93669413Y-46696415D01*
X93759659Y-46714366D01*
X93759661Y-46714367D01*
X93759662Y-46714367D01*
X93859902Y-46755887D01*
X93950114Y-46816166D01*
X94026834Y-46892886D01*
X94087113Y-46983098D01*
X94128633Y-47083338D01*
X94149800Y-47189751D01*
X94149800Y-47298249D01*
X94128633Y-47404662D01*
X94087113Y-47504902D01*
X94026834Y-47595114D01*
X93950114Y-47671834D01*
X93859902Y-47732113D01*
X93759662Y-47773633D01*
X93759661Y-47773633D01*
X93759659Y-47773634D01*
X93653250Y-47794800D01*
X93544750Y-47794800D01*
X93438341Y-47773634D01*
X93438339Y-47773633D01*
X93438338Y-47773633D01*
X93338098Y-47732113D01*
X93247886Y-47671834D01*
X93171166Y-47595114D01*
X93110887Y-47504902D01*
X93069367Y-47404662D01*
X93048200Y-47298249D01*
X93048200Y-47189751D01*
X93069367Y-47083338D01*
X93110887Y-46983098D01*
X93171166Y-46892886D01*
X93247886Y-46816166D01*
X93338098Y-46755887D01*
X93438338Y-46714367D01*
X93438337Y-46714367D01*
X93445783Y-46711283D01*
X93467393Y-46699732D01*
X93486335Y-46684186D01*
X93501880Y-46665244D01*
X93513431Y-46643634D01*
X93520544Y-46620185D01*
X93522946Y-46595798D01*
X93520544Y-46571412D01*
X93513431Y-46547963D01*
X93501880Y-46526353D01*
X93486334Y-46507411D01*
X93467392Y-46491866D01*
X93445782Y-46480315D01*
X93422333Y-46473202D01*
X93397947Y-46470800D01*
X92867200Y-46470800D01*
X92867200Y-44969200D01*
X93568800Y-44969200D01*
X93568800Y-46573818D01*
G37*
G36*
X105841800Y-47040800D02*
G01*
X104470200Y-47040800D01*
X104470200Y-46431200D01*
X105841800Y-46431200D01*
X105841800Y-47040800D01*
G37*
G36*
X97900800Y-46950800D02*
G01*
X96499200Y-46950800D01*
X96499200Y-46299200D01*
X97900800Y-46299200D01*
X97900800Y-46950800D01*
G37*
G36*
X87472800Y-46470800D02*
G01*
X86771200Y-46470800D01*
X86771200Y-44969200D01*
X87472800Y-44969200D01*
X87472800Y-46470800D01*
G37*
G36*
X88488800Y-46470800D02*
G01*
X87787200Y-46470800D01*
X87787200Y-44969200D01*
X88488800Y-44969200D01*
X88488800Y-46470800D01*
G37*
G36*
X89504800Y-46470800D02*
G01*
X88803200Y-46470800D01*
X88803200Y-44969200D01*
X89504800Y-44969200D01*
X89504800Y-46470800D01*
G37*
G36*
X91536800Y-46470800D02*
G01*
X90835200Y-46470800D01*
X90835200Y-44969200D01*
X91536800Y-44969200D01*
X91536800Y-46470800D01*
G37*
G36*
X90520800Y-46470800D02*
G01*
X89819200Y-46470800D01*
X89819200Y-44969200D01*
X90520800Y-44969200D01*
X90520800Y-46470800D01*
G37*
G36*
X92552800Y-46470800D02*
G01*
X91851200Y-46470800D01*
X91851200Y-44969200D01*
X92552800Y-44969200D01*
X92552800Y-46470800D01*
G37*
G36*
X105841800Y-46024800D02*
G01*
X104470200Y-46024800D01*
X104470200Y-45415200D01*
X105841800Y-45415200D01*
X105841800Y-46024800D01*
G37*
G36*
X95021400Y-45095056D02*
G01*
X95023802Y-45119442D01*
X95030915Y-45142891D01*
X95042466Y-45164502D01*
X95058011Y-45183444D01*
X95076953Y-45198989D01*
X95098564Y-45210540D01*
X95122013Y-45217653D01*
X95146399Y-45220055D01*
X95170785Y-45217653D01*
X95194234Y-45210540D01*
X95215845Y-45198989D01*
X95234787Y-45183444D01*
X95250332Y-45164502D01*
X95261883Y-45142890D01*
X95285305Y-45086343D01*
X95343680Y-44998979D01*
X95343681Y-44998977D01*
X95417977Y-44924681D01*
X95505340Y-44866307D01*
X95602413Y-44826098D01*
X95705463Y-44805600D01*
X95810537Y-44805600D01*
X95913587Y-44826098D01*
X96010660Y-44866307D01*
X96098023Y-44924681D01*
X96172319Y-44998977D01*
X96172320Y-44998979D01*
X96230694Y-45086342D01*
X96271881Y-45185776D01*
X96277516Y-45204354D01*
X96289067Y-45225965D01*
X96304612Y-45244907D01*
X96323554Y-45260452D01*
X96345165Y-45272003D01*
X96368614Y-45279116D01*
X96393000Y-45281518D01*
X96417386Y-45279116D01*
X96440835Y-45272003D01*
X96462446Y-45260452D01*
X96481388Y-45244907D01*
X96496933Y-45225965D01*
X96508484Y-45204354D01*
X96514119Y-45185776D01*
X96555306Y-45086342D01*
X96613680Y-44998979D01*
X96613681Y-44998977D01*
X96687977Y-44924681D01*
X96775340Y-44866307D01*
X96872413Y-44826098D01*
X96975463Y-44805600D01*
X97080537Y-44805600D01*
X97183587Y-44826098D01*
X97280660Y-44866307D01*
X97368023Y-44924681D01*
X97442319Y-44998977D01*
X97442320Y-44998979D01*
X97500694Y-45086342D01*
X97540902Y-45183413D01*
X97561400Y-45286463D01*
X97561400Y-45391537D01*
X97547713Y-45460347D01*
X97540902Y-45494587D01*
X97500693Y-45591660D01*
X97442319Y-45679023D01*
X97368023Y-45753319D01*
X97280660Y-45811693D01*
X97280659Y-45811694D01*
X97280658Y-45811694D01*
X97183587Y-45851902D01*
X97080537Y-45872400D01*
X96975463Y-45872400D01*
X96872413Y-45851902D01*
X96775342Y-45811694D01*
X96775341Y-45811694D01*
X96775340Y-45811693D01*
X96687977Y-45753319D01*
X96613681Y-45679023D01*
X96555307Y-45591660D01*
X96531882Y-45535108D01*
X96514119Y-45492224D01*
X96508484Y-45473646D01*
X96496933Y-45452035D01*
X96481388Y-45433093D01*
X96462446Y-45417548D01*
X96440835Y-45405997D01*
X96417386Y-45398884D01*
X96393000Y-45396482D01*
X96368614Y-45398884D01*
X96345165Y-45405997D01*
X96323554Y-45417548D01*
X96304612Y-45433093D01*
X96289067Y-45452035D01*
X96277516Y-45473646D01*
X96271881Y-45492224D01*
X96254118Y-45535108D01*
X96230693Y-45591660D01*
X96172319Y-45679023D01*
X96098023Y-45753319D01*
X96010660Y-45811693D01*
X96010659Y-45811694D01*
X96010658Y-45811694D01*
X95913587Y-45851902D01*
X95810537Y-45872400D01*
X95705463Y-45872400D01*
X95602413Y-45851902D01*
X95505342Y-45811694D01*
X95505341Y-45811694D01*
X95505340Y-45811693D01*
X95417977Y-45753319D01*
X95343681Y-45679023D01*
X95285307Y-45591660D01*
X95285306Y-45591658D01*
X95285305Y-45591657D01*
X95261883Y-45535110D01*
X95250332Y-45513499D01*
X95234787Y-45494557D01*
X95215845Y-45479012D01*
X95194235Y-45467460D01*
X95170786Y-45460347D01*
X95146400Y-45457945D01*
X95122014Y-45460347D01*
X95098565Y-45467460D01*
X95076954Y-45479011D01*
X95058012Y-45494556D01*
X95042467Y-45513498D01*
X95030915Y-45535108D01*
X95023802Y-45558557D01*
X95021400Y-45582944D01*
X95021400Y-45872400D01*
X93954600Y-45872400D01*
X93954600Y-44805600D01*
X95021400Y-44805600D01*
X95021400Y-45095056D01*
G37*
M02*
