G04 #@! TF.GenerationSoftware,KiCad,Pcbnew,5.1.5+dfsg1-2build2*
G04 #@! TF.CreationDate,2021-07-27T21:48:52+02:00*
G04 #@! TF.ProjectId,FunKey,46756e4b-6579-42e6-9b69-6361645f7063,F*
G04 #@! TF.SameCoordinates,Original*
G04 #@! TF.FileFunction,Legend,Bot*
G04 #@! TF.FilePolarity,Positive*
%FSLAX46Y46*%
G04 Gerber Fmt 4.6, Leading zero omitted, Abs format (unit mm)*
G04 Created by KiCad (PCBNEW 5.1.5+dfsg1-2build2) date 2021-07-27 21:48:52*
%MOMM*%
%LPD*%
G04 APERTURE LIST*
%ADD10C,0.162560*%
%ADD11C,0.127000*%
%ADD12C,0.254000*%
%ADD13C,0.152400*%
%ADD14C,0.010000*%
%ADD15C,0.154432*%
%ADD16C,1.100000*%
%ADD17C,1.117600*%
%ADD18R,1.101600X1.501600*%
%ADD19R,0.801600X1.101600*%
%ADD20R,1.301600X1.501600*%
%ADD21R,0.341600X1.001600*%
%ADD22R,2.201600X2.201600*%
%ADD23R,1.001600X0.341600*%
%ADD24R,0.651600X0.651600*%
%ADD25C,1.101600*%
%ADD26C,0.711200*%
%ADD27O,2.401600X1.501600*%
%ADD28C,1.066800*%
%ADD29R,1.066800X1.066800*%
%ADD30R,0.801600X0.601600*%
%ADD31R,0.863600X1.117600*%
%ADD32R,0.651600X0.701600*%
%ADD33R,0.701600X0.651600*%
%ADD34R,0.609600X0.609600*%
G04 APERTURE END LIST*
D10*
X98566562Y-59514860D02*
X98640101Y-59551630D01*
X98787179Y-59551630D01*
X98860718Y-59514860D01*
X98897488Y-59478091D01*
X98934257Y-59404552D01*
X98934257Y-59183935D01*
X98897488Y-59110396D01*
X98860718Y-59073626D01*
X98787179Y-59036857D01*
X98640101Y-59036857D01*
X98566562Y-59073626D01*
X97684094Y-58853009D02*
X97647324Y-58816240D01*
X97573785Y-58779470D01*
X97389937Y-58779470D01*
X97316398Y-58816240D01*
X97279629Y-58853009D01*
X97242859Y-58926548D01*
X97242859Y-59000087D01*
X97279629Y-59110396D01*
X97720863Y-59551630D01*
X97242859Y-59551630D01*
X96764856Y-58779470D02*
X96691316Y-58779470D01*
X96617777Y-58816240D01*
X96581008Y-58853009D01*
X96544238Y-58926548D01*
X96507469Y-59073626D01*
X96507469Y-59257474D01*
X96544238Y-59404552D01*
X96581008Y-59478091D01*
X96617777Y-59514860D01*
X96691316Y-59551630D01*
X96764856Y-59551630D01*
X96838395Y-59514860D01*
X96875164Y-59478091D01*
X96911934Y-59404552D01*
X96948703Y-59257474D01*
X96948703Y-59073626D01*
X96911934Y-58926548D01*
X96875164Y-58853009D01*
X96838395Y-58816240D01*
X96764856Y-58779470D01*
X95772078Y-59551630D02*
X96213313Y-59551630D01*
X95992696Y-59551630D02*
X95992696Y-58779470D01*
X96066235Y-58889779D01*
X96139774Y-58963318D01*
X96213313Y-59000087D01*
X95514692Y-58779470D02*
X94999918Y-58779470D01*
X95330844Y-59551630D01*
X94705762Y-59257474D02*
X94117450Y-59257474D01*
X93786524Y-58853009D02*
X93749755Y-58816240D01*
X93676216Y-58779470D01*
X93492368Y-58779470D01*
X93418829Y-58816240D01*
X93382059Y-58853009D01*
X93345290Y-58926548D01*
X93345290Y-59000087D01*
X93382059Y-59110396D01*
X93823294Y-59551630D01*
X93345290Y-59551630D01*
X92867286Y-58779470D02*
X92793747Y-58779470D01*
X92720208Y-58816240D01*
X92683438Y-58853009D01*
X92646669Y-58926548D01*
X92609899Y-59073626D01*
X92609899Y-59257474D01*
X92646669Y-59404552D01*
X92683438Y-59478091D01*
X92720208Y-59514860D01*
X92793747Y-59551630D01*
X92867286Y-59551630D01*
X92940825Y-59514860D01*
X92977595Y-59478091D01*
X93014364Y-59404552D01*
X93051134Y-59257474D01*
X93051134Y-59073626D01*
X93014364Y-58926548D01*
X92977595Y-58853009D01*
X92940825Y-58816240D01*
X92867286Y-58779470D01*
X92315743Y-58853009D02*
X92278974Y-58816240D01*
X92205435Y-58779470D01*
X92021587Y-58779470D01*
X91948048Y-58816240D01*
X91911278Y-58853009D01*
X91874509Y-58926548D01*
X91874509Y-59000087D01*
X91911278Y-59110396D01*
X92352513Y-59551630D01*
X91874509Y-59551630D01*
X91139118Y-59551630D02*
X91580353Y-59551630D01*
X91359736Y-59551630D02*
X91359736Y-58779470D01*
X91433275Y-58889779D01*
X91506814Y-58963318D01*
X91580353Y-59000087D01*
X90771423Y-59514860D02*
X90771423Y-59551630D01*
X90808193Y-59625169D01*
X90844962Y-59661939D01*
X89852185Y-59551630D02*
X89852185Y-58779470D01*
X89594798Y-59331013D01*
X89337412Y-58779470D01*
X89337412Y-59551630D01*
X88969716Y-59551630D02*
X88969716Y-59036857D01*
X88969716Y-58779470D02*
X89006486Y-58816240D01*
X88969716Y-58853009D01*
X88932947Y-58816240D01*
X88969716Y-58779470D01*
X88969716Y-58853009D01*
X88271096Y-59514860D02*
X88344635Y-59551630D01*
X88491713Y-59551630D01*
X88565252Y-59514860D01*
X88602021Y-59478091D01*
X88638791Y-59404552D01*
X88638791Y-59183935D01*
X88602021Y-59110396D01*
X88565252Y-59073626D01*
X88491713Y-59036857D01*
X88344635Y-59036857D01*
X88271096Y-59073626D01*
X87940170Y-59551630D02*
X87940170Y-58779470D01*
X87609244Y-59551630D02*
X87609244Y-59147165D01*
X87646014Y-59073626D01*
X87719553Y-59036857D01*
X87829861Y-59036857D01*
X87903400Y-59073626D01*
X87940170Y-59110396D01*
X86947393Y-59514860D02*
X87020932Y-59551630D01*
X87168010Y-59551630D01*
X87241549Y-59514860D01*
X87278318Y-59441321D01*
X87278318Y-59147165D01*
X87241549Y-59073626D01*
X87168010Y-59036857D01*
X87020932Y-59036857D01*
X86947393Y-59073626D01*
X86910623Y-59147165D01*
X86910623Y-59220704D01*
X87278318Y-59294243D01*
X86469389Y-59551630D02*
X86542928Y-59514860D01*
X86579697Y-59441321D01*
X86579697Y-58779470D01*
X85623690Y-59514860D02*
X85513381Y-59551630D01*
X85329534Y-59551630D01*
X85255995Y-59514860D01*
X85219225Y-59478091D01*
X85182456Y-59404552D01*
X85182456Y-59331013D01*
X85219225Y-59257474D01*
X85255995Y-59220704D01*
X85329534Y-59183935D01*
X85476612Y-59147165D01*
X85550151Y-59110396D01*
X85586920Y-59073626D01*
X85623690Y-59000087D01*
X85623690Y-58926548D01*
X85586920Y-58853009D01*
X85550151Y-58816240D01*
X85476612Y-58779470D01*
X85292764Y-58779470D01*
X85182456Y-58816240D01*
X84961838Y-59036857D02*
X84667682Y-59036857D01*
X84851530Y-58779470D02*
X84851530Y-59441321D01*
X84814760Y-59514860D01*
X84741221Y-59551630D01*
X84667682Y-59551630D01*
X84116139Y-59514860D02*
X84189678Y-59551630D01*
X84336756Y-59551630D01*
X84410296Y-59514860D01*
X84447065Y-59441321D01*
X84447065Y-59147165D01*
X84410296Y-59073626D01*
X84336756Y-59036857D01*
X84189678Y-59036857D01*
X84116139Y-59073626D01*
X84079370Y-59147165D01*
X84079370Y-59220704D01*
X84447065Y-59294243D01*
X83748444Y-59551630D02*
X83748444Y-59036857D01*
X83748444Y-59110396D02*
X83711675Y-59073626D01*
X83638136Y-59036857D01*
X83527827Y-59036857D01*
X83454288Y-59073626D01*
X83417518Y-59147165D01*
X83417518Y-59551630D01*
X83417518Y-59147165D02*
X83380749Y-59073626D01*
X83307210Y-59036857D01*
X83196901Y-59036857D01*
X83123362Y-59073626D01*
X83086593Y-59147165D01*
X83086593Y-59551630D01*
X82718897Y-59036857D02*
X82718897Y-59809017D01*
X82718897Y-59073626D02*
X82645358Y-59036857D01*
X82498280Y-59036857D01*
X82424741Y-59073626D01*
X82387972Y-59110396D01*
X82351202Y-59183935D01*
X82351202Y-59404552D01*
X82387972Y-59478091D01*
X82424741Y-59514860D01*
X82498280Y-59551630D01*
X82645358Y-59551630D01*
X82718897Y-59514860D01*
X82020276Y-59551630D02*
X82020276Y-59036857D01*
X82020276Y-58779470D02*
X82057046Y-58816240D01*
X82020276Y-58853009D01*
X81983507Y-58816240D01*
X82020276Y-58779470D01*
X82020276Y-58853009D01*
X81652581Y-59036857D02*
X81652581Y-59551630D01*
X81652581Y-59110396D02*
X81615812Y-59073626D01*
X81542273Y-59036857D01*
X81431964Y-59036857D01*
X81358425Y-59073626D01*
X81321656Y-59147165D01*
X81321656Y-59551630D01*
X98934257Y-60651813D02*
X98566562Y-60651813D01*
X99007796Y-60872430D02*
X98750410Y-60100270D01*
X98493023Y-60872430D01*
X98125328Y-60872430D02*
X98198867Y-60835660D01*
X98235636Y-60762121D01*
X98235636Y-60100270D01*
X97720863Y-60872430D02*
X97794402Y-60835660D01*
X97831172Y-60762121D01*
X97831172Y-60100270D01*
X96838395Y-60872430D02*
X96838395Y-60357657D01*
X96838395Y-60504735D02*
X96801625Y-60431196D01*
X96764856Y-60394426D01*
X96691316Y-60357657D01*
X96617777Y-60357657D01*
X96360391Y-60872430D02*
X96360391Y-60357657D01*
X96360391Y-60100270D02*
X96397160Y-60137040D01*
X96360391Y-60173809D01*
X96323621Y-60137040D01*
X96360391Y-60100270D01*
X96360391Y-60173809D01*
X95661770Y-60357657D02*
X95661770Y-60982739D01*
X95698539Y-61056278D01*
X95735309Y-61093047D01*
X95808848Y-61129817D01*
X95919156Y-61129817D01*
X95992696Y-61093047D01*
X95661770Y-60835660D02*
X95735309Y-60872430D01*
X95882387Y-60872430D01*
X95955926Y-60835660D01*
X95992696Y-60798891D01*
X96029465Y-60725352D01*
X96029465Y-60504735D01*
X95992696Y-60431196D01*
X95955926Y-60394426D01*
X95882387Y-60357657D01*
X95735309Y-60357657D01*
X95661770Y-60394426D01*
X95294075Y-60872430D02*
X95294075Y-60100270D01*
X94963149Y-60872430D02*
X94963149Y-60467965D01*
X94999918Y-60394426D01*
X95073457Y-60357657D01*
X95183766Y-60357657D01*
X95257305Y-60394426D01*
X95294075Y-60431196D01*
X94705762Y-60357657D02*
X94411606Y-60357657D01*
X94595454Y-60100270D02*
X94595454Y-60762121D01*
X94558684Y-60835660D01*
X94485145Y-60872430D01*
X94411606Y-60872430D01*
X94190989Y-60835660D02*
X94117450Y-60872430D01*
X93970372Y-60872430D01*
X93896833Y-60835660D01*
X93860063Y-60762121D01*
X93860063Y-60725352D01*
X93896833Y-60651813D01*
X93970372Y-60615043D01*
X94080680Y-60615043D01*
X94154219Y-60578274D01*
X94190989Y-60504735D01*
X94190989Y-60467965D01*
X94154219Y-60394426D01*
X94080680Y-60357657D01*
X93970372Y-60357657D01*
X93896833Y-60394426D01*
X98897488Y-62193230D02*
X98897488Y-61678457D01*
X98897488Y-61825535D02*
X98860718Y-61751996D01*
X98823949Y-61715226D01*
X98750410Y-61678457D01*
X98676871Y-61678457D01*
X98125328Y-62156460D02*
X98198867Y-62193230D01*
X98345945Y-62193230D01*
X98419484Y-62156460D01*
X98456254Y-62082921D01*
X98456254Y-61788765D01*
X98419484Y-61715226D01*
X98345945Y-61678457D01*
X98198867Y-61678457D01*
X98125328Y-61715226D01*
X98088558Y-61788765D01*
X98088558Y-61862304D01*
X98456254Y-61935843D01*
X97794402Y-62156460D02*
X97720863Y-62193230D01*
X97573785Y-62193230D01*
X97500246Y-62156460D01*
X97463476Y-62082921D01*
X97463476Y-62046152D01*
X97500246Y-61972613D01*
X97573785Y-61935843D01*
X97684094Y-61935843D01*
X97757633Y-61899074D01*
X97794402Y-61825535D01*
X97794402Y-61788765D01*
X97757633Y-61715226D01*
X97684094Y-61678457D01*
X97573785Y-61678457D01*
X97500246Y-61715226D01*
X96838395Y-62156460D02*
X96911934Y-62193230D01*
X97059012Y-62193230D01*
X97132551Y-62156460D01*
X97169320Y-62082921D01*
X97169320Y-61788765D01*
X97132551Y-61715226D01*
X97059012Y-61678457D01*
X96911934Y-61678457D01*
X96838395Y-61715226D01*
X96801625Y-61788765D01*
X96801625Y-61862304D01*
X97169320Y-61935843D01*
X96470699Y-62193230D02*
X96470699Y-61678457D01*
X96470699Y-61825535D02*
X96433930Y-61751996D01*
X96397160Y-61715226D01*
X96323621Y-61678457D01*
X96250082Y-61678457D01*
X96066235Y-61678457D02*
X95882387Y-62193230D01*
X95698539Y-61678457D01*
X95110227Y-62156460D02*
X95183766Y-62193230D01*
X95330844Y-62193230D01*
X95404383Y-62156460D01*
X95441153Y-62082921D01*
X95441153Y-61788765D01*
X95404383Y-61715226D01*
X95330844Y-61678457D01*
X95183766Y-61678457D01*
X95110227Y-61715226D01*
X95073457Y-61788765D01*
X95073457Y-61862304D01*
X95441153Y-61935843D01*
X94411606Y-62193230D02*
X94411606Y-61421070D01*
X94411606Y-62156460D02*
X94485145Y-62193230D01*
X94632223Y-62193230D01*
X94705762Y-62156460D01*
X94742532Y-62119691D01*
X94779301Y-62046152D01*
X94779301Y-61825535D01*
X94742532Y-61751996D01*
X94705762Y-61715226D01*
X94632223Y-61678457D01*
X94485145Y-61678457D01*
X94411606Y-61715226D01*
X94043911Y-62119691D02*
X94007141Y-62156460D01*
X94043911Y-62193230D01*
X94080680Y-62156460D01*
X94043911Y-62119691D01*
X94043911Y-62193230D01*
X101758254Y-55213310D02*
X102015640Y-54845615D01*
X102199488Y-55213310D02*
X102199488Y-54441150D01*
X101905332Y-54441150D01*
X101831793Y-54477920D01*
X101795023Y-54514689D01*
X101758254Y-54588228D01*
X101758254Y-54698537D01*
X101795023Y-54772076D01*
X101831793Y-54808845D01*
X101905332Y-54845615D01*
X102199488Y-54845615D01*
X101133172Y-55176540D02*
X101206711Y-55213310D01*
X101353789Y-55213310D01*
X101427328Y-55176540D01*
X101464097Y-55103001D01*
X101464097Y-54808845D01*
X101427328Y-54735306D01*
X101353789Y-54698537D01*
X101206711Y-54698537D01*
X101133172Y-54735306D01*
X101096402Y-54808845D01*
X101096402Y-54882384D01*
X101464097Y-54955923D01*
X100839016Y-54698537D02*
X100655168Y-55213310D01*
X100471320Y-54698537D01*
X100177164Y-55139771D02*
X100140395Y-55176540D01*
X100177164Y-55213310D01*
X100213934Y-55176540D01*
X100177164Y-55139771D01*
X100177164Y-55213310D01*
X98680257Y-54514689D02*
X98643488Y-54477920D01*
X98569949Y-54441150D01*
X98386101Y-54441150D01*
X98312562Y-54477920D01*
X98275793Y-54514689D01*
X98239023Y-54588228D01*
X98239023Y-54661767D01*
X98275793Y-54772076D01*
X98717027Y-55213310D01*
X98239023Y-55213310D01*
X97761019Y-54441150D02*
X97687480Y-54441150D01*
X97613941Y-54477920D01*
X97577172Y-54514689D01*
X97540402Y-54588228D01*
X97503633Y-54735306D01*
X97503633Y-54919154D01*
X97540402Y-55066232D01*
X97577172Y-55139771D01*
X97613941Y-55176540D01*
X97687480Y-55213310D01*
X97761019Y-55213310D01*
X97834558Y-55176540D01*
X97871328Y-55139771D01*
X97908097Y-55066232D01*
X97944867Y-54919154D01*
X97944867Y-54735306D01*
X97908097Y-54588228D01*
X97871328Y-54514689D01*
X97834558Y-54477920D01*
X97761019Y-54441150D01*
X97209476Y-54514689D02*
X97172707Y-54477920D01*
X97099168Y-54441150D01*
X96915320Y-54441150D01*
X96841781Y-54477920D01*
X96805012Y-54514689D01*
X96768242Y-54588228D01*
X96768242Y-54661767D01*
X96805012Y-54772076D01*
X97246246Y-55213310D01*
X96768242Y-55213310D01*
X96032852Y-55213310D02*
X96474086Y-55213310D01*
X96253469Y-55213310D02*
X96253469Y-54441150D01*
X96327008Y-54551459D01*
X96400547Y-54624998D01*
X96474086Y-54661767D01*
X95554848Y-54441150D02*
X95481309Y-54441150D01*
X95407770Y-54477920D01*
X95371000Y-54514689D01*
X95334231Y-54588228D01*
X95297461Y-54735306D01*
X95297461Y-54919154D01*
X95334231Y-55066232D01*
X95371000Y-55139771D01*
X95407770Y-55176540D01*
X95481309Y-55213310D01*
X95554848Y-55213310D01*
X95628387Y-55176540D01*
X95665156Y-55139771D01*
X95701926Y-55066232D01*
X95738696Y-54919154D01*
X95738696Y-54735306D01*
X95701926Y-54588228D01*
X95665156Y-54514689D01*
X95628387Y-54477920D01*
X95554848Y-54441150D01*
X95040075Y-54441150D02*
X94562071Y-54441150D01*
X94819457Y-54735306D01*
X94709149Y-54735306D01*
X94635610Y-54772076D01*
X94598840Y-54808845D01*
X94562071Y-54882384D01*
X94562071Y-55066232D01*
X94598840Y-55139771D01*
X94635610Y-55176540D01*
X94709149Y-55213310D01*
X94929766Y-55213310D01*
X95003305Y-55176540D01*
X95040075Y-55139771D01*
X94267915Y-54514689D02*
X94231145Y-54477920D01*
X94157606Y-54441150D01*
X93973758Y-54441150D01*
X93900219Y-54477920D01*
X93863450Y-54514689D01*
X93826680Y-54588228D01*
X93826680Y-54661767D01*
X93863450Y-54772076D01*
X94304684Y-55213310D01*
X93826680Y-55213310D01*
X93532524Y-54514689D02*
X93495755Y-54477920D01*
X93422216Y-54441150D01*
X93238368Y-54441150D01*
X93164829Y-54477920D01*
X93128059Y-54514689D01*
X93091290Y-54588228D01*
X93091290Y-54661767D01*
X93128059Y-54772076D01*
X93569294Y-55213310D01*
X93091290Y-55213310D01*
X99215101Y-54808845D02*
X99472488Y-54808845D01*
X99472488Y-55213310D02*
X99472488Y-54441150D01*
X99104793Y-54441150D01*
X100864609Y-45565132D02*
X101232304Y-45822519D01*
X100864609Y-46006366D02*
X101636769Y-46006366D01*
X101636769Y-45712210D01*
X101600000Y-45638671D01*
X101563230Y-45601902D01*
X101489691Y-45565132D01*
X101379382Y-45565132D01*
X101305843Y-45601902D01*
X101269074Y-45638671D01*
X101232304Y-45712210D01*
X101232304Y-46006366D01*
X101636769Y-45307745D02*
X100864609Y-44792972D01*
X101636769Y-44792972D02*
X100864609Y-45307745D01*
X100620769Y-45932827D02*
X100620769Y-45491593D01*
X99848609Y-45712210D02*
X100620769Y-45712210D01*
X100620769Y-45307745D02*
X99848609Y-44792972D01*
X100620769Y-44792972D02*
X99848609Y-45307745D01*
X99568000Y-46447601D02*
X99604769Y-46521140D01*
X99604769Y-46631448D01*
X99568000Y-46741757D01*
X99494460Y-46815296D01*
X99420921Y-46852065D01*
X99273843Y-46888835D01*
X99163535Y-46888835D01*
X99016457Y-46852065D01*
X98942918Y-46815296D01*
X98869379Y-46741757D01*
X98832609Y-46631448D01*
X98832609Y-46557909D01*
X98869379Y-46447601D01*
X98906148Y-46410831D01*
X99163535Y-46410831D01*
X99163535Y-46557909D01*
X98832609Y-46079905D02*
X99604769Y-46079905D01*
X98832609Y-45638671D01*
X99604769Y-45638671D01*
X98832609Y-45270976D02*
X99604769Y-45270976D01*
X99604769Y-45087128D01*
X99568000Y-44976820D01*
X99494460Y-44903281D01*
X99420921Y-44866511D01*
X99273843Y-44829742D01*
X99163535Y-44829742D01*
X99016457Y-44866511D01*
X98942918Y-44903281D01*
X98869379Y-44976820D01*
X98832609Y-45087128D01*
X98832609Y-45270976D01*
D11*
X114935000Y-49377600D02*
X114935000Y-49885600D01*
X117983000Y-49377600D02*
X114935000Y-49377600D01*
X117983000Y-49885600D02*
X117983000Y-49377600D01*
X114935000Y-49885600D02*
X117983000Y-49885600D01*
X111375998Y-75776000D02*
G75*
G02X117853000Y-69680000I1607261J4781193D01*
G01*
G36*
X107696000Y-74422000D02*
G01*
X107378500Y-74422000D01*
X107696000Y-74104500D01*
X107696000Y-74422000D01*
G37*
X103886000Y-74422000D02*
X107696000Y-74422000D01*
X103886000Y-70612000D02*
X103886000Y-74422000D01*
X107696000Y-70612000D02*
X103886000Y-70612000D01*
X107696000Y-74422000D02*
X107696000Y-70612000D01*
D12*
X82169000Y-66929000D02*
G75*
G03X82169000Y-66929000I-127000J0D01*
G01*
D11*
G36*
X81978500Y-68199000D02*
G01*
X81978500Y-67691000D01*
X84645500Y-67691000D01*
X84645500Y-68199000D01*
X81978500Y-68199000D01*
G37*
X82042000Y-74549000D02*
X84582000Y-74549000D01*
X82042000Y-68199000D02*
X82042000Y-74549000D01*
X84582000Y-68199000D02*
X82042000Y-68199000D01*
X84582000Y-74549000D02*
X84582000Y-68199000D01*
G36*
X89662000Y-64770000D02*
G01*
X89662000Y-65405000D01*
X89027000Y-64770000D01*
X89662000Y-64770000D01*
G37*
X84582000Y-69850000D02*
X84582000Y-69215000D01*
X85217000Y-69850000D02*
X84582000Y-69850000D01*
X89662000Y-69850000D02*
X89027000Y-69850000D01*
X89662000Y-69215000D02*
X89662000Y-69850000D01*
X84582000Y-64770000D02*
X84582000Y-65405000D01*
X85217000Y-64770000D02*
X84582000Y-64770000D01*
X95930000Y-49855000D02*
X98470000Y-49855000D01*
X95930000Y-46045000D02*
X95930000Y-49855000D01*
X98470000Y-46045000D02*
X95930000Y-46045000D01*
X98470000Y-49855000D02*
X98470000Y-46045000D01*
X87355000Y-52920000D02*
X87355000Y-50380000D01*
X83545000Y-52920000D02*
X87355000Y-52920000D01*
X83545000Y-50380000D02*
X83545000Y-52920000D01*
X87355000Y-50380000D02*
X83545000Y-50380000D01*
X91520000Y-54545000D02*
X88980000Y-54545000D01*
X91520000Y-58355000D02*
X91520000Y-54545000D01*
X88980000Y-58355000D02*
X91520000Y-58355000D01*
X88980000Y-54545000D02*
X88980000Y-58355000D01*
X83545000Y-59980000D02*
X83545000Y-62520000D01*
X87355000Y-59980000D02*
X83545000Y-59980000D01*
X87355000Y-62520000D02*
X87355000Y-59980000D01*
X83545000Y-62520000D02*
X87355000Y-62520000D01*
X79380000Y-58355000D02*
X81920000Y-58355000D01*
X79380000Y-54545000D02*
X79380000Y-58355000D01*
X81920000Y-54545000D02*
X79380000Y-54545000D01*
X81920000Y-58355000D02*
X81920000Y-54545000D01*
X107045000Y-50370000D02*
X107045000Y-52910000D01*
X110855000Y-50370000D02*
X107045000Y-50370000D01*
X110855000Y-52910000D02*
X110855000Y-50370000D01*
X107045000Y-52910000D02*
X110855000Y-52910000D01*
X112480000Y-58355000D02*
X115020000Y-58355000D01*
X112480000Y-54545000D02*
X112480000Y-58355000D01*
X115020000Y-54545000D02*
X112480000Y-54545000D01*
X115020000Y-58355000D02*
X115020000Y-54545000D01*
X110855000Y-62530000D02*
X110855000Y-59990000D01*
X107045000Y-62530000D02*
X110855000Y-62530000D01*
X107045000Y-59990000D02*
X107045000Y-62530000D01*
X110855000Y-59990000D02*
X107045000Y-59990000D01*
X105420000Y-54545000D02*
X102880000Y-54545000D01*
X105420000Y-58355000D02*
X105420000Y-54545000D01*
X102880000Y-58355000D02*
X105420000Y-58355000D01*
X102880000Y-54545000D02*
X102880000Y-58355000D01*
X95105000Y-73220000D02*
X95105000Y-70680000D01*
X91295000Y-73220000D02*
X95105000Y-73220000D01*
X91295000Y-70680000D02*
X91295000Y-73220000D01*
X95105000Y-70680000D02*
X91295000Y-70680000D01*
X99295000Y-70680000D02*
X99295000Y-73220000D01*
X103105000Y-70680000D02*
X99295000Y-70680000D01*
X103105000Y-73220000D02*
X103105000Y-70680000D01*
X99295000Y-73220000D02*
X103105000Y-73220000D01*
D13*
X85166200Y-74168000D02*
G75*
G03X85166200Y-74168000I-76200J0D01*
G01*
D11*
G36*
X84836000Y-75882500D02*
G01*
X84455000Y-75882500D01*
X84455000Y-74739500D01*
X84836000Y-74739500D01*
X84836000Y-75882500D01*
G37*
X84582000Y-74803000D02*
X84582000Y-75819000D01*
X82296000Y-74803000D02*
X84582000Y-74803000D01*
X82296000Y-75819000D02*
X82296000Y-74803000D01*
X84582000Y-75819000D02*
X82296000Y-75819000D01*
X103505000Y-67310000D02*
X104775000Y-67310000D01*
X103505000Y-70612000D02*
X103505000Y-67310000D01*
X104775000Y-70612000D02*
X103505000Y-70612000D01*
X104775000Y-67310000D02*
X104775000Y-70612000D01*
X92710000Y-51689000D02*
X92710000Y-50673000D01*
X94488000Y-51689000D02*
X92710000Y-51689000D01*
X94488000Y-50673000D02*
X94488000Y-51689000D01*
X92710000Y-50673000D02*
X94488000Y-50673000D01*
X85598000Y-72136000D02*
X86614000Y-72136000D01*
X85598000Y-73914000D02*
X85598000Y-72136000D01*
X86614000Y-73914000D02*
X85598000Y-73914000D01*
X86614000Y-72136000D02*
X86614000Y-73914000D01*
X89662000Y-44831000D02*
X90678000Y-44831000D01*
X89662000Y-46609000D02*
X89662000Y-44831000D01*
X90678000Y-46609000D02*
X89662000Y-46609000D01*
X90678000Y-44831000D02*
X90678000Y-46609000D01*
X91694000Y-44831000D02*
X92710000Y-44831000D01*
X91694000Y-46609000D02*
X91694000Y-44831000D01*
X92710000Y-46609000D02*
X91694000Y-46609000D01*
X92710000Y-44831000D02*
X92710000Y-46609000D01*
X86614000Y-44831000D02*
X87630000Y-44831000D01*
X86614000Y-46609000D02*
X86614000Y-44831000D01*
X87630000Y-46609000D02*
X86614000Y-46609000D01*
X87630000Y-44831000D02*
X87630000Y-46609000D01*
X92710000Y-44831000D02*
X93726000Y-44831000D01*
X92710000Y-46609000D02*
X92710000Y-44831000D01*
X93726000Y-46609000D02*
X92710000Y-46609000D01*
X93726000Y-44831000D02*
X93726000Y-46609000D01*
X88646000Y-44831000D02*
X89662000Y-44831000D01*
X88646000Y-46609000D02*
X88646000Y-44831000D01*
X89662000Y-46609000D02*
X88646000Y-46609000D01*
X89662000Y-44831000D02*
X89662000Y-46609000D01*
X87630000Y-44831000D02*
X88646000Y-44831000D01*
X87630000Y-46609000D02*
X87630000Y-44831000D01*
X88646000Y-46609000D02*
X87630000Y-46609000D01*
X88646000Y-44831000D02*
X88646000Y-46609000D01*
X103886000Y-75819000D02*
X102870000Y-75819000D01*
X103886000Y-74041000D02*
X103886000Y-75819000D01*
X102870000Y-74041000D02*
X103886000Y-74041000D01*
X102870000Y-75819000D02*
X102870000Y-74041000D01*
X90297000Y-70739000D02*
X90297000Y-71755000D01*
X88519000Y-70739000D02*
X90297000Y-70739000D01*
X88519000Y-71755000D02*
X88519000Y-70739000D01*
X90297000Y-71755000D02*
X88519000Y-71755000D01*
X78613000Y-50927000D02*
X79629000Y-50927000D01*
X78613000Y-52705000D02*
X78613000Y-50927000D01*
X79629000Y-52705000D02*
X78613000Y-52705000D01*
X79629000Y-50927000D02*
X79629000Y-52705000D01*
X91059000Y-61341000D02*
X91059000Y-62357000D01*
X89281000Y-61341000D02*
X91059000Y-61341000D01*
X89281000Y-62357000D02*
X89281000Y-61341000D01*
X91059000Y-62357000D02*
X89281000Y-62357000D01*
X92329000Y-61976000D02*
X91313000Y-61976000D01*
X92329000Y-60198000D02*
X92329000Y-61976000D01*
X91313000Y-60198000D02*
X92329000Y-60198000D01*
X91313000Y-61976000D02*
X91313000Y-60198000D01*
X79883000Y-50673000D02*
X79883000Y-49657000D01*
X81661000Y-50673000D02*
X79883000Y-50673000D01*
X81661000Y-49657000D02*
X81661000Y-50673000D01*
X79883000Y-49657000D02*
X81661000Y-49657000D01*
X103378000Y-59436000D02*
X103378000Y-60452000D01*
X101600000Y-59436000D02*
X103378000Y-59436000D01*
X101600000Y-60452000D02*
X101600000Y-59436000D01*
X103378000Y-60452000D02*
X101600000Y-60452000D01*
X105791000Y-59436000D02*
X105791000Y-60452000D01*
X104013000Y-59436000D02*
X105791000Y-59436000D01*
X104013000Y-60452000D02*
X104013000Y-59436000D01*
X105791000Y-60452000D02*
X104013000Y-60452000D01*
X114681000Y-52451000D02*
X114681000Y-53467000D01*
X112903000Y-52451000D02*
X114681000Y-52451000D01*
X112903000Y-53467000D02*
X112903000Y-52451000D01*
X114681000Y-53467000D02*
X112903000Y-53467000D01*
X113665000Y-49911000D02*
X113665000Y-50927000D01*
X111887000Y-49911000D02*
X113665000Y-49911000D01*
X111887000Y-50927000D02*
X111887000Y-49911000D01*
X113665000Y-50927000D02*
X111887000Y-50927000D01*
X90678000Y-44831000D02*
X91694000Y-44831000D01*
X90678000Y-46609000D02*
X90678000Y-44831000D01*
X91694000Y-46609000D02*
X90678000Y-46609000D01*
X91694000Y-44831000D02*
X91694000Y-46609000D01*
X89400002Y-69723000D02*
G75*
G03X89400000Y-70739000I-1J-508000D01*
G01*
X90432000Y-70739000D02*
X89400000Y-70739000D01*
X90431998Y-70739000D02*
G75*
G03X90432000Y-69723000I1J508000D01*
G01*
X89400000Y-69723000D02*
X90432000Y-69723000D01*
X100076000Y-68460998D02*
G75*
G03X101092000Y-68461000I508000J-1D01*
G01*
X101092000Y-67429000D02*
X101092000Y-68461000D01*
X101092000Y-67429002D02*
G75*
G03X100076000Y-67429000I-508000J1D01*
G01*
X100076000Y-68461000D02*
X100076000Y-67429000D01*
X97401002Y-69342000D02*
G75*
G03X97401000Y-70358000I-1J-508000D01*
G01*
X98433000Y-70358000D02*
X97401000Y-70358000D01*
X98432998Y-70358000D02*
G75*
G03X98433000Y-69342000I1J508000D01*
G01*
X97401000Y-69342000D02*
X98433000Y-69342000D01*
X95504000Y-65905002D02*
G75*
G03X94488000Y-65905000I-508000J1D01*
G01*
X94488000Y-66937000D02*
X94488000Y-65905000D01*
X94488000Y-66936998D02*
G75*
G03X95504000Y-66937000I508000J-1D01*
G01*
X95504000Y-65905000D02*
X95504000Y-66937000D01*
X97401002Y-68326000D02*
G75*
G03X97401000Y-69342000I-1J-508000D01*
G01*
X98433000Y-69342000D02*
X97401000Y-69342000D01*
X98432998Y-69342000D02*
G75*
G03X98433000Y-68326000I1J508000D01*
G01*
X97401000Y-68326000D02*
X98433000Y-68326000D01*
X106172000Y-48013998D02*
G75*
G03X107188000Y-48014000I508000J-1D01*
G01*
X107188000Y-46982000D02*
X107188000Y-48014000D01*
X107188000Y-46982002D02*
G75*
G03X106172000Y-46982000I-508000J1D01*
G01*
X106172000Y-48014000D02*
X106172000Y-46982000D01*
X104640002Y-46228000D02*
G75*
G03X104640000Y-47244000I-1J-508000D01*
G01*
X105672000Y-47244000D02*
X104640000Y-47244000D01*
X105671998Y-47244000D02*
G75*
G03X105672000Y-46228000I1J508000D01*
G01*
X104640000Y-46228000D02*
X105672000Y-46228000D01*
X100464998Y-51816000D02*
G75*
G03X100465000Y-50800000I1J508000D01*
G01*
X99433000Y-50800000D02*
X100465000Y-50800000D01*
X99433002Y-50800000D02*
G75*
G03X99433000Y-51816000I-1J-508000D01*
G01*
X100465000Y-51816000D02*
X99433000Y-51816000D01*
X113157000Y-62999998D02*
G75*
G03X114173000Y-63000000I508000J-1D01*
G01*
X114173000Y-61968000D02*
X114173000Y-63000000D01*
X114173000Y-61968002D02*
G75*
G03X113157000Y-61968000I-508000J1D01*
G01*
X113157000Y-63000000D02*
X113157000Y-61968000D01*
X108458000Y-67048002D02*
G75*
G03X107442000Y-67048000I-508000J1D01*
G01*
X107442000Y-68080000D02*
X107442000Y-67048000D01*
X107442000Y-68079998D02*
G75*
G03X108458000Y-68080000I508000J-1D01*
G01*
X108458000Y-67048000D02*
X108458000Y-68080000D01*
X104140000Y-48775998D02*
G75*
G03X105156000Y-48776000I508000J-1D01*
G01*
X105156000Y-47744000D02*
X105156000Y-48776000D01*
X105156000Y-47744002D02*
G75*
G03X104140000Y-47744000I-508000J1D01*
G01*
X104140000Y-48776000D02*
X104140000Y-47744000D01*
X107188000Y-48013998D02*
G75*
G03X108204000Y-48014000I508000J-1D01*
G01*
X108204000Y-46982000D02*
X108204000Y-48014000D01*
X108204000Y-46982002D02*
G75*
G03X107188000Y-46982000I-508000J1D01*
G01*
X107188000Y-48014000D02*
X107188000Y-46982000D01*
X101854000Y-66428998D02*
G75*
G03X102870000Y-66429000I508000J-1D01*
G01*
X102870000Y-65397000D02*
X102870000Y-66429000D01*
X102870000Y-65397002D02*
G75*
G03X101854000Y-65397000I-508000J1D01*
G01*
X101854000Y-66429000D02*
X101854000Y-65397000D01*
X112141000Y-62999998D02*
G75*
G03X113157000Y-63000000I508000J-1D01*
G01*
X113157000Y-61968000D02*
X113157000Y-63000000D01*
X113157000Y-61968002D02*
G75*
G03X112141000Y-61968000I-508000J1D01*
G01*
X112141000Y-63000000D02*
X112141000Y-61968000D01*
X102870000Y-48775998D02*
G75*
G03X103886000Y-48776000I508000J-1D01*
G01*
X103886000Y-47744000D02*
X103886000Y-48776000D01*
X103886000Y-47744002D02*
G75*
G03X102870000Y-47744000I-508000J1D01*
G01*
X102870000Y-48776000D02*
X102870000Y-47744000D01*
X102369998Y-49276000D02*
G75*
G03X102370000Y-48260000I1J508000D01*
G01*
X101338000Y-48260000D02*
X102370000Y-48260000D01*
X101338002Y-48260000D02*
G75*
G03X101338000Y-49276000I-1J-508000D01*
G01*
X102370000Y-49276000D02*
X101338000Y-49276000D01*
X101346000Y-65270002D02*
G75*
G03X100330000Y-65270000I-508000J1D01*
G01*
X100330000Y-66302000D02*
X100330000Y-65270000D01*
X100330000Y-66301998D02*
G75*
G03X101346000Y-66302000I508000J-1D01*
G01*
X101346000Y-65270000D02*
X101346000Y-66302000D01*
X105156000Y-48775998D02*
G75*
G03X106172000Y-48776000I508000J-1D01*
G01*
X106172000Y-47744000D02*
X106172000Y-48776000D01*
X106172000Y-47744002D02*
G75*
G03X105156000Y-47744000I-508000J1D01*
G01*
X105156000Y-48776000D02*
X105156000Y-47744000D01*
X104775000Y-68841998D02*
G75*
G03X105791000Y-68842000I508000J-1D01*
G01*
X105791000Y-67810000D02*
X105791000Y-68842000D01*
X105791000Y-67810002D02*
G75*
G03X104775000Y-67810000I-508000J1D01*
G01*
X104775000Y-68842000D02*
X104775000Y-67810000D01*
X102862002Y-62865000D02*
G75*
G03X102862000Y-63881000I-1J-508000D01*
G01*
X103894000Y-63881000D02*
X102862000Y-63881000D01*
X103893998Y-63881000D02*
G75*
G03X103894000Y-62865000I1J508000D01*
G01*
X102862000Y-62865000D02*
X103894000Y-62865000D01*
X113672998Y-64516000D02*
G75*
G03X113673000Y-63500000I1J508000D01*
G01*
X112641000Y-63500000D02*
X113673000Y-63500000D01*
X112641002Y-63500000D02*
G75*
G03X112641000Y-64516000I-1J-508000D01*
G01*
X113673000Y-64516000D02*
X112641000Y-64516000D01*
X112148998Y-65532000D02*
G75*
G03X112149000Y-64516000I1J508000D01*
G01*
X111117000Y-64516000D02*
X112149000Y-64516000D01*
X111117002Y-64516000D02*
G75*
G03X111117000Y-65532000I-1J-508000D01*
G01*
X112149000Y-65532000D02*
X111117000Y-65532000D01*
X109601000Y-65016002D02*
G75*
G03X108585000Y-65016000I-508000J1D01*
G01*
X108585000Y-66048000D02*
X108585000Y-65016000D01*
X108585000Y-66047998D02*
G75*
G03X109601000Y-66048000I508000J-1D01*
G01*
X109601000Y-65016000D02*
X109601000Y-66048000D01*
X107068998Y-65532000D02*
G75*
G03X107069000Y-64516000I1J508000D01*
G01*
X106037000Y-64516000D02*
X107069000Y-64516000D01*
X106037002Y-64516000D02*
G75*
G03X106037000Y-65532000I-1J-508000D01*
G01*
X107069000Y-65532000D02*
X106037000Y-65532000D01*
X114038002Y-64516000D02*
G75*
G03X114038000Y-65532000I-1J-508000D01*
G01*
X115070000Y-65532000D02*
X114038000Y-65532000D01*
X115069998Y-65532000D02*
G75*
G03X115070000Y-64516000I1J508000D01*
G01*
X114038000Y-64516000D02*
X115070000Y-64516000D01*
X93345000Y-60825002D02*
G75*
G03X92329000Y-60825000I-508000J1D01*
G01*
X92329000Y-61857000D02*
X92329000Y-60825000D01*
X92329000Y-61856998D02*
G75*
G03X93345000Y-61857000I508000J-1D01*
G01*
X93345000Y-60825000D02*
X93345000Y-61857000D01*
X88257002Y-63754000D02*
G75*
G03X88257000Y-64770000I-1J-508000D01*
G01*
X89289000Y-64770000D02*
X88257000Y-64770000D01*
X89288998Y-64770000D02*
G75*
G03X89289000Y-63754000I1J508000D01*
G01*
X88257000Y-63754000D02*
X89289000Y-63754000D01*
X89273002Y-62357000D02*
G75*
G03X89273000Y-63373000I-1J-508000D01*
G01*
X90305000Y-63373000D02*
X89273000Y-63373000D01*
X90304998Y-63373000D02*
G75*
G03X90305000Y-62357000I1J508000D01*
G01*
X89273000Y-62357000D02*
X90305000Y-62357000D01*
X93472000Y-66936998D02*
G75*
G03X94488000Y-66937000I508000J-1D01*
G01*
X94488000Y-65905000D02*
X94488000Y-66937000D01*
X94488000Y-65905002D02*
G75*
G03X93472000Y-65905000I-508000J1D01*
G01*
X93472000Y-66937000D02*
X93472000Y-65905000D01*
X96647000Y-71374000D02*
X96647000Y-70358000D01*
X98679000Y-71374000D02*
X96647000Y-71374000D01*
X98679000Y-70358000D02*
X98679000Y-71374000D01*
X96647000Y-70358000D02*
X98679000Y-70358000D01*
X100584000Y-62103000D02*
X101600000Y-62103000D01*
X100584000Y-64135000D02*
X100584000Y-62103000D01*
X101600000Y-64135000D02*
X100584000Y-64135000D01*
X101600000Y-62103000D02*
X101600000Y-64135000D01*
X94869000Y-65405000D02*
X93853000Y-65405000D01*
X94869000Y-63373000D02*
X94869000Y-65405000D01*
X93853000Y-63373000D02*
X94869000Y-63373000D01*
X93853000Y-65405000D02*
X93853000Y-63373000D01*
X100330000Y-66802000D02*
X99314000Y-66802000D01*
X100330000Y-64770000D02*
X100330000Y-66802000D01*
X99314000Y-64770000D02*
X100330000Y-64770000D01*
X99314000Y-66802000D02*
X99314000Y-64770000D01*
X116205000Y-61722000D02*
X115189000Y-61722000D01*
X116205000Y-59690000D02*
X116205000Y-61722000D01*
X115189000Y-59690000D02*
X116205000Y-59690000D01*
X115189000Y-61722000D02*
X115189000Y-59690000D01*
X115189000Y-61722000D02*
X114173000Y-61722000D01*
X115189000Y-59690000D02*
X115189000Y-61722000D01*
X114173000Y-59690000D02*
X115189000Y-59690000D01*
X114173000Y-61722000D02*
X114173000Y-59690000D01*
X99949000Y-57404000D02*
X100965000Y-57404000D01*
X99949000Y-59436000D02*
X99949000Y-57404000D01*
X100965000Y-59436000D02*
X99949000Y-59436000D01*
X100965000Y-57404000D02*
X100965000Y-59436000D01*
X110617000Y-66548000D02*
X109601000Y-66548000D01*
X110617000Y-64516000D02*
X110617000Y-66548000D01*
X109601000Y-64516000D02*
X110617000Y-64516000D01*
X109601000Y-66548000D02*
X109601000Y-64516000D01*
X102870000Y-48260000D02*
X101854000Y-48260000D01*
X102870000Y-46228000D02*
X102870000Y-48260000D01*
X101854000Y-46228000D02*
X102870000Y-46228000D01*
X101854000Y-48260000D02*
X101854000Y-46228000D01*
X101854000Y-48260000D02*
X100838000Y-48260000D01*
X101854000Y-46228000D02*
X101854000Y-48260000D01*
X100838000Y-46228000D02*
X101854000Y-46228000D01*
X100838000Y-48260000D02*
X100838000Y-46228000D01*
X108585000Y-66548000D02*
X107569000Y-66548000D01*
X108585000Y-64516000D02*
X108585000Y-66548000D01*
X107569000Y-64516000D02*
X108585000Y-64516000D01*
X107569000Y-66548000D02*
X107569000Y-64516000D01*
X102489000Y-67310000D02*
X103505000Y-67310000D01*
X102489000Y-69342000D02*
X102489000Y-67310000D01*
X103505000Y-69342000D02*
X102489000Y-69342000D01*
X103505000Y-67310000D02*
X103505000Y-69342000D01*
X105410000Y-64897000D02*
X104394000Y-64897000D01*
X105410000Y-62865000D02*
X105410000Y-64897000D01*
X104394000Y-62865000D02*
X105410000Y-62865000D01*
X104394000Y-64897000D02*
X104394000Y-62865000D01*
X104140000Y-46228000D02*
X104140000Y-45212000D01*
X106172000Y-46228000D02*
X104140000Y-46228000D01*
X106172000Y-45212000D02*
X106172000Y-46228000D01*
X104140000Y-45212000D02*
X106172000Y-45212000D01*
X84582000Y-71755000D02*
X85598000Y-71755000D01*
X84582000Y-73787000D02*
X84582000Y-71755000D01*
X85598000Y-73787000D02*
X84582000Y-73787000D01*
X85598000Y-71755000D02*
X85598000Y-73787000D01*
X114935000Y-51943000D02*
X113919000Y-51943000D01*
X114935000Y-49911000D02*
X114935000Y-51943000D01*
X113919000Y-49911000D02*
X114935000Y-49911000D01*
X113919000Y-51943000D02*
X113919000Y-49911000D01*
X114681000Y-48895000D02*
X114681000Y-49911000D01*
X112649000Y-48895000D02*
X114681000Y-48895000D01*
X112649000Y-49911000D02*
X112649000Y-48895000D01*
X114681000Y-49911000D02*
X112649000Y-49911000D01*
X117221000Y-61722000D02*
X116205000Y-61722000D01*
X117221000Y-59690000D02*
X117221000Y-61722000D01*
X116205000Y-59690000D02*
X117221000Y-59690000D01*
X116205000Y-61722000D02*
X116205000Y-59690000D01*
X111887000Y-51943000D02*
X111887000Y-50927000D01*
X113919000Y-51943000D02*
X111887000Y-51943000D01*
X113919000Y-50927000D02*
X113919000Y-51943000D01*
X111887000Y-50927000D02*
X113919000Y-50927000D01*
D14*
G36*
X99429306Y-52140451D02*
G01*
X99293846Y-52180840D01*
X99164622Y-52240840D01*
X99043628Y-52319463D01*
X98932858Y-52415720D01*
X98834308Y-52528622D01*
X98749972Y-52657182D01*
X98723853Y-52706350D01*
X98703414Y-52747740D01*
X98686182Y-52785089D01*
X98671865Y-52820830D01*
X98660171Y-52857396D01*
X98650810Y-52897219D01*
X98643490Y-52942733D01*
X98637919Y-52996370D01*
X98633806Y-53060563D01*
X98630861Y-53137744D01*
X98628790Y-53230346D01*
X98627304Y-53340802D01*
X98626111Y-53471545D01*
X98625682Y-53526069D01*
X98621407Y-54078372D01*
X99189953Y-54078372D01*
X99190043Y-53608767D01*
X99190394Y-53462813D01*
X99191653Y-53338254D01*
X99194214Y-53232860D01*
X99198474Y-53144404D01*
X99204828Y-53070657D01*
X99213673Y-53009392D01*
X99225404Y-52958380D01*
X99240416Y-52915392D01*
X99259106Y-52878201D01*
X99281869Y-52844579D01*
X99309102Y-52812296D01*
X99336594Y-52783710D01*
X99413887Y-52721037D01*
X99496735Y-52679839D01*
X99582517Y-52659425D01*
X99668611Y-52659102D01*
X99752397Y-52678178D01*
X99831253Y-52715960D01*
X99902559Y-52771755D01*
X99963692Y-52844872D01*
X100012032Y-52934617D01*
X100023852Y-52965258D01*
X100030571Y-52984721D01*
X100036122Y-53003095D01*
X100040616Y-53022763D01*
X100044166Y-53046108D01*
X100046886Y-53075513D01*
X100048889Y-53113360D01*
X100050288Y-53162033D01*
X100051195Y-53223914D01*
X100051724Y-53301385D01*
X100051987Y-53396831D01*
X100052098Y-53512633D01*
X100052123Y-53561511D01*
X100052372Y-54078372D01*
X100619442Y-54078372D01*
X100619442Y-53540215D01*
X100619328Y-53408326D01*
X100618941Y-53297774D01*
X100618210Y-53206270D01*
X100617065Y-53131524D01*
X100615436Y-53071247D01*
X100613253Y-53023148D01*
X100610447Y-52984938D01*
X100606947Y-52954327D01*
X100602683Y-52929026D01*
X100600433Y-52918485D01*
X100555472Y-52773020D01*
X100489636Y-52636820D01*
X100404529Y-52511881D01*
X100301758Y-52400195D01*
X100182928Y-52303756D01*
X100049643Y-52224559D01*
X100036464Y-52218090D01*
X99980244Y-52192786D01*
X99921820Y-52169458D01*
X99870693Y-52151800D01*
X99853154Y-52146828D01*
X99710955Y-52122456D01*
X99569007Y-52120660D01*
X99429306Y-52140451D01*
G37*
X99429306Y-52140451D02*
X99293846Y-52180840D01*
X99164622Y-52240840D01*
X99043628Y-52319463D01*
X98932858Y-52415720D01*
X98834308Y-52528622D01*
X98749972Y-52657182D01*
X98723853Y-52706350D01*
X98703414Y-52747740D01*
X98686182Y-52785089D01*
X98671865Y-52820830D01*
X98660171Y-52857396D01*
X98650810Y-52897219D01*
X98643490Y-52942733D01*
X98637919Y-52996370D01*
X98633806Y-53060563D01*
X98630861Y-53137744D01*
X98628790Y-53230346D01*
X98627304Y-53340802D01*
X98626111Y-53471545D01*
X98625682Y-53526069D01*
X98621407Y-54078372D01*
X99189953Y-54078372D01*
X99190043Y-53608767D01*
X99190394Y-53462813D01*
X99191653Y-53338254D01*
X99194214Y-53232860D01*
X99198474Y-53144404D01*
X99204828Y-53070657D01*
X99213673Y-53009392D01*
X99225404Y-52958380D01*
X99240416Y-52915392D01*
X99259106Y-52878201D01*
X99281869Y-52844579D01*
X99309102Y-52812296D01*
X99336594Y-52783710D01*
X99413887Y-52721037D01*
X99496735Y-52679839D01*
X99582517Y-52659425D01*
X99668611Y-52659102D01*
X99752397Y-52678178D01*
X99831253Y-52715960D01*
X99902559Y-52771755D01*
X99963692Y-52844872D01*
X100012032Y-52934617D01*
X100023852Y-52965258D01*
X100030571Y-52984721D01*
X100036122Y-53003095D01*
X100040616Y-53022763D01*
X100044166Y-53046108D01*
X100046886Y-53075513D01*
X100048889Y-53113360D01*
X100050288Y-53162033D01*
X100051195Y-53223914D01*
X100051724Y-53301385D01*
X100051987Y-53396831D01*
X100052098Y-53512633D01*
X100052123Y-53561511D01*
X100052372Y-54078372D01*
X100619442Y-54078372D01*
X100619442Y-53540215D01*
X100619328Y-53408326D01*
X100618941Y-53297774D01*
X100618210Y-53206270D01*
X100617065Y-53131524D01*
X100615436Y-53071247D01*
X100613253Y-53023148D01*
X100610447Y-52984938D01*
X100606947Y-52954327D01*
X100602683Y-52929026D01*
X100600433Y-52918485D01*
X100555472Y-52773020D01*
X100489636Y-52636820D01*
X100404529Y-52511881D01*
X100301758Y-52400195D01*
X100182928Y-52303756D01*
X100049643Y-52224559D01*
X100036464Y-52218090D01*
X99980244Y-52192786D01*
X99921820Y-52169458D01*
X99870693Y-52151800D01*
X99853154Y-52146828D01*
X99710955Y-52122456D01*
X99569007Y-52120660D01*
X99429306Y-52140451D01*
G36*
X104320163Y-50936072D02*
G01*
X103401628Y-50936285D01*
X103364325Y-50992189D01*
X103344528Y-51021650D01*
X103314777Y-51065671D01*
X103278432Y-51119288D01*
X103238852Y-51177543D01*
X103219171Y-51206460D01*
X103111319Y-51364828D01*
X103114706Y-51466367D01*
X103118093Y-51567907D01*
X103859418Y-51570949D01*
X104600744Y-51573991D01*
X104600744Y-52152697D01*
X103372093Y-52152697D01*
X103372093Y-52790651D01*
X104600744Y-52790651D01*
X104600744Y-54113813D01*
X104949256Y-54113539D01*
X105093977Y-53904058D01*
X105238697Y-53694576D01*
X105238697Y-50935860D01*
X104320163Y-50936072D01*
G37*
X104320163Y-50936072D02*
X103401628Y-50936285D01*
X103364325Y-50992189D01*
X103344528Y-51021650D01*
X103314777Y-51065671D01*
X103278432Y-51119288D01*
X103238852Y-51177543D01*
X103219171Y-51206460D01*
X103111319Y-51364828D01*
X103114706Y-51466367D01*
X103118093Y-51567907D01*
X103859418Y-51570949D01*
X104600744Y-51573991D01*
X104600744Y-52152697D01*
X103372093Y-52152697D01*
X103372093Y-52790651D01*
X104600744Y-52790651D01*
X104600744Y-54113813D01*
X104949256Y-54113539D01*
X105093977Y-53904058D01*
X105238697Y-53694576D01*
X105238697Y-50935860D01*
X104320163Y-50936072D01*
G36*
X102391535Y-52700993D02*
G01*
X102391467Y-52825913D01*
X102391204Y-52929582D01*
X102390655Y-53014378D01*
X102389728Y-53082679D01*
X102388333Y-53136860D01*
X102386379Y-53179301D01*
X102383774Y-53212378D01*
X102380427Y-53238468D01*
X102376249Y-53259949D01*
X102371146Y-53279198D01*
X102369152Y-53285762D01*
X102328012Y-53384033D01*
X102271770Y-53465127D01*
X102201736Y-53528040D01*
X102119221Y-53571769D01*
X102025533Y-53595308D01*
X101960325Y-53599314D01*
X101906164Y-53597495D01*
X101865424Y-53591406D01*
X101827996Y-53578888D01*
X101796965Y-53564459D01*
X101730563Y-53521954D01*
X101668070Y-53464852D01*
X101615632Y-53399776D01*
X101579398Y-53333350D01*
X101577195Y-53327674D01*
X101565772Y-53294467D01*
X101556290Y-53259746D01*
X101548574Y-53221023D01*
X101542450Y-53175807D01*
X101537742Y-53121611D01*
X101534277Y-53055945D01*
X101531879Y-52976320D01*
X101530374Y-52880247D01*
X101529587Y-52765236D01*
X101529350Y-52645930D01*
X101529116Y-52188139D01*
X100960179Y-52188139D01*
X100964884Y-52728627D01*
X100966046Y-52856550D01*
X100967184Y-52963240D01*
X100968412Y-53051091D01*
X100969847Y-53122498D01*
X100971603Y-53179855D01*
X100973798Y-53225557D01*
X100976546Y-53261999D01*
X100979962Y-53291574D01*
X100984163Y-53316677D01*
X100989264Y-53339703D01*
X100995381Y-53363045D01*
X100995541Y-53363627D01*
X101047877Y-53512001D01*
X101119445Y-53648898D01*
X101208569Y-53772647D01*
X101313575Y-53881575D01*
X101432789Y-53974011D01*
X101564536Y-54048283D01*
X101707143Y-54102719D01*
X101746611Y-54113626D01*
X101833179Y-54129165D01*
X101932154Y-54136402D01*
X102034119Y-54135306D01*
X102129656Y-54125850D01*
X102184791Y-54114970D01*
X102328497Y-54067040D01*
X102462762Y-53998620D01*
X102585634Y-53911631D01*
X102695161Y-53807994D01*
X102789391Y-53689629D01*
X102866371Y-53558457D01*
X102924151Y-53416397D01*
X102936480Y-53375441D01*
X102942677Y-53352296D01*
X102947849Y-53329686D01*
X102952113Y-53305237D01*
X102955584Y-53276573D01*
X102958377Y-53241320D01*
X102960607Y-53197101D01*
X102962388Y-53141543D01*
X102963837Y-53072269D01*
X102965068Y-52986904D01*
X102966197Y-52883073D01*
X102967339Y-52758402D01*
X102967546Y-52734534D01*
X102972270Y-52188139D01*
X102391535Y-52188139D01*
X102391535Y-52700993D01*
G37*
X102391535Y-52700993D02*
X102391467Y-52825913D01*
X102391204Y-52929582D01*
X102390655Y-53014378D01*
X102389728Y-53082679D01*
X102388333Y-53136860D01*
X102386379Y-53179301D01*
X102383774Y-53212378D01*
X102380427Y-53238468D01*
X102376249Y-53259949D01*
X102371146Y-53279198D01*
X102369152Y-53285762D01*
X102328012Y-53384033D01*
X102271770Y-53465127D01*
X102201736Y-53528040D01*
X102119221Y-53571769D01*
X102025533Y-53595308D01*
X101960325Y-53599314D01*
X101906164Y-53597495D01*
X101865424Y-53591406D01*
X101827996Y-53578888D01*
X101796965Y-53564459D01*
X101730563Y-53521954D01*
X101668070Y-53464852D01*
X101615632Y-53399776D01*
X101579398Y-53333350D01*
X101577195Y-53327674D01*
X101565772Y-53294467D01*
X101556290Y-53259746D01*
X101548574Y-53221023D01*
X101542450Y-53175807D01*
X101537742Y-53121611D01*
X101534277Y-53055945D01*
X101531879Y-52976320D01*
X101530374Y-52880247D01*
X101529587Y-52765236D01*
X101529350Y-52645930D01*
X101529116Y-52188139D01*
X100960179Y-52188139D01*
X100964884Y-52728627D01*
X100966046Y-52856550D01*
X100967184Y-52963240D01*
X100968412Y-53051091D01*
X100969847Y-53122498D01*
X100971603Y-53179855D01*
X100973798Y-53225557D01*
X100976546Y-53261999D01*
X100979962Y-53291574D01*
X100984163Y-53316677D01*
X100989264Y-53339703D01*
X100995381Y-53363045D01*
X100995541Y-53363627D01*
X101047877Y-53512001D01*
X101119445Y-53648898D01*
X101208569Y-53772647D01*
X101313575Y-53881575D01*
X101432789Y-53974011D01*
X101564536Y-54048283D01*
X101707143Y-54102719D01*
X101746611Y-54113626D01*
X101833179Y-54129165D01*
X101932154Y-54136402D01*
X102034119Y-54135306D01*
X102129656Y-54125850D01*
X102184791Y-54114970D01*
X102328497Y-54067040D01*
X102462762Y-53998620D01*
X102585634Y-53911631D01*
X102695161Y-53807994D01*
X102789391Y-53689629D01*
X102866371Y-53558457D01*
X102924151Y-53416397D01*
X102936480Y-53375441D01*
X102942677Y-53352296D01*
X102947849Y-53329686D01*
X102952113Y-53305237D01*
X102955584Y-53276573D01*
X102958377Y-53241320D01*
X102960607Y-53197101D01*
X102962388Y-53141543D01*
X102963837Y-53072269D01*
X102965068Y-52986904D01*
X102966197Y-52883073D01*
X102967339Y-52758402D01*
X102967546Y-52734534D01*
X102972270Y-52188139D01*
X102391535Y-52188139D01*
X102391535Y-52700993D01*
G36*
X97663092Y-51517697D02*
G01*
X97660046Y-52229488D01*
X97633539Y-52179895D01*
X97606966Y-52140960D01*
X97572395Y-52103271D01*
X97560678Y-52093051D01*
X97545390Y-52077665D01*
X97516571Y-52045553D01*
X97475582Y-51998332D01*
X97423784Y-51937620D01*
X97362539Y-51865033D01*
X97293210Y-51782188D01*
X97217156Y-51690704D01*
X97135740Y-51592196D01*
X97050323Y-51488283D01*
X97008301Y-51436958D01*
X96912240Y-51319835D01*
X96823167Y-51211943D01*
X96742053Y-51114421D01*
X96669868Y-51028413D01*
X96607582Y-50955060D01*
X96556164Y-50895505D01*
X96516584Y-50850888D01*
X96489813Y-50822351D01*
X96476820Y-50811038D01*
X96476550Y-50810945D01*
X96441731Y-50808751D01*
X96405155Y-50823525D01*
X96374492Y-50845739D01*
X96341216Y-50873026D01*
X96828698Y-51467785D01*
X96916258Y-51574951D01*
X96997593Y-51675166D01*
X97071622Y-51767057D01*
X97137265Y-51849256D01*
X97193441Y-51920390D01*
X97239068Y-51979090D01*
X97273065Y-52023985D01*
X97294352Y-52053704D01*
X97301848Y-52066877D01*
X97301607Y-52067402D01*
X97271743Y-52085073D01*
X97237924Y-52116220D01*
X97207397Y-52153517D01*
X97192877Y-52177341D01*
X97177616Y-52223062D01*
X97170325Y-52278618D01*
X97171506Y-52333797D01*
X97181659Y-52378384D01*
X97182884Y-52381212D01*
X97184600Y-52387638D01*
X97183918Y-52396285D01*
X97179963Y-52408471D01*
X97171858Y-52425519D01*
X97158729Y-52448747D01*
X97139699Y-52479478D01*
X97113894Y-52519031D01*
X97080438Y-52568727D01*
X97038456Y-52629887D01*
X96987071Y-52703831D01*
X96925408Y-52791880D01*
X96852593Y-52895355D01*
X96767749Y-53015575D01*
X96680323Y-53139266D01*
X96597645Y-53256300D01*
X96519001Y-53367840D01*
X96445451Y-53472371D01*
X96378055Y-53568376D01*
X96317871Y-53654339D01*
X96265961Y-53728743D01*
X96223384Y-53790071D01*
X96191200Y-53836808D01*
X96170468Y-53867437D01*
X96162248Y-53880441D01*
X96162159Y-53880692D01*
X96170490Y-53891218D01*
X96194844Y-53912155D01*
X96231538Y-53940878D01*
X96276887Y-53974763D01*
X96327208Y-54011186D01*
X96378818Y-54047522D01*
X96428033Y-54081146D01*
X96471170Y-54109434D01*
X96504544Y-54129762D01*
X96524472Y-54139504D01*
X96525907Y-54139860D01*
X96558420Y-54141312D01*
X96573163Y-54139580D01*
X96600745Y-54129577D01*
X96612099Y-54122461D01*
X96621253Y-54111018D01*
X96642943Y-54081807D01*
X96676070Y-54036357D01*
X96719539Y-53976196D01*
X96772252Y-53902856D01*
X96833112Y-53817866D01*
X96901021Y-53722754D01*
X96974883Y-53619052D01*
X97053600Y-53508288D01*
X97136075Y-53391991D01*
X97137820Y-53389528D01*
X97648232Y-52669033D01*
X97655492Y-52951354D01*
X97657332Y-53034292D01*
X97659104Y-53135336D01*
X97660736Y-53248961D01*
X97662161Y-53369646D01*
X97663311Y-53491867D01*
X97664115Y-53610101D01*
X97664352Y-53662263D01*
X97665953Y-54090852D01*
X97828238Y-54087565D01*
X97990522Y-54084279D01*
X98134956Y-53877534D01*
X98279389Y-53670790D01*
X98279818Y-52288558D01*
X97559628Y-52288558D01*
X97549394Y-52345082D01*
X97521508Y-52390237D01*
X97480191Y-52421587D01*
X97429664Y-52436695D01*
X97374149Y-52433126D01*
X97334776Y-52418311D01*
X97296321Y-52385850D01*
X97271771Y-52338329D01*
X97264279Y-52288558D01*
X97274317Y-52229603D01*
X97302957Y-52183961D01*
X97347988Y-52153761D01*
X97407197Y-52141131D01*
X97417689Y-52140883D01*
X97474357Y-52151212D01*
X97518722Y-52180291D01*
X97548038Y-52225265D01*
X97559557Y-52283274D01*
X97559628Y-52288558D01*
X98279818Y-52288558D01*
X98279834Y-52238348D01*
X98280279Y-50805907D01*
X97666138Y-50805907D01*
X97663092Y-51517697D01*
G37*
X97663092Y-51517697D02*
X97660046Y-52229488D01*
X97633539Y-52179895D01*
X97606966Y-52140960D01*
X97572395Y-52103271D01*
X97560678Y-52093051D01*
X97545390Y-52077665D01*
X97516571Y-52045553D01*
X97475582Y-51998332D01*
X97423784Y-51937620D01*
X97362539Y-51865033D01*
X97293210Y-51782188D01*
X97217156Y-51690704D01*
X97135740Y-51592196D01*
X97050323Y-51488283D01*
X97008301Y-51436958D01*
X96912240Y-51319835D01*
X96823167Y-51211943D01*
X96742053Y-51114421D01*
X96669868Y-51028413D01*
X96607582Y-50955060D01*
X96556164Y-50895505D01*
X96516584Y-50850888D01*
X96489813Y-50822351D01*
X96476820Y-50811038D01*
X96476550Y-50810945D01*
X96441731Y-50808751D01*
X96405155Y-50823525D01*
X96374492Y-50845739D01*
X96341216Y-50873026D01*
X96828698Y-51467785D01*
X96916258Y-51574951D01*
X96997593Y-51675166D01*
X97071622Y-51767057D01*
X97137265Y-51849256D01*
X97193441Y-51920390D01*
X97239068Y-51979090D01*
X97273065Y-52023985D01*
X97294352Y-52053704D01*
X97301848Y-52066877D01*
X97301607Y-52067402D01*
X97271743Y-52085073D01*
X97237924Y-52116220D01*
X97207397Y-52153517D01*
X97192877Y-52177341D01*
X97177616Y-52223062D01*
X97170325Y-52278618D01*
X97171506Y-52333797D01*
X97181659Y-52378384D01*
X97182884Y-52381212D01*
X97184600Y-52387638D01*
X97183918Y-52396285D01*
X97179963Y-52408471D01*
X97171858Y-52425519D01*
X97158729Y-52448747D01*
X97139699Y-52479478D01*
X97113894Y-52519031D01*
X97080438Y-52568727D01*
X97038456Y-52629887D01*
X96987071Y-52703831D01*
X96925408Y-52791880D01*
X96852593Y-52895355D01*
X96767749Y-53015575D01*
X96680323Y-53139266D01*
X96597645Y-53256300D01*
X96519001Y-53367840D01*
X96445451Y-53472371D01*
X96378055Y-53568376D01*
X96317871Y-53654339D01*
X96265961Y-53728743D01*
X96223384Y-53790071D01*
X96191200Y-53836808D01*
X96170468Y-53867437D01*
X96162248Y-53880441D01*
X96162159Y-53880692D01*
X96170490Y-53891218D01*
X96194844Y-53912155D01*
X96231538Y-53940878D01*
X96276887Y-53974763D01*
X96327208Y-54011186D01*
X96378818Y-54047522D01*
X96428033Y-54081146D01*
X96471170Y-54109434D01*
X96504544Y-54129762D01*
X96524472Y-54139504D01*
X96525907Y-54139860D01*
X96558420Y-54141312D01*
X96573163Y-54139580D01*
X96600745Y-54129577D01*
X96612099Y-54122461D01*
X96621253Y-54111018D01*
X96642943Y-54081807D01*
X96676070Y-54036357D01*
X96719539Y-53976196D01*
X96772252Y-53902856D01*
X96833112Y-53817866D01*
X96901021Y-53722754D01*
X96974883Y-53619052D01*
X97053600Y-53508288D01*
X97136075Y-53391991D01*
X97137820Y-53389528D01*
X97648232Y-52669033D01*
X97655492Y-52951354D01*
X97657332Y-53034292D01*
X97659104Y-53135336D01*
X97660736Y-53248961D01*
X97662161Y-53369646D01*
X97663311Y-53491867D01*
X97664115Y-53610101D01*
X97664352Y-53662263D01*
X97665953Y-54090852D01*
X97828238Y-54087565D01*
X97990522Y-54084279D01*
X98134956Y-53877534D01*
X98279389Y-53670790D01*
X98279818Y-52288558D01*
X97559628Y-52288558D01*
X97549394Y-52345082D01*
X97521508Y-52390237D01*
X97480191Y-52421587D01*
X97429664Y-52436695D01*
X97374149Y-52433126D01*
X97334776Y-52418311D01*
X97296321Y-52385850D01*
X97271771Y-52338329D01*
X97264279Y-52288558D01*
X97274317Y-52229603D01*
X97302957Y-52183961D01*
X97347988Y-52153761D01*
X97407197Y-52141131D01*
X97417689Y-52140883D01*
X97474357Y-52151212D01*
X97518722Y-52180291D01*
X97548038Y-52225265D01*
X97559557Y-52283274D01*
X97559628Y-52288558D01*
X98279818Y-52288558D01*
X98279834Y-52238348D01*
X98280279Y-50805907D01*
X97666138Y-50805907D01*
X97663092Y-51517697D01*
G36*
X95068022Y-52147591D02*
G01*
X95009940Y-52149808D01*
X94963390Y-52154186D01*
X94922334Y-52161322D01*
X94880735Y-52171816D01*
X94874488Y-52173597D01*
X94731554Y-52226602D01*
X94599192Y-52299239D01*
X94479372Y-52389553D01*
X94374066Y-52495587D01*
X94285244Y-52615386D01*
X94214877Y-52746992D01*
X94168988Y-52873805D01*
X94153629Y-52943987D01*
X94142266Y-53028219D01*
X94135617Y-53117158D01*
X94134402Y-53201460D01*
X94138739Y-53267210D01*
X94147095Y-53334093D01*
X95564662Y-53334093D01*
X95556694Y-53360674D01*
X95529428Y-53420356D01*
X95484966Y-53482547D01*
X95428381Y-53541862D01*
X95364747Y-53592917D01*
X95305232Y-53627546D01*
X95268842Y-53643035D01*
X95235277Y-53652487D01*
X95196502Y-53657310D01*
X95144485Y-53658913D01*
X95125953Y-53658976D01*
X95068739Y-53658048D01*
X95027050Y-53654314D01*
X94992822Y-53646352D01*
X94957992Y-53632739D01*
X94945962Y-53627220D01*
X94901360Y-53604233D01*
X94858521Y-53578794D01*
X94836138Y-53563379D01*
X94808092Y-53545637D01*
X94788517Y-53540170D01*
X94784531Y-53541972D01*
X94773089Y-53557035D01*
X94751785Y-53587064D01*
X94723063Y-53628445D01*
X94689370Y-53677563D01*
X94653151Y-53730803D01*
X94616852Y-53784550D01*
X94582918Y-53835189D01*
X94553796Y-53879105D01*
X94531930Y-53912684D01*
X94519767Y-53932310D01*
X94518089Y-53935801D01*
X94528458Y-53948077D01*
X94555236Y-53968232D01*
X94593756Y-53993453D01*
X94639357Y-54020929D01*
X94687373Y-54047848D01*
X94733142Y-54071399D01*
X94771535Y-54088587D01*
X94900318Y-54128906D01*
X95038050Y-54152866D01*
X95177083Y-54159630D01*
X95309769Y-54148362D01*
X95313040Y-54147825D01*
X95455964Y-54112764D01*
X95590137Y-54056340D01*
X95716494Y-53978060D01*
X95835970Y-53877433D01*
X95847981Y-53865720D01*
X95936438Y-53770031D01*
X96006434Y-53674298D01*
X96062186Y-53571846D01*
X96107911Y-53455997D01*
X96109177Y-53452232D01*
X96123640Y-53407689D01*
X96133842Y-53370862D01*
X96140540Y-53335878D01*
X96144491Y-53296864D01*
X96146455Y-53247947D01*
X96147189Y-53183253D01*
X96147292Y-53156883D01*
X96145483Y-53054191D01*
X96140287Y-52991488D01*
X95576476Y-52991488D01*
X94664892Y-52991488D01*
X94683392Y-52947186D01*
X94736563Y-52846768D01*
X94804348Y-52763929D01*
X94885543Y-52699679D01*
X94978942Y-52655026D01*
X95055951Y-52635061D01*
X95147523Y-52630445D01*
X95241194Y-52646918D01*
X95332142Y-52682980D01*
X95415544Y-52737130D01*
X95433977Y-52752718D01*
X95473787Y-52796155D01*
X95513651Y-52852901D01*
X95547536Y-52913433D01*
X95568432Y-52964907D01*
X95576476Y-52991488D01*
X96140287Y-52991488D01*
X96138352Y-52968145D01*
X96124399Y-52892076D01*
X96102120Y-52819313D01*
X96070016Y-52743185D01*
X96040958Y-52684447D01*
X95962245Y-52554884D01*
X95868543Y-52442916D01*
X95758383Y-52347109D01*
X95630294Y-52266027D01*
X95592604Y-52246552D01*
X95515397Y-52210082D01*
X95448758Y-52183534D01*
X95386010Y-52165428D01*
X95320476Y-52154282D01*
X95245480Y-52148613D01*
X95154345Y-52146941D01*
X95143674Y-52146937D01*
X95068022Y-52147591D01*
G37*
X95068022Y-52147591D02*
X95009940Y-52149808D01*
X94963390Y-52154186D01*
X94922334Y-52161322D01*
X94880735Y-52171816D01*
X94874488Y-52173597D01*
X94731554Y-52226602D01*
X94599192Y-52299239D01*
X94479372Y-52389553D01*
X94374066Y-52495587D01*
X94285244Y-52615386D01*
X94214877Y-52746992D01*
X94168988Y-52873805D01*
X94153629Y-52943987D01*
X94142266Y-53028219D01*
X94135617Y-53117158D01*
X94134402Y-53201460D01*
X94138739Y-53267210D01*
X94147095Y-53334093D01*
X95564662Y-53334093D01*
X95556694Y-53360674D01*
X95529428Y-53420356D01*
X95484966Y-53482547D01*
X95428381Y-53541862D01*
X95364747Y-53592917D01*
X95305232Y-53627546D01*
X95268842Y-53643035D01*
X95235277Y-53652487D01*
X95196502Y-53657310D01*
X95144485Y-53658913D01*
X95125953Y-53658976D01*
X95068739Y-53658048D01*
X95027050Y-53654314D01*
X94992822Y-53646352D01*
X94957992Y-53632739D01*
X94945962Y-53627220D01*
X94901360Y-53604233D01*
X94858521Y-53578794D01*
X94836138Y-53563379D01*
X94808092Y-53545637D01*
X94788517Y-53540170D01*
X94784531Y-53541972D01*
X94773089Y-53557035D01*
X94751785Y-53587064D01*
X94723063Y-53628445D01*
X94689370Y-53677563D01*
X94653151Y-53730803D01*
X94616852Y-53784550D01*
X94582918Y-53835189D01*
X94553796Y-53879105D01*
X94531930Y-53912684D01*
X94519767Y-53932310D01*
X94518089Y-53935801D01*
X94528458Y-53948077D01*
X94555236Y-53968232D01*
X94593756Y-53993453D01*
X94639357Y-54020929D01*
X94687373Y-54047848D01*
X94733142Y-54071399D01*
X94771535Y-54088587D01*
X94900318Y-54128906D01*
X95038050Y-54152866D01*
X95177083Y-54159630D01*
X95309769Y-54148362D01*
X95313040Y-54147825D01*
X95455964Y-54112764D01*
X95590137Y-54056340D01*
X95716494Y-53978060D01*
X95835970Y-53877433D01*
X95847981Y-53865720D01*
X95936438Y-53770031D01*
X96006434Y-53674298D01*
X96062186Y-53571846D01*
X96107911Y-53455997D01*
X96109177Y-53452232D01*
X96123640Y-53407689D01*
X96133842Y-53370862D01*
X96140540Y-53335878D01*
X96144491Y-53296864D01*
X96146455Y-53247947D01*
X96147189Y-53183253D01*
X96147292Y-53156883D01*
X96145483Y-53054191D01*
X96140287Y-52991488D01*
X95576476Y-52991488D01*
X94664892Y-52991488D01*
X94683392Y-52947186D01*
X94736563Y-52846768D01*
X94804348Y-52763929D01*
X94885543Y-52699679D01*
X94978942Y-52655026D01*
X95055951Y-52635061D01*
X95147523Y-52630445D01*
X95241194Y-52646918D01*
X95332142Y-52682980D01*
X95415544Y-52737130D01*
X95433977Y-52752718D01*
X95473787Y-52796155D01*
X95513651Y-52852901D01*
X95547536Y-52913433D01*
X95568432Y-52964907D01*
X95576476Y-52991488D01*
X96140287Y-52991488D01*
X96138352Y-52968145D01*
X96124399Y-52892076D01*
X96102120Y-52819313D01*
X96070016Y-52743185D01*
X96040958Y-52684447D01*
X95962245Y-52554884D01*
X95868543Y-52442916D01*
X95758383Y-52347109D01*
X95630294Y-52266027D01*
X95592604Y-52246552D01*
X95515397Y-52210082D01*
X95448758Y-52183534D01*
X95386010Y-52165428D01*
X95320476Y-52154282D01*
X95245480Y-52148613D01*
X95154345Y-52146941D01*
X95143674Y-52146937D01*
X95068022Y-52147591D01*
G36*
X93294791Y-52677837D02*
G01*
X93294447Y-52815910D01*
X93293433Y-52936485D01*
X93291775Y-53038428D01*
X93289502Y-53120599D01*
X93286639Y-53181864D01*
X93283213Y-53221085D01*
X93281735Y-53230139D01*
X93249329Y-53333926D01*
X93198849Y-53424026D01*
X93131535Y-53498805D01*
X93048625Y-53556632D01*
X93025139Y-53568467D01*
X92945561Y-53594086D01*
X92859014Y-53602060D01*
X92773334Y-53592381D01*
X92704093Y-53568881D01*
X92617239Y-53516294D01*
X92548879Y-53449775D01*
X92505749Y-53384238D01*
X92488770Y-53351574D01*
X92474632Y-53321291D01*
X92463075Y-53290906D01*
X92453839Y-53257933D01*
X92446665Y-53219888D01*
X92441294Y-53174287D01*
X92437465Y-53118645D01*
X92434920Y-53050478D01*
X92433399Y-52967301D01*
X92432642Y-52866630D01*
X92432390Y-52745981D01*
X92432372Y-52681843D01*
X92432372Y-52188139D01*
X91864594Y-52188139D01*
X91868349Y-53461093D01*
X91868963Y-53662954D01*
X91869565Y-53842571D01*
X91870180Y-54001329D01*
X91870833Y-54140612D01*
X91871551Y-54261803D01*
X91872359Y-54366287D01*
X91873284Y-54455448D01*
X91874351Y-54530670D01*
X91875585Y-54593338D01*
X91877013Y-54644835D01*
X91878661Y-54686545D01*
X91880554Y-54719853D01*
X91882718Y-54746143D01*
X91885179Y-54766799D01*
X91887962Y-54783205D01*
X91891094Y-54796745D01*
X91893408Y-54804930D01*
X91936166Y-54920996D01*
X91991254Y-55028921D01*
X92055896Y-55124301D01*
X92127318Y-55202732D01*
X92163417Y-55233239D01*
X92243672Y-55288075D01*
X92323889Y-55328318D01*
X92409386Y-55355575D01*
X92505479Y-55371449D01*
X92617485Y-55377545D01*
X92642070Y-55377732D01*
X92786791Y-55377907D01*
X92786791Y-54860983D01*
X92682668Y-54856005D01*
X92620614Y-54850589D01*
X92568992Y-54839494D01*
X92526877Y-54820753D01*
X92493346Y-54792400D01*
X92467473Y-54752470D01*
X92448336Y-54698996D01*
X92435009Y-54630013D01*
X92426571Y-54543554D01*
X92422095Y-54437654D01*
X92420659Y-54310346D01*
X92420647Y-54298505D01*
X92420730Y-54214014D01*
X92421199Y-54150345D01*
X92422284Y-54104693D01*
X92424214Y-54074254D01*
X92427218Y-54056222D01*
X92431527Y-54047793D01*
X92437371Y-54046161D01*
X92441232Y-54047115D01*
X92461059Y-54053955D01*
X92497002Y-54066515D01*
X92542903Y-54082638D01*
X92568232Y-54091564D01*
X92618892Y-54108375D01*
X92663068Y-54119824D01*
X92708552Y-54127229D01*
X92763131Y-54131908D01*
X92823708Y-54134772D01*
X92903575Y-54136502D01*
X92967188Y-54134508D01*
X93021686Y-54128376D01*
X93059987Y-54121008D01*
X93202086Y-54077456D01*
X93335742Y-54013279D01*
X93458891Y-53930603D01*
X93569469Y-53831554D01*
X93665413Y-53718257D01*
X93744657Y-53592837D01*
X93805139Y-53457421D01*
X93844795Y-53314135D01*
X93845135Y-53312379D01*
X93849493Y-53284007D01*
X93853088Y-53246832D01*
X93855977Y-53198768D01*
X93858219Y-53137727D01*
X93859870Y-53061623D01*
X93860988Y-52968369D01*
X93861632Y-52855879D01*
X93861858Y-52722067D01*
X93861860Y-52706914D01*
X93861860Y-52188139D01*
X93294791Y-52188139D01*
X93294791Y-52677837D01*
G37*
X93294791Y-52677837D02*
X93294447Y-52815910D01*
X93293433Y-52936485D01*
X93291775Y-53038428D01*
X93289502Y-53120599D01*
X93286639Y-53181864D01*
X93283213Y-53221085D01*
X93281735Y-53230139D01*
X93249329Y-53333926D01*
X93198849Y-53424026D01*
X93131535Y-53498805D01*
X93048625Y-53556632D01*
X93025139Y-53568467D01*
X92945561Y-53594086D01*
X92859014Y-53602060D01*
X92773334Y-53592381D01*
X92704093Y-53568881D01*
X92617239Y-53516294D01*
X92548879Y-53449775D01*
X92505749Y-53384238D01*
X92488770Y-53351574D01*
X92474632Y-53321291D01*
X92463075Y-53290906D01*
X92453839Y-53257933D01*
X92446665Y-53219888D01*
X92441294Y-53174287D01*
X92437465Y-53118645D01*
X92434920Y-53050478D01*
X92433399Y-52967301D01*
X92432642Y-52866630D01*
X92432390Y-52745981D01*
X92432372Y-52681843D01*
X92432372Y-52188139D01*
X91864594Y-52188139D01*
X91868349Y-53461093D01*
X91868963Y-53662954D01*
X91869565Y-53842571D01*
X91870180Y-54001329D01*
X91870833Y-54140612D01*
X91871551Y-54261803D01*
X91872359Y-54366287D01*
X91873284Y-54455448D01*
X91874351Y-54530670D01*
X91875585Y-54593338D01*
X91877013Y-54644835D01*
X91878661Y-54686545D01*
X91880554Y-54719853D01*
X91882718Y-54746143D01*
X91885179Y-54766799D01*
X91887962Y-54783205D01*
X91891094Y-54796745D01*
X91893408Y-54804930D01*
X91936166Y-54920996D01*
X91991254Y-55028921D01*
X92055896Y-55124301D01*
X92127318Y-55202732D01*
X92163417Y-55233239D01*
X92243672Y-55288075D01*
X92323889Y-55328318D01*
X92409386Y-55355575D01*
X92505479Y-55371449D01*
X92617485Y-55377545D01*
X92642070Y-55377732D01*
X92786791Y-55377907D01*
X92786791Y-54860983D01*
X92682668Y-54856005D01*
X92620614Y-54850589D01*
X92568992Y-54839494D01*
X92526877Y-54820753D01*
X92493346Y-54792400D01*
X92467473Y-54752470D01*
X92448336Y-54698996D01*
X92435009Y-54630013D01*
X92426571Y-54543554D01*
X92422095Y-54437654D01*
X92420659Y-54310346D01*
X92420647Y-54298505D01*
X92420730Y-54214014D01*
X92421199Y-54150345D01*
X92422284Y-54104693D01*
X92424214Y-54074254D01*
X92427218Y-54056222D01*
X92431527Y-54047793D01*
X92437371Y-54046161D01*
X92441232Y-54047115D01*
X92461059Y-54053955D01*
X92497002Y-54066515D01*
X92542903Y-54082638D01*
X92568232Y-54091564D01*
X92618892Y-54108375D01*
X92663068Y-54119824D01*
X92708552Y-54127229D01*
X92763131Y-54131908D01*
X92823708Y-54134772D01*
X92903575Y-54136502D01*
X92967188Y-54134508D01*
X93021686Y-54128376D01*
X93059987Y-54121008D01*
X93202086Y-54077456D01*
X93335742Y-54013279D01*
X93458891Y-53930603D01*
X93569469Y-53831554D01*
X93665413Y-53718257D01*
X93744657Y-53592837D01*
X93805139Y-53457421D01*
X93844795Y-53314135D01*
X93845135Y-53312379D01*
X93849493Y-53284007D01*
X93853088Y-53246832D01*
X93855977Y-53198768D01*
X93858219Y-53137727D01*
X93859870Y-53061623D01*
X93860988Y-52968369D01*
X93861632Y-52855879D01*
X93861858Y-52722067D01*
X93861860Y-52706914D01*
X93861860Y-52188139D01*
X93294791Y-52188139D01*
X93294791Y-52677837D01*
D15*
X98218403Y-58256230D02*
X98475790Y-57888535D01*
X98659637Y-58256230D02*
X98659637Y-57484070D01*
X98365481Y-57484070D01*
X98291942Y-57520840D01*
X98255173Y-57557609D01*
X98218403Y-57631148D01*
X98218403Y-57741457D01*
X98255173Y-57814996D01*
X98291942Y-57851765D01*
X98365481Y-57888535D01*
X98659637Y-57888535D01*
X97887477Y-57851765D02*
X97630091Y-57851765D01*
X97519782Y-58256230D02*
X97887477Y-58256230D01*
X97887477Y-57484070D01*
X97519782Y-57484070D01*
X97225626Y-58219460D02*
X97115317Y-58256230D01*
X96931470Y-58256230D01*
X96857931Y-58219460D01*
X96821161Y-58182691D01*
X96784392Y-58109152D01*
X96784392Y-58035613D01*
X96821161Y-57962074D01*
X96857931Y-57925304D01*
X96931470Y-57888535D01*
X97078548Y-57851765D01*
X97152087Y-57814996D01*
X97188856Y-57778226D01*
X97225626Y-57704687D01*
X97225626Y-57631148D01*
X97188856Y-57557609D01*
X97152087Y-57520840D01*
X97078548Y-57484070D01*
X96894700Y-57484070D01*
X96784392Y-57520840D01*
X96453466Y-57851765D02*
X96196079Y-57851765D01*
X96085771Y-58256230D02*
X96453466Y-58256230D01*
X96453466Y-57484070D01*
X96085771Y-57484070D01*
X95865154Y-57484070D02*
X95423919Y-57484070D01*
X95644536Y-58256230D02*
X95644536Y-57484070D01*
X113251091Y-60161230D02*
X113251091Y-59389070D01*
X112956935Y-59389070D01*
X112883396Y-59425840D01*
X112846626Y-59462609D01*
X112809856Y-59536148D01*
X112809856Y-59646457D01*
X112846626Y-59719996D01*
X112883396Y-59756765D01*
X112956935Y-59793535D01*
X113251091Y-59793535D01*
X112478931Y-60161230D02*
X112478931Y-59389070D01*
X112221544Y-59940613D01*
X111964157Y-59389070D01*
X111964157Y-60161230D01*
X111596462Y-59389070D02*
X111596462Y-60014152D01*
X111559693Y-60087691D01*
X111522923Y-60124460D01*
X111449384Y-60161230D01*
X111302306Y-60161230D01*
X111228767Y-60124460D01*
X111191997Y-60087691D01*
X111155228Y-60014152D01*
X111155228Y-59389070D01*
X99150704Y-63807460D02*
X99040396Y-63844230D01*
X98856548Y-63844230D01*
X98783009Y-63807460D01*
X98746239Y-63770691D01*
X98709470Y-63697152D01*
X98709470Y-63623613D01*
X98746239Y-63550074D01*
X98783009Y-63513304D01*
X98856548Y-63476535D01*
X99003626Y-63439765D01*
X99077165Y-63402996D01*
X99113935Y-63366226D01*
X99150704Y-63292687D01*
X99150704Y-63219148D01*
X99113935Y-63145609D01*
X99077165Y-63108840D01*
X99003626Y-63072070D01*
X98819778Y-63072070D01*
X98709470Y-63108840D01*
X98378544Y-63844230D02*
X98378544Y-63072070D01*
X98194696Y-63072070D01*
X98084388Y-63108840D01*
X98010849Y-63182379D01*
X97974079Y-63255918D01*
X97937310Y-63402996D01*
X97937310Y-63513304D01*
X97974079Y-63660382D01*
X98010849Y-63733921D01*
X98084388Y-63807460D01*
X98194696Y-63844230D01*
X98378544Y-63844230D01*
X97643154Y-63623613D02*
X97275458Y-63623613D01*
X97716693Y-63844230D02*
X97459306Y-63072070D01*
X97201919Y-63844230D01*
X99113935Y-66728460D02*
X99003626Y-66765230D01*
X98819778Y-66765230D01*
X98746239Y-66728460D01*
X98709470Y-66691691D01*
X98672700Y-66618152D01*
X98672700Y-66544613D01*
X98709470Y-66471074D01*
X98746239Y-66434304D01*
X98819778Y-66397535D01*
X98966856Y-66360765D01*
X99040396Y-66323996D01*
X99077165Y-66287226D01*
X99113935Y-66213687D01*
X99113935Y-66140148D01*
X99077165Y-66066609D01*
X99040396Y-66029840D01*
X98966856Y-65993070D01*
X98783009Y-65993070D01*
X98672700Y-66029840D01*
X97900540Y-66691691D02*
X97937310Y-66728460D01*
X98047618Y-66765230D01*
X98121157Y-66765230D01*
X98231466Y-66728460D01*
X98305005Y-66654921D01*
X98341775Y-66581382D01*
X98378544Y-66434304D01*
X98378544Y-66323996D01*
X98341775Y-66176918D01*
X98305005Y-66103379D01*
X98231466Y-66029840D01*
X98121157Y-65993070D01*
X98047618Y-65993070D01*
X97937310Y-66029840D01*
X97900540Y-66066609D01*
X97201919Y-66765230D02*
X97569615Y-66765230D01*
X97569615Y-65993070D01*
X92058308Y-50215548D02*
X92021539Y-50252317D01*
X91984769Y-50362626D01*
X91984769Y-50436165D01*
X92021539Y-50546474D01*
X92095078Y-50620013D01*
X92168617Y-50656782D01*
X92315695Y-50693552D01*
X92426003Y-50693552D01*
X92573081Y-50656782D01*
X92646620Y-50620013D01*
X92720160Y-50546474D01*
X92756929Y-50436165D01*
X92756929Y-50362626D01*
X92720160Y-50252317D01*
X92683390Y-50215548D01*
X92793699Y-49333079D02*
X91800921Y-49994931D01*
X91984769Y-49075693D02*
X92756929Y-49075693D01*
X92756929Y-48891845D01*
X92720160Y-48781536D01*
X92646620Y-48707997D01*
X92573081Y-48671228D01*
X92426003Y-48634458D01*
X92315695Y-48634458D01*
X92168617Y-48671228D01*
X92095078Y-48707997D01*
X92021539Y-48781536D01*
X91984769Y-48891845D01*
X91984769Y-49075693D01*
X89772308Y-50031700D02*
X89735539Y-50068470D01*
X89698769Y-50178778D01*
X89698769Y-50252317D01*
X89735539Y-50362626D01*
X89809078Y-50436165D01*
X89882617Y-50472935D01*
X90029695Y-50509704D01*
X90140003Y-50509704D01*
X90287081Y-50472935D01*
X90360620Y-50436165D01*
X90434160Y-50362626D01*
X90470929Y-50252317D01*
X90470929Y-50178778D01*
X90434160Y-50068470D01*
X90397390Y-50031700D01*
X89698769Y-49333079D02*
X89698769Y-49700775D01*
X90470929Y-49700775D01*
X89698769Y-49075693D02*
X90470929Y-49075693D01*
X89698769Y-48634458D02*
X90140003Y-48965384D01*
X90470929Y-48634458D02*
X90029695Y-49075693D01*
X88428769Y-51987016D02*
X89200929Y-51987016D01*
X88649386Y-51729630D01*
X89200929Y-51472243D01*
X88428769Y-51472243D01*
X89200929Y-50957470D02*
X89200929Y-50810392D01*
X89164160Y-50736853D01*
X89090620Y-50663314D01*
X88943542Y-50626544D01*
X88686156Y-50626544D01*
X88539078Y-50663314D01*
X88465539Y-50736853D01*
X88428769Y-50810392D01*
X88428769Y-50957470D01*
X88465539Y-51031009D01*
X88539078Y-51104548D01*
X88686156Y-51141317D01*
X88943542Y-51141317D01*
X89090620Y-51104548D01*
X89164160Y-51031009D01*
X89200929Y-50957470D01*
X88465539Y-50332388D02*
X88428769Y-50222079D01*
X88428769Y-50038232D01*
X88465539Y-49964693D01*
X88502308Y-49927923D01*
X88575847Y-49891154D01*
X88649386Y-49891154D01*
X88722925Y-49927923D01*
X88759695Y-49964693D01*
X88796464Y-50038232D01*
X88833234Y-50185310D01*
X88870003Y-50258849D01*
X88906773Y-50295618D01*
X88980312Y-50332388D01*
X89053851Y-50332388D01*
X89127390Y-50295618D01*
X89164160Y-50258849D01*
X89200929Y-50185310D01*
X89200929Y-50001462D01*
X89164160Y-49891154D01*
X88428769Y-49560228D02*
X89200929Y-49560228D01*
X87359308Y-49496849D02*
X87322539Y-49533618D01*
X87285769Y-49643927D01*
X87285769Y-49717466D01*
X87322539Y-49827775D01*
X87396078Y-49901314D01*
X87469617Y-49938083D01*
X87616695Y-49974853D01*
X87727003Y-49974853D01*
X87874081Y-49938083D01*
X87947620Y-49901314D01*
X88021160Y-49827775D01*
X88057929Y-49717466D01*
X88057929Y-49643927D01*
X88021160Y-49533618D01*
X87984390Y-49496849D01*
X87322539Y-49202693D02*
X87285769Y-49092384D01*
X87285769Y-48908536D01*
X87322539Y-48834997D01*
X87359308Y-48798228D01*
X87432847Y-48761458D01*
X87506386Y-48761458D01*
X87579925Y-48798228D01*
X87616695Y-48834997D01*
X87653464Y-48908536D01*
X87690234Y-49055615D01*
X87727003Y-49129154D01*
X87763773Y-49165923D01*
X87837312Y-49202693D01*
X87910851Y-49202693D01*
X87984390Y-49165923D01*
X88021160Y-49129154D01*
X88057929Y-49055615D01*
X88057929Y-48871767D01*
X88021160Y-48761458D01*
X101509769Y-57548165D02*
X102281929Y-57548165D01*
X101509769Y-57106931D02*
X101951003Y-57437856D01*
X102281929Y-57106931D02*
X101840695Y-57548165D01*
X101914234Y-56776005D02*
X101914234Y-56518618D01*
X101509769Y-56408310D02*
X101509769Y-56776005D01*
X102281929Y-56776005D01*
X102281929Y-56408310D01*
X101877464Y-55930306D02*
X101509769Y-55930306D01*
X102281929Y-56187693D02*
X101877464Y-55930306D01*
X102281929Y-55672919D01*
X101255769Y-70438544D02*
X102027929Y-70438544D01*
X102027929Y-70144388D01*
X101991160Y-70070849D01*
X101954390Y-70034079D01*
X101880851Y-69997310D01*
X101770542Y-69997310D01*
X101697003Y-70034079D01*
X101660234Y-70070849D01*
X101623464Y-70144388D01*
X101623464Y-70438544D01*
X101476386Y-69703154D02*
X101476386Y-69335458D01*
X101255769Y-69776693D02*
X102027929Y-69519306D01*
X101255769Y-69261919D01*
X103033769Y-73506622D02*
X103805929Y-73506622D01*
X103438234Y-73506622D02*
X103438234Y-73065388D01*
X103033769Y-73065388D02*
X103805929Y-73065388D01*
X103033769Y-72697693D02*
X103805929Y-72697693D01*
X103805929Y-72403536D01*
X103769160Y-72329997D01*
X103732390Y-72293228D01*
X103658851Y-72256458D01*
X103548542Y-72256458D01*
X103475003Y-72293228D01*
X103438234Y-72329997D01*
X103401464Y-72403536D01*
X103401464Y-72697693D01*
X96450563Y-56946074D02*
X95862251Y-56946074D01*
X96156407Y-57240230D02*
X96156407Y-56651918D01*
X95090091Y-57240230D02*
X95531325Y-57240230D01*
X95310708Y-57240230D02*
X95310708Y-56468070D01*
X95384247Y-56578379D01*
X95457786Y-56651918D01*
X95531325Y-56688687D01*
X94869474Y-56468070D02*
X94612087Y-57240230D01*
X94354700Y-56468070D01*
X94134083Y-56541609D02*
X94097314Y-56504840D01*
X94023775Y-56468070D01*
X93839927Y-56468070D01*
X93766388Y-56504840D01*
X93729618Y-56541609D01*
X93692849Y-56615148D01*
X93692849Y-56688687D01*
X93729618Y-56798996D01*
X94170853Y-57240230D01*
X93692849Y-57240230D01*
X92994228Y-56468070D02*
X93361923Y-56468070D01*
X93398693Y-56835765D01*
X93361923Y-56798996D01*
X93288384Y-56762226D01*
X93104536Y-56762226D01*
X93030997Y-56798996D01*
X92994228Y-56835765D01*
X92957458Y-56909304D01*
X92957458Y-57093152D01*
X92994228Y-57166691D01*
X93030997Y-57203460D01*
X93104536Y-57240230D01*
X93288384Y-57240230D01*
X93361923Y-57203460D01*
X93398693Y-57166691D01*
X93302173Y-66598074D02*
X92713860Y-66598074D01*
X93008016Y-66892230D02*
X93008016Y-66303918D01*
X92419704Y-66120070D02*
X91941700Y-66120070D01*
X92199087Y-66414226D01*
X92088778Y-66414226D01*
X92015239Y-66450996D01*
X91978470Y-66487765D01*
X91941700Y-66561304D01*
X91941700Y-66745152D01*
X91978470Y-66818691D01*
X92015239Y-66855460D01*
X92088778Y-66892230D01*
X92309396Y-66892230D01*
X92382935Y-66855460D01*
X92419704Y-66818691D01*
X91721083Y-66120070D02*
X91463696Y-66892230D01*
X91206310Y-66120070D01*
X91022462Y-66120070D02*
X90544458Y-66120070D01*
X90801845Y-66414226D01*
X90691536Y-66414226D01*
X90617997Y-66450996D01*
X90581228Y-66487765D01*
X90544458Y-66561304D01*
X90544458Y-66745152D01*
X90581228Y-66818691D01*
X90617997Y-66855460D01*
X90691536Y-66892230D01*
X90912154Y-66892230D01*
X90985693Y-66855460D01*
X91022462Y-66818691D01*
X105213321Y-65328074D02*
X104625009Y-65328074D01*
X104919165Y-65622230D02*
X104919165Y-65033918D01*
X104294083Y-65401613D02*
X103926388Y-65401613D01*
X104367622Y-65622230D02*
X104110236Y-64850070D01*
X103852849Y-65622230D01*
X103448384Y-64850070D02*
X103301306Y-64850070D01*
X103227767Y-64886840D01*
X103154228Y-64960379D01*
X103117458Y-65107457D01*
X103117458Y-65364843D01*
X103154228Y-65511921D01*
X103227767Y-65585460D01*
X103301306Y-65622230D01*
X103448384Y-65622230D01*
X103521923Y-65585460D01*
X103595462Y-65511921D01*
X103632232Y-65364843D01*
X103632232Y-65107457D01*
X103595462Y-64960379D01*
X103521923Y-64886840D01*
X103448384Y-64850070D01*
X99398173Y-55930074D02*
X98809860Y-55930074D01*
X99104016Y-56224230D02*
X99104016Y-55635918D01*
X98037700Y-56224230D02*
X98478935Y-56224230D01*
X98258317Y-56224230D02*
X98258317Y-55452070D01*
X98331856Y-55562379D01*
X98405396Y-55635918D01*
X98478935Y-55672687D01*
X97817083Y-55452070D02*
X97559696Y-56224230D01*
X97302310Y-55452070D01*
X96934615Y-55782996D02*
X97008154Y-55746226D01*
X97044923Y-55709457D01*
X97081693Y-55635918D01*
X97081693Y-55599148D01*
X97044923Y-55525609D01*
X97008154Y-55488840D01*
X96934615Y-55452070D01*
X96787536Y-55452070D01*
X96713997Y-55488840D01*
X96677228Y-55525609D01*
X96640458Y-55599148D01*
X96640458Y-55635918D01*
X96677228Y-55709457D01*
X96713997Y-55746226D01*
X96787536Y-55782996D01*
X96934615Y-55782996D01*
X97008154Y-55819765D01*
X97044923Y-55856535D01*
X97081693Y-55930074D01*
X97081693Y-56077152D01*
X97044923Y-56150691D01*
X97008154Y-56187460D01*
X96934615Y-56224230D01*
X96787536Y-56224230D01*
X96713997Y-56187460D01*
X96677228Y-56150691D01*
X96640458Y-56077152D01*
X96640458Y-55930074D01*
X96677228Y-55856535D01*
X96713997Y-55819765D01*
X96787536Y-55782996D01*
X95715173Y-55930074D02*
X95126860Y-55930074D01*
X95421016Y-56224230D02*
X95421016Y-55635918D01*
X94832704Y-55452070D02*
X94354700Y-55452070D01*
X94612087Y-55746226D01*
X94501778Y-55746226D01*
X94428239Y-55782996D01*
X94391470Y-55819765D01*
X94354700Y-55893304D01*
X94354700Y-56077152D01*
X94391470Y-56150691D01*
X94428239Y-56187460D01*
X94501778Y-56224230D01*
X94722396Y-56224230D01*
X94795935Y-56187460D01*
X94832704Y-56150691D01*
X94134083Y-55452070D02*
X93876696Y-56224230D01*
X93619310Y-55452070D01*
X93214845Y-55452070D02*
X93141306Y-55452070D01*
X93067767Y-55488840D01*
X93030997Y-55525609D01*
X92994228Y-55599148D01*
X92957458Y-55746226D01*
X92957458Y-55930074D01*
X92994228Y-56077152D01*
X93030997Y-56150691D01*
X93067767Y-56187460D01*
X93141306Y-56224230D01*
X93214845Y-56224230D01*
X93288384Y-56187460D01*
X93325154Y-56150691D01*
X93361923Y-56077152D01*
X93398693Y-55930074D01*
X93398693Y-55746226D01*
X93361923Y-55599148D01*
X93325154Y-55525609D01*
X93288384Y-55488840D01*
X93214845Y-55452070D01*
X98973872Y-73329074D02*
X98385559Y-73329074D01*
X98679716Y-73623230D02*
X98679716Y-73034918D01*
X98128173Y-72851070D02*
X97870786Y-73623230D01*
X97613399Y-72851070D01*
X97356013Y-72851070D02*
X97356013Y-73476152D01*
X97319243Y-73549691D01*
X97282474Y-73586460D01*
X97208935Y-73623230D01*
X97061856Y-73623230D01*
X96988317Y-73586460D01*
X96951548Y-73549691D01*
X96914778Y-73476152D01*
X96914778Y-72851070D01*
X96583853Y-73586460D02*
X96473544Y-73623230D01*
X96289696Y-73623230D01*
X96216157Y-73586460D01*
X96179388Y-73549691D01*
X96142618Y-73476152D01*
X96142618Y-73402613D01*
X96179388Y-73329074D01*
X96216157Y-73292304D01*
X96289696Y-73255535D01*
X96436775Y-73218765D01*
X96510314Y-73181996D01*
X96547083Y-73145226D01*
X96583853Y-73071687D01*
X96583853Y-72998148D01*
X96547083Y-72924609D01*
X96510314Y-72887840D01*
X96436775Y-72851070D01*
X96252927Y-72851070D01*
X96142618Y-72887840D01*
X95554306Y-73218765D02*
X95443997Y-73255535D01*
X95407228Y-73292304D01*
X95370458Y-73365843D01*
X95370458Y-73476152D01*
X95407228Y-73549691D01*
X95443997Y-73586460D01*
X95517536Y-73623230D01*
X95811693Y-73623230D01*
X95811693Y-72851070D01*
X95554306Y-72851070D01*
X95480767Y-72887840D01*
X95443997Y-72924609D01*
X95407228Y-72998148D01*
X95407228Y-73071687D01*
X95443997Y-73145226D01*
X95480767Y-73181996D01*
X95554306Y-73218765D01*
X95811693Y-73218765D01*
X99390925Y-70485716D02*
X99390925Y-69897403D01*
X99096769Y-70191559D02*
X99685081Y-70191559D01*
X99868929Y-69640016D02*
X99096769Y-69382630D01*
X99868929Y-69125243D01*
X99501234Y-68610470D02*
X99464464Y-68500161D01*
X99427695Y-68463392D01*
X99354156Y-68426622D01*
X99243847Y-68426622D01*
X99170308Y-68463392D01*
X99133539Y-68500161D01*
X99096769Y-68573700D01*
X99096769Y-68867856D01*
X99868929Y-68867856D01*
X99868929Y-68610470D01*
X99832160Y-68536931D01*
X99795390Y-68500161D01*
X99721851Y-68463392D01*
X99648312Y-68463392D01*
X99574773Y-68500161D01*
X99538003Y-68536931D01*
X99501234Y-68610470D01*
X99501234Y-68867856D01*
X99317386Y-68132466D02*
X99317386Y-67764771D01*
X99096769Y-68206005D02*
X99868929Y-67948618D01*
X99096769Y-67691232D01*
X99868929Y-67544154D02*
X99868929Y-67102919D01*
X99096769Y-67323536D02*
X99868929Y-67323536D01*
X99110548Y-74692691D02*
X99147317Y-74729460D01*
X99257626Y-74766230D01*
X99331165Y-74766230D01*
X99441474Y-74729460D01*
X99515013Y-74655921D01*
X99551782Y-74582382D01*
X99588552Y-74435304D01*
X99588552Y-74324996D01*
X99551782Y-74177918D01*
X99515013Y-74104379D01*
X99441474Y-74030840D01*
X99331165Y-73994070D01*
X99257626Y-73994070D01*
X99147317Y-74030840D01*
X99110548Y-74067609D01*
X98779622Y-74766230D02*
X98779622Y-73994070D01*
X98779622Y-74361765D02*
X98338388Y-74361765D01*
X98338388Y-74766230D02*
X98338388Y-73994070D01*
X97566228Y-74030840D02*
X97639767Y-73994070D01*
X97750076Y-73994070D01*
X97860384Y-74030840D01*
X97933923Y-74104379D01*
X97970693Y-74177918D01*
X98007462Y-74324996D01*
X98007462Y-74435304D01*
X97970693Y-74582382D01*
X97933923Y-74655921D01*
X97860384Y-74729460D01*
X97750076Y-74766230D01*
X97676536Y-74766230D01*
X97566228Y-74729460D01*
X97529458Y-74692691D01*
X97529458Y-74435304D01*
X97676536Y-74435304D01*
X96433872Y-50001230D02*
X96433872Y-49229070D01*
X96139716Y-49229070D01*
X96066176Y-49265840D01*
X96029407Y-49302609D01*
X95992637Y-49376148D01*
X95992637Y-49486457D01*
X96029407Y-49559996D01*
X96066176Y-49596765D01*
X96139716Y-49633535D01*
X96433872Y-49633535D01*
X95514634Y-49229070D02*
X95367556Y-49229070D01*
X95294016Y-49265840D01*
X95220477Y-49339379D01*
X95183708Y-49486457D01*
X95183708Y-49743843D01*
X95220477Y-49890921D01*
X95294016Y-49964460D01*
X95367556Y-50001230D01*
X95514634Y-50001230D01*
X95588173Y-49964460D01*
X95661712Y-49890921D01*
X95698481Y-49743843D01*
X95698481Y-49486457D01*
X95661712Y-49339379D01*
X95588173Y-49265840D01*
X95514634Y-49229070D01*
X94926321Y-49229070D02*
X94742474Y-50001230D01*
X94595396Y-49449687D01*
X94448317Y-50001230D01*
X94264470Y-49229070D01*
X93970314Y-49596765D02*
X93712927Y-49596765D01*
X93602618Y-50001230D02*
X93970314Y-50001230D01*
X93970314Y-49229070D01*
X93602618Y-49229070D01*
X92830458Y-50001230D02*
X93087845Y-49633535D01*
X93271693Y-50001230D02*
X93271693Y-49229070D01*
X92977536Y-49229070D01*
X92903997Y-49265840D01*
X92867228Y-49302609D01*
X92830458Y-49376148D01*
X92830458Y-49486457D01*
X92867228Y-49559996D01*
X92903997Y-49596765D01*
X92977536Y-49633535D01*
X93271693Y-49633535D01*
X106375925Y-69399563D02*
X106375925Y-68811251D01*
X106081769Y-69105407D02*
X106670081Y-69105407D01*
X106853929Y-68553864D02*
X106081769Y-68296477D01*
X106853929Y-68039091D01*
X106853929Y-67634626D02*
X106853929Y-67487548D01*
X106817160Y-67414009D01*
X106743620Y-67340470D01*
X106596542Y-67303700D01*
X106339156Y-67303700D01*
X106192078Y-67340470D01*
X106118539Y-67414009D01*
X106081769Y-67487548D01*
X106081769Y-67634626D01*
X106118539Y-67708165D01*
X106192078Y-67781704D01*
X106339156Y-67818474D01*
X106596542Y-67818474D01*
X106743620Y-67781704D01*
X106817160Y-67708165D01*
X106853929Y-67634626D01*
X106853929Y-66972775D02*
X106228847Y-66972775D01*
X106155308Y-66936005D01*
X106118539Y-66899236D01*
X106081769Y-66825696D01*
X106081769Y-66678618D01*
X106118539Y-66605079D01*
X106155308Y-66568310D01*
X106228847Y-66531540D01*
X106853929Y-66531540D01*
X106853929Y-66274154D02*
X106853929Y-65832919D01*
X106081769Y-66053536D02*
X106853929Y-66053536D01*
X94270769Y-48464399D02*
X94270769Y-48832095D01*
X95042929Y-48832095D01*
X94344308Y-47765778D02*
X94307539Y-47802548D01*
X94270769Y-47912856D01*
X94270769Y-47986396D01*
X94307539Y-48096704D01*
X94381078Y-48170243D01*
X94454617Y-48207013D01*
X94601695Y-48243782D01*
X94712003Y-48243782D01*
X94859081Y-48207013D01*
X94932620Y-48170243D01*
X95006160Y-48096704D01*
X95042929Y-47986396D01*
X95042929Y-47912856D01*
X95006160Y-47802548D01*
X94969390Y-47765778D01*
X94270769Y-47434853D02*
X95042929Y-47434853D01*
X95042929Y-47251005D01*
X95006160Y-47140696D01*
X94932620Y-47067157D01*
X94859081Y-47030388D01*
X94712003Y-46993618D01*
X94601695Y-46993618D01*
X94454617Y-47030388D01*
X94381078Y-47067157D01*
X94307539Y-47140696D01*
X94270769Y-47251005D01*
X94270769Y-47434853D01*
X94270769Y-46221458D02*
X94638464Y-46478845D01*
X94270769Y-46662693D02*
X95042929Y-46662693D01*
X95042929Y-46368536D01*
X95006160Y-46294997D01*
X94969390Y-46258228D01*
X94895851Y-46221458D01*
X94785542Y-46221458D01*
X94712003Y-46258228D01*
X94675234Y-46294997D01*
X94638464Y-46368536D01*
X94638464Y-46662693D01*
X86634552Y-50128230D02*
X87002247Y-50128230D01*
X87002247Y-49356070D01*
X86377165Y-49723765D02*
X86119778Y-49723765D01*
X86009470Y-50128230D02*
X86377165Y-50128230D01*
X86377165Y-49356070D01*
X86009470Y-49356070D01*
X85678544Y-50128230D02*
X85678544Y-49356070D01*
X85494696Y-49356070D01*
X85384388Y-49392840D01*
X85310849Y-49466379D01*
X85274079Y-49539918D01*
X85237310Y-49686996D01*
X85237310Y-49797304D01*
X85274079Y-49944382D01*
X85310849Y-50017921D01*
X85384388Y-50091460D01*
X85494696Y-50128230D01*
X85678544Y-50128230D01*
X84943154Y-49907613D02*
X84575458Y-49907613D01*
X85016693Y-50128230D02*
X84759306Y-49356070D01*
X84501919Y-50128230D01*
X93038013Y-70448230D02*
X93038013Y-69676070D01*
X92596778Y-70448230D01*
X92596778Y-69676070D01*
X92082005Y-69676070D02*
X91934927Y-69676070D01*
X91861388Y-69712840D01*
X91787849Y-69786379D01*
X91751079Y-69933457D01*
X91751079Y-70190843D01*
X91787849Y-70337921D01*
X91861388Y-70411460D01*
X91934927Y-70448230D01*
X92082005Y-70448230D01*
X92155544Y-70411460D01*
X92229083Y-70337921D01*
X92265853Y-70190843D01*
X92265853Y-69933457D01*
X92229083Y-69786379D01*
X92155544Y-69712840D01*
X92082005Y-69676070D01*
X91420154Y-70043765D02*
X91162767Y-70043765D01*
X91052458Y-70448230D02*
X91420154Y-70448230D01*
X91420154Y-69676070D01*
X91052458Y-69676070D01*
X82256317Y-61965840D02*
X82329856Y-61929070D01*
X82440165Y-61929070D01*
X82550474Y-61965840D01*
X82624013Y-62039379D01*
X82660782Y-62112918D01*
X82697552Y-62259996D01*
X82697552Y-62370304D01*
X82660782Y-62517382D01*
X82624013Y-62590921D01*
X82550474Y-62664460D01*
X82440165Y-62701230D01*
X82366626Y-62701230D01*
X82256317Y-62664460D01*
X82219548Y-62627691D01*
X82219548Y-62370304D01*
X82366626Y-62370304D01*
X81888622Y-62701230D02*
X81888622Y-61929070D01*
X81447388Y-62701230D01*
X81447388Y-61929070D01*
X81079693Y-62701230D02*
X81079693Y-61929070D01*
X80895845Y-61929070D01*
X80785536Y-61965840D01*
X80711997Y-62039379D01*
X80675228Y-62112918D01*
X80638458Y-62259996D01*
X80638458Y-62370304D01*
X80675228Y-62517382D01*
X80711997Y-62590921D01*
X80785536Y-62664460D01*
X80895845Y-62701230D01*
X81079693Y-62701230D01*
X92322700Y-74588430D02*
X92322700Y-73816270D01*
X92138853Y-73816270D01*
X92028544Y-73853040D01*
X91955005Y-73926579D01*
X91918236Y-74000118D01*
X91881466Y-74147196D01*
X91881466Y-74257504D01*
X91918236Y-74404582D01*
X91955005Y-74478121D01*
X92028544Y-74551660D01*
X92138853Y-74588430D01*
X92322700Y-74588430D01*
X91550540Y-74294274D02*
X90962228Y-74294274D01*
X92322700Y-75782230D02*
X92322700Y-75010070D01*
X92138853Y-75010070D01*
X92028544Y-75046840D01*
X91955005Y-75120379D01*
X91918236Y-75193918D01*
X91881466Y-75340996D01*
X91881466Y-75451304D01*
X91918236Y-75598382D01*
X91955005Y-75671921D01*
X92028544Y-75745460D01*
X92138853Y-75782230D01*
X92322700Y-75782230D01*
X91550540Y-75488074D02*
X90962228Y-75488074D01*
X91256384Y-75782230D02*
X91256384Y-75193918D01*
X82069083Y-52109430D02*
X82069083Y-51337270D01*
X81885236Y-51337270D01*
X81774927Y-51374040D01*
X81701388Y-51447579D01*
X81664618Y-51521118D01*
X81627849Y-51668196D01*
X81627849Y-51778504D01*
X81664618Y-51925582D01*
X81701388Y-51999121D01*
X81774927Y-52072660D01*
X81885236Y-52109430D01*
X82069083Y-52109430D01*
X80892458Y-52109430D02*
X81333693Y-52109430D01*
X81113076Y-52109430D02*
X81113076Y-51337270D01*
X81186615Y-51447579D01*
X81260154Y-51521118D01*
X81333693Y-51557887D01*
X82069083Y-53430230D02*
X82069083Y-52658070D01*
X81885236Y-52658070D01*
X81774927Y-52694840D01*
X81701388Y-52768379D01*
X81664618Y-52841918D01*
X81627849Y-52988996D01*
X81627849Y-53099304D01*
X81664618Y-53246382D01*
X81701388Y-53319921D01*
X81774927Y-53393460D01*
X81885236Y-53430230D01*
X82069083Y-53430230D01*
X81149845Y-52658070D02*
X81076306Y-52658070D01*
X81002767Y-52694840D01*
X80965997Y-52731609D01*
X80929228Y-52805148D01*
X80892458Y-52952226D01*
X80892458Y-53136074D01*
X80929228Y-53283152D01*
X80965997Y-53356691D01*
X81002767Y-53393460D01*
X81076306Y-53430230D01*
X81149845Y-53430230D01*
X81223384Y-53393460D01*
X81260154Y-53356691D01*
X81296923Y-53283152D01*
X81333693Y-53136074D01*
X81333693Y-52952226D01*
X81296923Y-52805148D01*
X81260154Y-52731609D01*
X81223384Y-52694840D01*
X81149845Y-52658070D01*
X84956700Y-54753691D02*
X84993470Y-54790460D01*
X85103778Y-54827230D01*
X85177317Y-54827230D01*
X85287626Y-54790460D01*
X85361165Y-54716921D01*
X85397935Y-54643382D01*
X85434704Y-54496304D01*
X85434704Y-54385996D01*
X85397935Y-54238918D01*
X85361165Y-54165379D01*
X85287626Y-54091840D01*
X85177317Y-54055070D01*
X85103778Y-54055070D01*
X84993470Y-54091840D01*
X84956700Y-54128609D01*
X84258079Y-54827230D02*
X84625775Y-54827230D01*
X84625775Y-54055070D01*
X84000693Y-54827230D02*
X84000693Y-54055070D01*
X83559458Y-54827230D02*
X83890384Y-54385996D01*
X83559458Y-54055070D02*
X84000693Y-54496304D01*
X85214087Y-55998291D02*
X85250856Y-56035060D01*
X85361165Y-56071830D01*
X85434704Y-56071830D01*
X85545013Y-56035060D01*
X85618552Y-55961521D01*
X85655321Y-55887982D01*
X85692091Y-55740904D01*
X85692091Y-55630596D01*
X85655321Y-55483518D01*
X85618552Y-55409979D01*
X85545013Y-55336440D01*
X85434704Y-55299670D01*
X85361165Y-55299670D01*
X85250856Y-55336440D01*
X85214087Y-55373209D01*
X84883161Y-56071830D02*
X84883161Y-55299670D01*
X84625775Y-55851213D01*
X84368388Y-55299670D01*
X84368388Y-56071830D01*
X84000693Y-56071830D02*
X84000693Y-55299670D01*
X83816845Y-55299670D01*
X83706536Y-55336440D01*
X83632997Y-55409979D01*
X83596228Y-55483518D01*
X83559458Y-55630596D01*
X83559458Y-55740904D01*
X83596228Y-55887982D01*
X83632997Y-55961521D01*
X83706536Y-56035060D01*
X83816845Y-56071830D01*
X84000693Y-56071830D01*
X84736083Y-57367230D02*
X84736083Y-56595070D01*
X84552236Y-56595070D01*
X84441927Y-56631840D01*
X84368388Y-56705379D01*
X84331618Y-56778918D01*
X84294849Y-56925996D01*
X84294849Y-57036304D01*
X84331618Y-57183382D01*
X84368388Y-57256921D01*
X84441927Y-57330460D01*
X84552236Y-57367230D01*
X84736083Y-57367230D01*
X84037462Y-56595070D02*
X83559458Y-56595070D01*
X83816845Y-56889226D01*
X83706536Y-56889226D01*
X83632997Y-56925996D01*
X83596228Y-56962765D01*
X83559458Y-57036304D01*
X83559458Y-57220152D01*
X83596228Y-57293691D01*
X83632997Y-57330460D01*
X83706536Y-57367230D01*
X83927154Y-57367230D01*
X84000693Y-57330460D01*
X84037462Y-57293691D01*
X84863083Y-58637230D02*
X84863083Y-57865070D01*
X84679236Y-57865070D01*
X84568927Y-57901840D01*
X84495388Y-57975379D01*
X84458618Y-58048918D01*
X84421849Y-58195996D01*
X84421849Y-58306304D01*
X84458618Y-58453382D01*
X84495388Y-58526921D01*
X84568927Y-58600460D01*
X84679236Y-58637230D01*
X84863083Y-58637230D01*
X84127693Y-57938609D02*
X84090923Y-57901840D01*
X84017384Y-57865070D01*
X83833536Y-57865070D01*
X83759997Y-57901840D01*
X83723228Y-57938609D01*
X83686458Y-58012148D01*
X83686458Y-58085687D01*
X83723228Y-58195996D01*
X84164462Y-58637230D01*
X83686458Y-58637230D01*
X91486929Y-50589775D02*
X91486929Y-50148540D01*
X90714769Y-50369157D02*
X91486929Y-50369157D01*
X91119234Y-49891154D02*
X91119234Y-49633767D01*
X90714769Y-49523458D02*
X90714769Y-49891154D01*
X91486929Y-49891154D01*
X91486929Y-49523458D01*
%LPC*%
D16*
X82973000Y-48641000D02*
G75*
G03X82973000Y-48641000I-550000J0D01*
G01*
X116882000Y-63373000D02*
G75*
G03X116882000Y-63373000I-550000J0D01*
G01*
D11*
G36*
X109950000Y-56166000D02*
G01*
X105950000Y-56166000D01*
X105950000Y-60166000D01*
X109950000Y-60166000D01*
X109950000Y-56166000D01*
G37*
G36*
X93150000Y-67115000D02*
G01*
X93150000Y-71315000D01*
X97350000Y-71315000D01*
X97350000Y-67115000D01*
X93150000Y-67115000D01*
G37*
G36*
X80800000Y-64173000D02*
G01*
X81700000Y-64173000D01*
X81881173Y-64196852D01*
X82050000Y-64266782D01*
X82194975Y-64378025D01*
X82306218Y-64523000D01*
X82400000Y-64873000D01*
X82376148Y-65054173D01*
X82306218Y-65223000D01*
X82194975Y-65367975D01*
X82050000Y-65479218D01*
X81881173Y-65549148D01*
X81700000Y-65573000D01*
X80800000Y-65573000D01*
X80618827Y-65549148D01*
X80450000Y-65479218D01*
X80305025Y-65367975D01*
X80193782Y-65223000D01*
X80123852Y-65054173D01*
X80100000Y-64873000D01*
X80123852Y-64691827D01*
X80193782Y-64523000D01*
X80305025Y-64378025D01*
X80450000Y-64266782D01*
X80800000Y-64173000D01*
G37*
G36*
X80800000Y-73873000D02*
G01*
X81700000Y-73873000D01*
X81881173Y-73896852D01*
X82050000Y-73966782D01*
X82194975Y-74078025D01*
X82306218Y-74223000D01*
X82400000Y-74573000D01*
X82376148Y-74754173D01*
X82306218Y-74923000D01*
X82194975Y-75067975D01*
X82050000Y-75179218D01*
X81881173Y-75249148D01*
X81700000Y-75273000D01*
X80800000Y-75273000D01*
X80618827Y-75249148D01*
X80450000Y-75179218D01*
X80305025Y-75067975D01*
X80193782Y-74923000D01*
X80123852Y-74754173D01*
X80100000Y-74573000D01*
X80123852Y-74391827D01*
X80193782Y-74223000D01*
X80305025Y-74078025D01*
X80450000Y-73966782D01*
X80800000Y-73873000D01*
G37*
G36*
X77500000Y-64173000D02*
G01*
X78400000Y-64173000D01*
X78399999Y-64173000D01*
X78581172Y-64196852D01*
X78749999Y-64266782D01*
X78894974Y-64378025D01*
X79006217Y-64523000D01*
X79100000Y-64873000D01*
X79100000Y-64872999D01*
X79076148Y-65054173D01*
X79006218Y-65223000D01*
X78894975Y-65367975D01*
X78750000Y-65479218D01*
X78581174Y-65549149D01*
X78400000Y-65573000D01*
X77500000Y-65573000D01*
X77318827Y-65549148D01*
X77150000Y-65479218D01*
X77005025Y-65367975D01*
X76893782Y-65223000D01*
X76823852Y-65054173D01*
X76800000Y-64873000D01*
X76823852Y-64691827D01*
X76893782Y-64523000D01*
X77005025Y-64378025D01*
X77150000Y-64266782D01*
X77500000Y-64173000D01*
G37*
G36*
X77500000Y-73873000D02*
G01*
X78400000Y-73873000D01*
X78399999Y-73873000D01*
X78581172Y-73896852D01*
X78749999Y-73966782D01*
X78894974Y-74078025D01*
X79006217Y-74223000D01*
X79100000Y-74573000D01*
X79100000Y-74572999D01*
X79076148Y-74754173D01*
X79006218Y-74923000D01*
X78894975Y-75067975D01*
X78750000Y-75179218D01*
X78581174Y-75249149D01*
X78400000Y-75273000D01*
X77500000Y-75273000D01*
X77318827Y-75249148D01*
X77150000Y-75179218D01*
X77005025Y-75067975D01*
X76893782Y-74923000D01*
X76823852Y-74754173D01*
X76800000Y-74573000D01*
X76823852Y-74391827D01*
X76893782Y-74223000D01*
X77005025Y-74078025D01*
X77150000Y-73966782D01*
X77500000Y-73873000D01*
G37*
D17*
X82423000Y-48641000D03*
X116332000Y-63373000D03*
D18*
X117409000Y-50731600D03*
X115509000Y-50731600D03*
X116459000Y-48531600D03*
D19*
X106741000Y-71417500D03*
X105791000Y-71417500D03*
X104841000Y-71417500D03*
X104841000Y-73616500D03*
X105791000Y-73616500D03*
X106741000Y-73616500D03*
D20*
X83312000Y-69074000D03*
X83312000Y-73674000D03*
D21*
X88372000Y-65260000D03*
X87872000Y-65260000D03*
X87372000Y-65260000D03*
X86872000Y-65260000D03*
D22*
X87122000Y-67310000D03*
D21*
X86372000Y-65260000D03*
X85872000Y-65260000D03*
D23*
X85072000Y-66060000D03*
X85072000Y-66560000D03*
X85072000Y-67060000D03*
X85072000Y-67560000D03*
X85072000Y-68060000D03*
X85072000Y-68560000D03*
D21*
X85872000Y-69360000D03*
X86372000Y-69360000D03*
X86872000Y-69360000D03*
X87372000Y-69360000D03*
X87872000Y-69360000D03*
X88372000Y-69360000D03*
D23*
X89172000Y-68560000D03*
X89172000Y-68060000D03*
X89172000Y-67560000D03*
X89172000Y-67060000D03*
X89172000Y-66560000D03*
X89172000Y-66060000D03*
D24*
X96825000Y-46625000D03*
X97575000Y-46625000D03*
X96825000Y-49275000D03*
X97575000Y-49275000D03*
X84125000Y-52025000D03*
X84125000Y-51275000D03*
X86775000Y-52025000D03*
X86775000Y-51275000D03*
X90625000Y-57775000D03*
X89875000Y-57775000D03*
X90625000Y-55125000D03*
X89875000Y-55125000D03*
X86775000Y-60875000D03*
X86775000Y-61625000D03*
X84125000Y-60875000D03*
X84125000Y-61625000D03*
X80275000Y-55125000D03*
X81025000Y-55125000D03*
X80275000Y-57775000D03*
X81025000Y-57775000D03*
X110275000Y-51265000D03*
X110275000Y-52015000D03*
X107625000Y-51265000D03*
X107625000Y-52015000D03*
X113375000Y-55125000D03*
X114125000Y-55125000D03*
X113375000Y-57775000D03*
X114125000Y-57775000D03*
X107625000Y-61635000D03*
X107625000Y-60885000D03*
X110275000Y-61635000D03*
X110275000Y-60885000D03*
X104525000Y-57775000D03*
X103775000Y-57775000D03*
X104525000Y-55125000D03*
X103775000Y-55125000D03*
X91875000Y-72325000D03*
X91875000Y-71575000D03*
X94525000Y-72325000D03*
X94525000Y-71575000D03*
X102525000Y-71575000D03*
X102525000Y-72325000D03*
X99875000Y-71575000D03*
X99875000Y-72325000D03*
D25*
X99364800Y-58140600D03*
X111633000Y-60960000D03*
X98171000Y-64516000D03*
X97129600Y-65786000D03*
X92329000Y-48006000D03*
X90043000Y-48006000D03*
X88900000Y-48768000D03*
X87757000Y-48006000D03*
X100711000Y-56007000D03*
X102743000Y-69977000D03*
X103759000Y-71501000D03*
X92456000Y-57785000D03*
X92202000Y-67818000D03*
X103505000Y-66294000D03*
X99695000Y-56692800D03*
X92202000Y-56007000D03*
X95758000Y-72136000D03*
X100584000Y-69977000D03*
X96774000Y-74422000D03*
X95758000Y-50546000D03*
X105029000Y-66548000D03*
X93599000Y-47244000D03*
X86614000Y-48768000D03*
X92202000Y-69088000D03*
X79756000Y-62230000D03*
X89992200Y-74244200D03*
X90170000Y-75438000D03*
X82854800Y-51765200D03*
X82854800Y-53086000D03*
X82854800Y-54406800D03*
X82854800Y-55727600D03*
X82854800Y-57048400D03*
X82854800Y-58369200D03*
X91186000Y-48768000D03*
D26*
X106950000Y-57166000D03*
X107950000Y-57166000D03*
X108950000Y-57166000D03*
X106950000Y-58166000D03*
X107950000Y-58166000D03*
X108950000Y-58166000D03*
X106950000Y-59166000D03*
X107950000Y-59166000D03*
X108950000Y-59166000D03*
X94050000Y-70415000D03*
X94050000Y-69215000D03*
X94050000Y-68015000D03*
X95250000Y-70415000D03*
X95250000Y-69215000D03*
X95250000Y-68015000D03*
X96450000Y-70415000D03*
X96450000Y-69215000D03*
X96450000Y-68015000D03*
D27*
X81250000Y-74573000D03*
X81250000Y-64873000D03*
X77950000Y-64873000D03*
X77950000Y-74573000D03*
D28*
X97028000Y-45339000D03*
X95758000Y-45339000D03*
D29*
X94488000Y-45339000D03*
D30*
X83989000Y-75311000D03*
X82889000Y-75311000D03*
D31*
X104140000Y-69850000D03*
X104140000Y-68072000D03*
D32*
X93174000Y-51181000D03*
X94024000Y-51181000D03*
D33*
X86106000Y-72600000D03*
X86106000Y-73450000D03*
X90170000Y-45295000D03*
X90170000Y-46145000D03*
X92202000Y-45295000D03*
X92202000Y-46145000D03*
X87122000Y-45295000D03*
X87122000Y-46145000D03*
X93218000Y-45295000D03*
X93218000Y-46145000D03*
X89154000Y-45295000D03*
X89154000Y-46145000D03*
X88138000Y-45295000D03*
X88138000Y-46145000D03*
X103378000Y-75355000D03*
X103378000Y-74505000D03*
D32*
X89833000Y-71247000D03*
X88983000Y-71247000D03*
D33*
X79121000Y-51391000D03*
X79121000Y-52241000D03*
D32*
X90595000Y-61849000D03*
X89745000Y-61849000D03*
D33*
X91821000Y-61512000D03*
X91821000Y-60662000D03*
D32*
X80347000Y-50165000D03*
X81197000Y-50165000D03*
X102914000Y-59944000D03*
X102064000Y-59944000D03*
X105327000Y-59944000D03*
X104477000Y-59944000D03*
X114217000Y-52959000D03*
X113367000Y-52959000D03*
X113201000Y-50419000D03*
X112351000Y-50419000D03*
D33*
X91186000Y-45295000D03*
X91186000Y-46145000D03*
D34*
X89535000Y-70231000D03*
X90297000Y-70231000D03*
X100584000Y-68326000D03*
X100584000Y-67564000D03*
X97536000Y-69850000D03*
X98298000Y-69850000D03*
X94996000Y-66040000D03*
X94996000Y-66802000D03*
X97536000Y-68834000D03*
X98298000Y-68834000D03*
X106680000Y-47879000D03*
X106680000Y-47117000D03*
X104775000Y-46736000D03*
X105537000Y-46736000D03*
X100330000Y-51308000D03*
X99568000Y-51308000D03*
X113665000Y-62865000D03*
X113665000Y-62103000D03*
X107950000Y-67183000D03*
X107950000Y-67945000D03*
X104648000Y-48641000D03*
X104648000Y-47879000D03*
X107696000Y-47879000D03*
X107696000Y-47117000D03*
X102362000Y-66294000D03*
X102362000Y-65532000D03*
X112649000Y-62865000D03*
X112649000Y-62103000D03*
X103378000Y-48641000D03*
X103378000Y-47879000D03*
X102235000Y-48768000D03*
X101473000Y-48768000D03*
X100838000Y-65405000D03*
X100838000Y-66167000D03*
X105664000Y-48641000D03*
X105664000Y-47879000D03*
X105283000Y-68707000D03*
X105283000Y-67945000D03*
X102997000Y-63373000D03*
X103759000Y-63373000D03*
X113538000Y-64008000D03*
X112776000Y-64008000D03*
X112014000Y-65024000D03*
X111252000Y-65024000D03*
X109093000Y-65151000D03*
X109093000Y-65913000D03*
X106934000Y-65024000D03*
X106172000Y-65024000D03*
X114173000Y-65024000D03*
X114935000Y-65024000D03*
X92837000Y-60960000D03*
X92837000Y-61722000D03*
X88392000Y-64262000D03*
X89154000Y-64262000D03*
X89408000Y-62865000D03*
X90170000Y-62865000D03*
X93980000Y-66802000D03*
X93980000Y-66040000D03*
X97282000Y-70866000D03*
X98044000Y-70866000D03*
X101092000Y-62738000D03*
X101092000Y-63500000D03*
X94361000Y-64770000D03*
X94361000Y-64008000D03*
X99822000Y-66167000D03*
X99822000Y-65405000D03*
X115697000Y-61087000D03*
X115697000Y-60325000D03*
X114681000Y-61087000D03*
X114681000Y-60325000D03*
X100457000Y-58039000D03*
X100457000Y-58801000D03*
X110109000Y-65913000D03*
X110109000Y-65151000D03*
X102362000Y-47625000D03*
X102362000Y-46863000D03*
X101346000Y-47625000D03*
X101346000Y-46863000D03*
X108077000Y-65913000D03*
X108077000Y-65151000D03*
X102997000Y-67945000D03*
X102997000Y-68707000D03*
X104902000Y-64262000D03*
X104902000Y-63500000D03*
X104775000Y-45720000D03*
X105537000Y-45720000D03*
X85090000Y-72390000D03*
X85090000Y-73152000D03*
X114427000Y-51308000D03*
X114427000Y-50546000D03*
X114046000Y-49403000D03*
X113284000Y-49403000D03*
X116713000Y-61087000D03*
X116713000Y-60325000D03*
X112522000Y-51435000D03*
X113284000Y-51435000D03*
M02*
