G04 #@! TF.GenerationSoftware,KiCad,Pcbnew,5.1.5+dfsg1-2build2*
G04 #@! TF.CreationDate,2020-11-28T22:40:57+01:00*
G04 #@! TF.ProjectId,FunKey,46756e4b-6579-42e6-9b69-6361645f7063,E*
G04 #@! TF.SameCoordinates,Original*
G04 #@! TF.FileFunction,Paste,Top*
G04 #@! TF.FilePolarity,Positive*
%FSLAX46Y46*%
G04 Gerber Fmt 4.6, Leading zero omitted, Abs format (unit mm)*
G04 Created by KiCad (PCBNEW 5.1.5+dfsg1-2build2) date 2020-11-28 22:40:57*
%MOMM*%
%LPD*%
G04 APERTURE LIST*
%ADD10C,0.127000*%
%ADD11R,1.800000X1.200000*%
%ADD12R,1.550000X0.600000*%
%ADD13R,0.247500X1.600000*%
%ADD14R,1.600000X0.247500*%
%ADD15R,1.400000X0.700000*%
%ADD16R,0.380000X1.100000*%
%ADD17R,0.230000X0.630000*%
%ADD18R,0.650000X0.700000*%
%ADD19R,0.800000X1.350000*%
%ADD20R,0.850000X2.000000*%
%ADD21R,1.200000X0.655000*%
%ADD22R,1.050000X1.400000*%
%ADD23R,1.050000X1.075000*%
%ADD24R,1.200000X0.725000*%
%ADD25R,1.500000X1.775000*%
%ADD26R,1.500000X1.725000*%
%ADD27R,1.150000X1.055000*%
%ADD28R,1.350000X0.650000*%
%ADD29R,1.350000X0.750000*%
%ADD30R,2.700000X1.000000*%
%ADD31R,1.000000X2.700000*%
%ADD32R,1.000000X0.200000*%
%ADD33R,0.200000X1.000000*%
%ADD34R,1.150000X0.400000*%
%ADD35R,1.100000X0.600000*%
%ADD36R,1.143000X1.778000*%
%ADD37R,0.600000X0.700000*%
%ADD38R,1.000000X0.700000*%
%ADD39R,1.800000X1.400000*%
%ADD40R,1.270000X1.397000*%
%ADD41R,0.889000X0.635000*%
%ADD42R,0.550000X0.600000*%
%ADD43R,0.600000X0.550000*%
%ADD44R,0.508000X0.508000*%
G04 APERTURE END LIST*
D10*
G36*
X109450000Y-56666000D02*
G01*
X106450000Y-56666000D01*
X106450000Y-59666000D01*
X109450000Y-59666000D01*
X109450000Y-56666000D01*
G37*
G36*
X93550000Y-67515000D02*
G01*
X93550000Y-70915000D01*
X96950000Y-70915000D01*
X96950000Y-67515000D01*
X93550000Y-67515000D01*
G37*
G36*
X80800000Y-64173000D02*
G01*
X81700000Y-64173000D01*
X81881173Y-64196852D01*
X82050000Y-64266782D01*
X82194975Y-64378025D01*
X82306218Y-64523000D01*
X82400000Y-64873000D01*
X82376148Y-65054173D01*
X82306218Y-65223000D01*
X82194975Y-65367975D01*
X82050000Y-65479218D01*
X81881173Y-65549148D01*
X81700000Y-65573000D01*
X80800000Y-65573000D01*
X80618827Y-65549148D01*
X80450000Y-65479218D01*
X80305025Y-65367975D01*
X80193782Y-65223000D01*
X80123852Y-65054173D01*
X80100000Y-64873000D01*
X80123852Y-64691827D01*
X80193782Y-64523000D01*
X80305025Y-64378025D01*
X80450000Y-64266782D01*
X80800000Y-64173000D01*
G37*
G36*
X80800000Y-73873000D02*
G01*
X81700000Y-73873000D01*
X81881173Y-73896852D01*
X82050000Y-73966782D01*
X82194975Y-74078025D01*
X82306218Y-74223000D01*
X82400000Y-74573000D01*
X82376148Y-74754173D01*
X82306218Y-74923000D01*
X82194975Y-75067975D01*
X82050000Y-75179218D01*
X81881173Y-75249148D01*
X81700000Y-75273000D01*
X80800000Y-75273000D01*
X80618827Y-75249148D01*
X80450000Y-75179218D01*
X80305025Y-75067975D01*
X80193782Y-74923000D01*
X80123852Y-74754173D01*
X80100000Y-74573000D01*
X80123852Y-74391827D01*
X80193782Y-74223000D01*
X80305025Y-74078025D01*
X80450000Y-73966782D01*
X80800000Y-73873000D01*
G37*
G36*
X77500000Y-64173000D02*
G01*
X78400000Y-64173000D01*
X78399999Y-64173000D01*
X78581172Y-64196852D01*
X78749999Y-64266782D01*
X78894974Y-64378025D01*
X79006217Y-64523000D01*
X79100000Y-64873000D01*
X79100000Y-64872999D01*
X79076148Y-65054173D01*
X79006218Y-65223000D01*
X78894975Y-65367975D01*
X78750000Y-65479218D01*
X78581174Y-65549149D01*
X78400000Y-65573000D01*
X77500000Y-65573000D01*
X77318827Y-65549148D01*
X77150000Y-65479218D01*
X77005025Y-65367975D01*
X76893782Y-65223000D01*
X76823852Y-65054173D01*
X76800000Y-64873000D01*
X76823852Y-64691827D01*
X76893782Y-64523000D01*
X77005025Y-64378025D01*
X77150000Y-64266782D01*
X77500000Y-64173000D01*
G37*
G36*
X77500000Y-73873000D02*
G01*
X78400000Y-73873000D01*
X78399999Y-73873000D01*
X78581172Y-73896852D01*
X78749999Y-73966782D01*
X78894974Y-74078025D01*
X79006217Y-74223000D01*
X79100000Y-74573000D01*
X79100000Y-74572999D01*
X79076148Y-74754173D01*
X79006218Y-74923000D01*
X78894975Y-75067975D01*
X78750000Y-75179218D01*
X78581174Y-75249149D01*
X78400000Y-75273000D01*
X77500000Y-75273000D01*
X77318827Y-75249148D01*
X77150000Y-75179218D01*
X77005025Y-75067975D01*
X76893782Y-74923000D01*
X76823852Y-74754173D01*
X76800000Y-74573000D01*
X76823852Y-74391827D01*
X76893782Y-74223000D01*
X77005025Y-74078025D01*
X77150000Y-73966782D01*
X77500000Y-73873000D01*
G37*
D11*
X103533000Y-48536000D03*
X103533000Y-44936000D03*
D12*
X99658000Y-47236000D03*
X99658000Y-46236000D03*
D13*
X114150000Y-65966000D03*
X113750000Y-65966000D03*
X113350000Y-65966000D03*
X112950000Y-65966000D03*
X112550000Y-65966000D03*
X112150000Y-65966000D03*
X111750000Y-65966000D03*
X111350000Y-65966000D03*
X110950000Y-65966000D03*
X110550000Y-65966000D03*
X110150000Y-65966000D03*
X109750000Y-65966000D03*
X109350000Y-65966000D03*
X108950000Y-65966000D03*
X108550000Y-65966000D03*
X108150000Y-65966000D03*
X107750000Y-65966000D03*
X107350000Y-65966000D03*
X106950000Y-65966000D03*
X106550000Y-65966000D03*
X106150000Y-65966000D03*
X105750000Y-65966000D03*
X105350000Y-65966000D03*
X104950000Y-65966000D03*
X104550000Y-65966000D03*
X104150000Y-65966000D03*
X103750000Y-65966000D03*
X103350000Y-65966000D03*
X102950000Y-65966000D03*
X102550000Y-65966000D03*
X102150000Y-65966000D03*
X101750000Y-65966000D03*
D14*
X100150000Y-64366000D03*
X100150000Y-63966000D03*
X100150000Y-63566000D03*
X100150000Y-63166000D03*
X100150000Y-62766000D03*
X100150000Y-62366000D03*
X100150000Y-61966000D03*
X100150000Y-61566000D03*
X100150000Y-61166000D03*
X100150000Y-60766000D03*
X100150000Y-60366000D03*
X100150000Y-59966000D03*
X100150000Y-59566000D03*
X100150000Y-59166000D03*
X100150000Y-58766000D03*
X100150000Y-58366000D03*
X100150000Y-57966000D03*
X100150000Y-57566000D03*
X100150000Y-57166000D03*
X100150000Y-56766000D03*
X100150000Y-56366000D03*
X100150000Y-55966000D03*
X100150000Y-55566000D03*
X100150000Y-55166000D03*
X100150000Y-54766000D03*
X100150000Y-54366000D03*
X100150000Y-53966000D03*
X100150000Y-53566000D03*
X100150000Y-53166000D03*
X100150000Y-52766000D03*
X100150000Y-52366000D03*
X100150000Y-51966000D03*
D13*
X101750000Y-50366000D03*
X102150000Y-50366000D03*
X102550000Y-50366000D03*
X102950000Y-50366000D03*
X103350000Y-50366000D03*
X103750000Y-50366000D03*
X104150000Y-50366000D03*
X104550000Y-50366000D03*
X104950000Y-50366000D03*
X105350000Y-50366000D03*
X105750000Y-50366000D03*
X106150000Y-50366000D03*
X106550000Y-50366000D03*
X106950000Y-50366000D03*
X107350000Y-50366000D03*
X107750000Y-50366000D03*
X108150000Y-50366000D03*
X108550000Y-50366000D03*
X108950000Y-50366000D03*
X109350000Y-50366000D03*
X109750000Y-50366000D03*
X110150000Y-50366000D03*
X110550000Y-50366000D03*
X110950000Y-50366000D03*
X111350000Y-50366000D03*
X111750000Y-50366000D03*
X112150000Y-50366000D03*
X112550000Y-50366000D03*
X112950000Y-50366000D03*
X113350000Y-50366000D03*
X113750000Y-50366000D03*
X114150000Y-50366000D03*
D14*
X115750000Y-51966000D03*
X115750000Y-52366000D03*
X115750000Y-52766000D03*
X115750000Y-53166000D03*
X115750000Y-53566000D03*
X115750000Y-53966000D03*
X115750000Y-54366000D03*
X115750000Y-54766000D03*
X115750000Y-55166000D03*
X115750000Y-55566000D03*
X115750000Y-55966000D03*
X115750000Y-56366000D03*
X115750000Y-56766000D03*
X115750000Y-57166000D03*
X115750000Y-57566000D03*
X115750000Y-57966000D03*
X115750000Y-58366000D03*
X115750000Y-58766000D03*
X115750000Y-59166000D03*
X115750000Y-59566000D03*
X115750000Y-59966000D03*
X115750000Y-60366000D03*
X115750000Y-60766000D03*
X115750000Y-61166000D03*
X115750000Y-61566000D03*
X115750000Y-61966000D03*
X115750000Y-62366000D03*
X115750000Y-62766000D03*
X115750000Y-63166000D03*
X115750000Y-63566000D03*
X115750000Y-63966000D03*
X115750000Y-64366000D03*
D15*
X97028000Y-64758000D03*
X97028000Y-63258000D03*
D16*
X86552200Y-47091600D03*
X93432200Y-47091600D03*
D17*
X92192200Y-45771600D03*
X91792200Y-45771600D03*
X91392200Y-45771600D03*
X90992200Y-45771600D03*
X90592200Y-45771600D03*
X90192200Y-45771600D03*
X89792200Y-45771600D03*
X89392200Y-45771600D03*
X88992200Y-45771600D03*
X88592200Y-45771600D03*
X88192200Y-45771600D03*
X87792200Y-45771600D03*
X92192200Y-48411600D03*
X91792200Y-48411600D03*
X91392200Y-48411600D03*
X90992200Y-48411600D03*
X90592200Y-48411600D03*
X90192200Y-48411600D03*
X89792200Y-48411600D03*
X89392200Y-48411600D03*
X88992200Y-48411600D03*
X88592200Y-48411600D03*
X88192200Y-48411600D03*
X87792200Y-48411600D03*
D18*
X112975000Y-46850000D03*
X117925000Y-46850000D03*
D19*
X114300000Y-48525000D03*
X116600000Y-48525000D03*
X115450000Y-48525000D03*
D18*
X76475000Y-46850000D03*
X81425000Y-46850000D03*
D19*
X77800000Y-48525000D03*
X80100000Y-48525000D03*
X78950000Y-48525000D03*
D20*
X94298000Y-51435000D03*
X95948000Y-51435000D03*
D21*
X86828600Y-50613500D03*
D22*
X91053600Y-52461000D03*
X91053600Y-59261000D03*
D23*
X91053600Y-50823500D03*
X91053600Y-61698500D03*
D24*
X86128600Y-61873500D03*
D25*
X80578600Y-61348500D03*
D26*
X80578600Y-50918500D03*
D27*
X88603600Y-61708500D03*
D28*
X82553600Y-60461000D03*
D29*
X82553600Y-51761000D03*
X82553600Y-52861000D03*
X82553600Y-53961000D03*
X82553600Y-55061000D03*
X82553600Y-56161000D03*
X82553600Y-57261000D03*
X82553600Y-58361000D03*
X82553600Y-59461000D03*
D30*
X103886000Y-70161000D03*
X103886000Y-67761000D03*
D31*
X93034000Y-61595000D03*
X95434000Y-61595000D03*
D30*
X89916000Y-66618000D03*
X89916000Y-69018000D03*
D32*
X98250000Y-67015000D03*
X98250000Y-67415000D03*
X98250000Y-67815000D03*
X98250000Y-68215000D03*
X98250000Y-68615000D03*
X98250000Y-69015000D03*
X98250000Y-69415000D03*
X98250000Y-69815000D03*
X98250000Y-70215000D03*
X98250000Y-70615000D03*
X98250000Y-71015000D03*
X98250000Y-71415000D03*
D33*
X97450000Y-72215000D03*
X97050000Y-72215000D03*
X96650000Y-72215000D03*
X96250000Y-72215000D03*
X95850000Y-72215000D03*
X95450000Y-72215000D03*
X95050000Y-72215000D03*
X94650000Y-72215000D03*
X94250000Y-72215000D03*
X93850000Y-72215000D03*
X93450000Y-72215000D03*
X93050000Y-72215000D03*
D32*
X92250000Y-71415000D03*
X92250000Y-71015000D03*
X92250000Y-70615000D03*
X92250000Y-70215000D03*
X92250000Y-69815000D03*
X92250000Y-69415000D03*
X92250000Y-69015000D03*
X92250000Y-68615000D03*
X92250000Y-68215000D03*
X92250000Y-67815000D03*
X92250000Y-67415000D03*
X92250000Y-67015000D03*
D33*
X93050000Y-66215000D03*
X93450000Y-66215000D03*
X93850000Y-66215000D03*
X94250000Y-66215000D03*
X94650000Y-66215000D03*
X95050000Y-66215000D03*
X95450000Y-66215000D03*
X95850000Y-66215000D03*
X96250000Y-66215000D03*
X96650000Y-66215000D03*
X97050000Y-66215000D03*
X97450000Y-66215000D03*
D34*
X82035000Y-71023000D03*
X82035000Y-70373000D03*
X82035000Y-69723000D03*
X82035000Y-69073000D03*
X82035000Y-68423000D03*
D35*
X97337400Y-47335400D03*
X97337400Y-49235400D03*
X94737400Y-49235400D03*
X94737400Y-48285400D03*
X94737400Y-47335400D03*
D36*
X87757000Y-73152000D03*
X84709000Y-73152000D03*
D37*
X84521000Y-68469000D03*
X86421000Y-68469000D03*
X86421000Y-70469000D03*
D38*
X84721000Y-70469000D03*
D39*
X84963000Y-64309000D03*
X84963000Y-67009000D03*
D40*
X96012000Y-55626000D03*
X96012000Y-57912000D03*
X94234000Y-57912000D03*
X94234000Y-55626000D03*
D41*
X100507800Y-68580000D03*
X100507800Y-69850000D03*
D42*
X78188000Y-51816000D03*
X79038000Y-51816000D03*
X78188000Y-52959000D03*
X79038000Y-52959000D03*
D43*
X79248000Y-54185000D03*
X79248000Y-55035000D03*
D42*
X78188000Y-56261000D03*
X79038000Y-56261000D03*
X78188000Y-57277000D03*
X79038000Y-57277000D03*
X78188000Y-58420000D03*
X79038000Y-58420000D03*
X78188000Y-59563000D03*
X79038000Y-59563000D03*
X110192000Y-75565000D03*
X111042000Y-75565000D03*
D43*
X117602000Y-68028000D03*
X117602000Y-68878000D03*
X117348000Y-50590000D03*
X117348000Y-49740000D03*
X76962000Y-49994000D03*
X76962000Y-50844000D03*
D44*
X99314000Y-74041000D03*
X98552000Y-74041000D03*
X97282000Y-74041000D03*
X96520000Y-74041000D03*
X94488000Y-74041000D03*
X95250000Y-74041000D03*
X91440000Y-73533000D03*
X92202000Y-73533000D03*
X90805000Y-72263000D03*
X90043000Y-72263000D03*
X90297000Y-70231000D03*
X89535000Y-70231000D03*
X91567000Y-64770000D03*
X91567000Y-64008000D03*
X100457000Y-70993000D03*
X99695000Y-70993000D03*
X92583000Y-64770000D03*
X92583000Y-64008000D03*
X91440000Y-74549000D03*
X92202000Y-74549000D03*
X88646000Y-65278000D03*
X88646000Y-64516000D03*
X87757000Y-66548000D03*
X87757000Y-67310000D03*
X90551000Y-65278000D03*
X90551000Y-64516000D03*
X87884000Y-69088000D03*
X87884000Y-69850000D03*
X92964000Y-59309000D03*
X93726000Y-59309000D03*
X92837000Y-58166000D03*
X92837000Y-57404000D03*
X103632000Y-71374000D03*
X102870000Y-71374000D03*
X100457000Y-72009000D03*
X99695000Y-72009000D03*
X101727000Y-69596000D03*
X101727000Y-68834000D03*
X93472000Y-53340000D03*
X93472000Y-54102000D03*
X97536000Y-50673000D03*
X97536000Y-51435000D03*
X94488000Y-53340000D03*
X94488000Y-54102000D03*
X98425000Y-59182000D03*
X97663000Y-59182000D03*
X106426000Y-67691000D03*
X106426000Y-68453000D03*
X98425000Y-60198000D03*
X97663000Y-60198000D03*
X98425000Y-57150000D03*
X97663000Y-57150000D03*
X98425000Y-54483000D03*
X97663000Y-54483000D03*
X98425000Y-53467000D03*
X97663000Y-53467000D03*
X109855000Y-48768000D03*
X109093000Y-48768000D03*
X111506000Y-48768000D03*
X112268000Y-48768000D03*
X117602000Y-54737000D03*
X117602000Y-55499000D03*
X116205000Y-67564000D03*
X115443000Y-67564000D03*
X117348000Y-66421000D03*
X117348000Y-65659000D03*
X117348000Y-58039000D03*
X117348000Y-57277000D03*
X96520000Y-54102000D03*
X96520000Y-53340000D03*
X95504000Y-54102000D03*
X95504000Y-53340000D03*
X97663000Y-58166000D03*
X98425000Y-58166000D03*
X107950000Y-68453000D03*
X107950000Y-67691000D03*
X87630000Y-64516000D03*
X87630000Y-65278000D03*
X86614000Y-64516000D03*
X86614000Y-65278000D03*
X86614000Y-66548000D03*
X86614000Y-67310000D03*
X105410000Y-72517000D03*
X105410000Y-73279000D03*
X96393000Y-59309000D03*
X95631000Y-59309000D03*
X92837000Y-55372000D03*
X92837000Y-56134000D03*
X95631000Y-64516000D03*
X95631000Y-63754000D03*
X96520000Y-62103000D03*
X96520000Y-61341000D03*
X77978000Y-54864000D03*
X77978000Y-54102000D03*
X117348000Y-59944000D03*
X117348000Y-60706000D03*
X117348000Y-53086000D03*
X117348000Y-52324000D03*
X98425000Y-62230000D03*
X97663000Y-62230000D03*
X98425000Y-61214000D03*
X97663000Y-61214000D03*
X106426000Y-73279000D03*
X106426000Y-72517000D03*
X107442000Y-73279000D03*
X107442000Y-72517000D03*
X90805000Y-71247000D03*
X90043000Y-71247000D03*
X98552000Y-51562000D03*
X98552000Y-52324000D03*
X98552000Y-50292000D03*
X98552000Y-49530000D03*
X92710000Y-51054000D03*
X92710000Y-50292000D03*
X98298000Y-55499000D03*
X97536000Y-55499000D03*
X79375000Y-60706000D03*
X79375000Y-61468000D03*
X85217000Y-71501000D03*
X84455000Y-71501000D03*
X98552000Y-64389000D03*
X98552000Y-63627000D03*
X77851000Y-60706000D03*
X77851000Y-61468000D03*
M02*
